# Blender 5.0.1
# www.blender.org
mtllib New_Mask.mtl
o Plane.001
v 5.893329 1.006972 -1.537328
v 5.719973 0.134951 -1.266834
v 4.349025 0.990054 -1.526533
v 4.484766 0.113455 -1.266833
v 5.258078 1.007846 -1.604931
v 5.258078 0.037212 -1.987542
v 5.743331 0.477314 -1.343938
v 4.512567 0.467936 -1.341845
v 5.258078 0.480841 -1.987542
v 5.508792 1.049823 -1.540823
v 5.508792 0.053502 -1.487027
v 5.508792 0.385925 -1.596180
v 4.760897 0.032467 -1.487027
v 4.760897 1.014394 -1.506010
v 4.760897 0.385925 -1.596180
v 4.505754 0.690844 -1.392597
v 5.258078 0.809916 -1.717033
v 5.761181 0.697181 -1.392597
v 5.508792 0.812735 -1.596180
v 4.760897 0.809948 -1.596180
v 5.743335 0.405270 -1.255341
v 4.472666 0.403933 -1.255341
v 5.263775 0.372093 -2.019249
v 5.525202 0.313780 -1.484944
v 4.745347 0.302813 -1.484944
v 5.752256 0.606640 -1.416113
v 4.513301 0.597134 -1.416113
v 5.258078 0.676360 -1.930593
v 5.508792 0.593061 -1.596180
v 4.760897 0.599398 -1.596180
v 4.388975 0.823838 -1.390224
v 5.258078 0.872605 -1.717033
v 5.508792 0.867335 -1.596180
v 4.760897 0.886345 -1.596180
v 5.879336 0.827007 -1.390224
v 4.622832 0.058724 -1.361364
v 4.640873 0.428169 -1.468144
v 4.516547 1.055944 -1.527466
v 4.633326 0.732875 -1.468144
v 4.609007 0.353373 -1.353911
v 4.637099 0.598956 -1.518075
v 4.574936 0.846786 -1.420686
v 5.753142 1.040783 -1.555420
v 5.614382 0.079989 -1.361364
v 5.626061 0.434506 -1.468144
v 5.634986 0.729706 -1.468144
v 5.634268 0.367764 -1.353911
v 5.630524 0.600540 -1.518075
v 5.694064 0.838866 -1.420686
v 5.009488 1.013435 -1.604931
v 5.009488 0.037212 -1.987542
v 5.009488 0.480841 -1.987542
v 5.009488 0.809300 -1.717033
v 5.004561 0.372093 -2.019249
v 5.009488 0.685337 -1.930593
v 5.009488 0.876241 -1.717033
v 5.738085 0.279119 -1.258365
v 4.471813 0.259210 -1.258365
v 5.262394 0.204108 -2.023018
v 5.521153 0.183655 -1.485624
v 4.749258 0.167372 -1.485624
v 4.610536 0.205944 -1.355929
v 5.629620 0.224040 -1.355929
v 5.005826 0.204108 -2.023018
v 5.760721 0.543882 -1.387693
v 4.504095 0.532560 -1.387693
v 5.260697 0.579594 -1.966306
v 5.516688 0.488611 -1.595779
v 4.753049 0.491846 -1.595779
v 4.628572 0.513187 -1.511082
v 5.638705 0.517231 -1.511082
v 5.006873 0.584177 -1.966306
v 5.401965 0.008631 -1.738714
v 5.401965 0.425528 -1.797352
v 5.401965 1.052645 -1.559850
v 5.401965 0.831593 -1.652033
v 5.413841 0.328352 -1.770563
v 5.401965 0.641836 -1.766758
v 5.401965 0.894600 -1.613628
v 5.410924 0.168206 -1.757019
v 5.407614 0.533742 -1.785728
v 4.866650 -0.002669 -1.738714
v 4.866650 0.425528 -1.797352
v 4.866650 0.829764 -1.652033
v 4.855650 0.322460 -1.770563
v 4.866650 0.650063 -1.766758
v 4.866650 0.906766 -1.613628
v 4.866650 1.024253 -1.559850
v 4.858430 0.159459 -1.757019
v 4.861030 0.537942 -1.785728
v 5.894248 0.994305 -1.603106
v 5.720893 0.139203 -1.343407
v 4.349945 0.994306 -1.603106
v 4.485686 0.117707 -1.343407
v 5.258998 1.012098 -1.662521
v 5.258998 0.041465 -2.064116
v 5.744251 0.481566 -1.420511
v 4.513487 0.472188 -1.418418
v 5.509712 1.054075 -1.582583
v 5.509712 0.057754 -1.563600
v 5.509712 0.411413 -1.672753
v 4.761817 0.036719 -1.563600
v 4.761817 1.018646 -1.582583
v 4.761817 0.411413 -1.672753
v 4.506674 0.695096 -1.469170
v 5.258998 0.814168 -1.793606
v 5.762101 0.701433 -1.469170
v 5.509712 0.816987 -1.672753
v 4.761817 0.814200 -1.672753
v 5.744255 0.409522 -1.331914
v 4.473586 0.408185 -1.331914
v 5.526122 0.318032 -1.561517
v 4.746267 0.307065 -1.561517
v 5.753176 0.610892 -1.492687
v 4.514222 0.601386 -1.492687
v 5.258998 0.680612 -2.007166
v 5.509712 0.597313 -1.672753
v 4.761817 0.603650 -1.672753
v 4.389895 0.828090 -1.435950
v 5.258998 0.876857 -1.793606
v 5.509712 0.871587 -1.672753
v 4.761817 0.890597 -1.672753
v 5.880256 0.831259 -1.435950
v 4.623752 0.062976 -1.437937
v 4.641793 0.432421 -1.544717
v 4.517467 1.060196 -1.604040
v 4.634245 0.737127 -1.544717
v 4.609927 0.357625 -1.430484
v 4.638019 0.603208 -1.594648
v 4.575856 0.851038 -1.497260
v 5.754062 1.045035 -1.604040
v 5.615303 0.084241 -1.437937
v 5.626981 0.438758 -1.544717
v 5.635906 0.733958 -1.544717
v 5.635189 0.372016 -1.430484
v 5.631444 0.604792 -1.594648
v 5.694984 0.843118 -1.497260
v 5.010407 1.017687 -1.662521
v 5.010407 0.041465 -2.064116
v 5.010407 0.813552 -1.793606
v 5.010407 0.689589 -2.007166
v 5.010407 0.880493 -1.793606
v 5.739006 0.283371 -1.334938
v 4.472733 0.263462 -1.334938
v 5.522073 0.187907 -1.562198
v 4.750178 0.171624 -1.562197
v 4.611455 0.210196 -1.432502
v 5.630539 0.228292 -1.432502
v 5.761642 0.548135 -1.464267
v 4.505015 0.536812 -1.464267
v 5.261617 0.583846 -2.042879
v 5.517608 0.492863 -1.672352
v 4.753969 0.496098 -1.672352
v 4.629492 0.517439 -1.587655
v 5.639625 0.521483 -1.587655
v 5.007793 0.588429 -2.042879
v 5.402885 0.012883 -1.815288
v 5.402885 0.429780 -1.873925
v 5.402885 1.056897 -1.636424
v 5.402885 0.835845 -1.728606
v 5.414761 0.332604 -1.847136
v 5.402885 0.646088 -1.843332
v 5.402885 0.898852 -1.690202
v 5.411844 0.172458 -1.833592
v 5.408534 0.537994 -1.862302
v 4.867569 0.001583 -1.815288
v 4.867569 0.429780 -1.873925
v 4.867569 0.834016 -1.728606
v 4.856570 0.326712 -1.847136
v 4.867569 0.654315 -1.843332
v 4.867569 0.911018 -1.690202
v 4.867569 1.028504 -1.636424
v 4.859350 0.163711 -1.833592
v 4.861949 0.542194 -1.862302
v 5.133783 1.010641 -1.604931
v 5.133783 0.037212 -1.987542
v 5.133783 0.480841 -1.987542
v 5.133783 0.809608 -1.717033
v 5.134168 0.372093 -2.019249
v 5.133783 0.680848 -1.930593
v 5.133783 0.874423 -1.717033
v 5.134110 0.204108 -2.023018
v 5.133785 0.581886 -1.966306
v 5.134703 1.014893 -1.709932
v 5.134703 0.041465 -2.111526
v 5.134703 0.813860 -1.841017
v 5.134703 0.685101 -2.054576
v 5.134703 0.878675 -1.841017
v 5.134705 0.586138 -2.090290
v 5.372315 0.048547 -1.886031
v 5.244840 0.073868 -2.106477
v 5.249887 0.370552 -2.134568
v 5.244840 0.466896 -2.106477
v 5.372315 0.417892 -1.937980
v 5.248664 0.221727 -2.137907
v 5.382836 0.331800 -1.914246
v 5.134722 0.073868 -2.148480
v 5.024604 0.073868 -2.106477
v 5.134722 0.466896 -2.148480
v 5.024604 0.466896 -2.106477
v 5.135063 0.370552 -2.176570
v 5.020239 0.370552 -2.134568
v 5.021360 0.221727 -2.137907
v 5.135012 0.221727 -2.179909
v 5.380252 0.189921 -1.902247
v 5.247160 0.554385 -2.087663
v 5.022288 0.558445 -2.087663
v 5.134724 0.556415 -2.129666
v 4.898058 0.038536 -1.886031
v 4.898058 0.417892 -1.937980
v 4.888313 0.326581 -1.914246
v 4.890777 0.182171 -1.902247
vn 0.6323 0.0110 0.7747
vn 0.5758 -0.0045 0.8176
vn 0.5729 0.0105 0.8196
vn 0.6441 0.0294 0.7643
vn -0.8965 0.0715 0.4372
vn -0.5374 0.0900 0.8385
vn -0.5672 0.1781 0.8041
vn -0.8929 0.1038 0.4380
vn -0.8317 -0.0814 0.5493
vn -0.4682 -0.2225 0.8552
vn -0.4877 -0.1723 0.8558
vn -0.8538 0.0029 0.5206
vn 0.6575 0.1990 0.7267
vn 0.6894 0.2861 0.6655
vn 0.6672 0.4686 0.5790
vn 0.6849 0.4207 0.5949
vn -0.6719 0.2090 0.7105
vn -0.7728 0.0552 0.6322
vn -0.8349 0.2508 0.4900
vn -0.7061 0.4672 0.5322
vn -0.7263 0.0337 0.6865
vn -0.8619 0.0547 0.5040
vn -0.8746 0.0799 0.4782
vn -0.7428 0.0558 0.6671
vn 0.8338 -0.0781 0.5464
vn 0.7686 0.0513 0.6377
vn 0.8254 0.2357 0.5131
vn 0.8557 0.0047 0.5174
vn 0.8973 0.0681 0.4362
vn 0.8322 0.0446 0.5527
vn 0.8487 0.0678 0.5246
vn 0.8948 0.0976 0.4356
vn 0.3701 -0.3928 0.8419
vn 0.4432 -0.1522 0.8834
vn 0.6455 -0.1101 0.7558
vn 0.5358 -0.3228 0.7802
vn -0.3466 0.2410 0.9065
vn -0.4185 -0.0809 0.9046
vn -0.6463 -0.1173 0.7540
vn -0.5877 -0.0673 0.8063
vn 0.3284 0.1900 0.9252
vn 0.0938 0.3506 0.9318
vn 0.4668 -0.1026 0.8784
vn 0.5828 -0.0671 0.8099
vn -0.3256 -0.3426 0.8813
vn -0.2084 -0.3617 0.9087
vn -0.2834 -0.5384 0.7936
vn -0.5333 -0.3379 0.7755
vn 0.8188 0.1947 0.5400
vn 0.8887 0.0575 0.4549
vn -0.8455 0.2139 0.4893
vn -0.7348 0.3420 0.5857
vn -0.5277 -0.1012 0.8434
vn -0.8875 0.0595 0.4570
vn 0.6462 0.2754 0.7118
vn 0.6757 0.2703 0.6858
vn 0.7324 -0.0985 0.6737
vn 0.7392 -0.2958 0.6050
vn -0.7312 -0.0968 0.6752
vn -0.6261 -0.0574 0.7776
vn 0.6409 -0.0581 0.7654
vn 0.6194 -0.0613 0.7827
vn -0.3461 -0.5771 0.7397
vn -0.7372 -0.2889 0.6108
vn -0.2546 -0.3759 0.8910
vn -0.1808 -0.5531 0.8133
vn 0.1202 0.3592 0.9255
vn -0.0586 0.5318 0.8449
vn -0.1723 0.4452 0.8787
vn -0.2712 -0.0362 0.9618
vn 0.3388 -0.4941 0.8007
vn 0.3543 -0.1872 0.9162
vn -0.0356 0.5978 0.8008
vn -0.1496 0.4063 0.9014
vn -0.4588 -0.0950 0.8834
vn -0.6425 -0.0643 0.7636
vn -0.6805 0.5365 0.4990
vn -0.7004 0.3923 0.5963
vn -0.6746 0.0213 0.7379
vn -0.6795 0.0433 0.7324
vn -0.7058 0.2873 0.6476
vn -0.0118 -0.6354 0.7721
vn 0.1739 -0.5809 0.7952
vn 0.2101 -0.3650 0.9070
vn -0.0067 -0.3621 0.9321
vn -0.0095 -0.5651 0.8250
vn 0.2765 -0.5480 0.7894
vn 0.3326 -0.5953 0.7314
vn -0.0129 -0.6706 0.7417
vn -0.0009 -0.2432 0.9700
vn 0.4900 -0.1678 0.8554
vn 0.5282 -0.0994 0.8433
vn -0.0000 -0.1541 0.9881
vn -0.0000 0.0942 0.9956
vn 0.5380 0.0878 0.8383
vn 0.5752 0.1741 0.7993
vn -0.0000 0.2079 0.9781
vn -0.0056 -0.2741 0.9617
vn 0.4657 -0.2180 0.8577
vn -0.6323 -0.0110 -0.7747
vn -0.6441 -0.0294 -0.7643
vn -0.5729 -0.0105 -0.8196
vn -0.5758 0.0045 -0.8176
vn 0.8285 0.0704 -0.5556
vn 0.8661 -0.0657 -0.4955
vn 0.6266 0.2307 -0.7444
vn -0.6546 -0.2055 -0.7275
vn -0.6757 -0.4272 -0.6008
vn -0.6672 -0.4686 -0.5790
vn -0.6894 -0.2861 -0.6655
vn 0.6693 -0.2156 -0.7111
vn 0.6971 -0.4742 -0.5378
vn 0.7065 -0.4125 -0.5750
vn 0.6344 -0.1528 -0.7578
vn 0.7263 -0.0337 -0.6865
vn 0.7428 -0.0558 -0.6671
vn 0.7728 -0.0620 -0.6316
vn 0.7723 -0.0453 -0.6337
vn -0.8307 0.0676 -0.5526
vn -0.8686 -0.0636 -0.4915
vn -0.8911 -0.1079 -0.4407
vn -0.8736 0.0198 -0.4863
vn -0.9271 -0.0599 -0.3701
vn -0.9242 -0.0830 -0.3729
vn -0.9272 -0.0588 -0.3699
vn -0.3506 0.4112 -0.8414
vn -0.4277 0.1792 -0.8860
vn -0.5619 0.0548 -0.8254
vn -0.4432 0.1522 -0.8834
vn 0.3766 -0.1942 -0.9058
vn 0.6017 0.0767 -0.7950
vn 0.5649 0.0649 -0.8226
vn 0.4450 0.1387 -0.8847
vn -0.3679 -0.1965 -0.9088
vn -0.5982 0.0765 -0.7977
vn -0.5034 0.1216 -0.8554
vn -0.1697 -0.3716 -0.9127
vn 0.3444 0.3772 -0.8597
vn 0.4290 0.2148 -0.8774
vn 0.4097 0.1263 -0.9034
vn 0.3541 0.3849 -0.8523
vn -0.9137 -0.1053 -0.3925
vn -0.9201 -0.0800 -0.3833
vn 0.7302 -0.3365 -0.5947
vn 0.7728 -0.2754 -0.5718
vn -0.6711 -0.2653 -0.6923
vn -0.6462 -0.2754 -0.7118
vn -0.6339 0.5367 -0.5569
vn -0.7694 0.3206 -0.5524
vn -0.8655 0.1546 -0.4764
vn 0.6261 0.0574 -0.7776
vn 0.5913 0.0508 -0.8048
vn -0.6194 0.0613 -0.7827
vn -0.6409 0.0581 -0.7654
vn 0.6336 0.5205 -0.5724
vn 0.7679 0.3129 -0.5590
vn 0.4697 0.5565 -0.6853
vn 0.3838 0.7232 -0.5742
vn 0.3020 0.4330 -0.8493
vn 0.2623 0.5870 -0.7659
vn -0.1496 -0.3965 -0.9058
vn 0.0056 -0.5885 -0.8085
vn 0.1823 -0.3812 -0.9063
vn 0.3443 0.1458 -0.9275
vn -0.3078 0.5201 -0.7967
vn -0.3543 0.1872 -0.9162
vn -0.5887 0.0538 -0.8066
vn -0.6783 -0.3832 -0.6269
vn -0.7103 -0.2532 -0.6568
vn -0.6195 -0.1424 -0.7720
vn -0.6853 -0.0266 -0.7278
vn -0.6826 -0.0402 -0.7297
vn 0.0359 -0.6045 -0.7958
vn 0.1908 -0.3916 -0.9001
vn 0.4969 0.1162 -0.8600
vn 0.6425 0.0643 -0.7636
vn 0.6805 -0.5365 -0.4990
vn 0.7004 -0.3923 -0.5963
vn 0.6746 -0.0213 -0.7379
vn 0.6795 -0.0433 -0.7324
vn 0.7058 -0.2873 -0.6476
vn 0.0082 0.6934 -0.7205
vn 0.0062 0.3919 -0.9200
vn -0.3554 0.3887 -0.8501
vn -0.2638 0.6150 -0.7431
vn 0.0159 0.8563 -0.5162
vn 0.0109 0.6518 -0.7583
vn -0.4548 0.5761 -0.6792
vn -0.3675 0.7422 -0.5604
vn 0.8698 -0.1719 -0.4625
vn 0.6657 -0.4685 -0.5808
vn 0.4156 -0.6501 -0.6362
vn 0.8537 -0.2118 -0.4757
vn -0.0007 -0.0000 -1.0000
vn -0.4118 0.1112 -0.9044
vn -0.8903 0.1049 -0.4432
vn -0.6301 0.5354 -0.5624
vn -0.5350 0.6117 -0.5827
vn -0.8829 0.1439 -0.4470
vn 0.9027 -0.0318 -0.4290
vn 0.8973 -0.0822 -0.4338
vn 0.8992 -0.0708 -0.4318
vn 0.9028 -0.0290 -0.4291
vn 0.6336 0.5365 -0.5575
vn 0.8887 0.1111 -0.4448
vn 0.8804 0.1534 -0.4487
vn 0.5456 0.6084 -0.5764
vn -0.8699 -0.1693 -0.4633
vn -0.8984 -0.0782 -0.4322
vn -0.9003 -0.0672 -0.4302
vn -0.8504 -0.2164 -0.4796
vn 0.0133 0.3436 -0.9390
vn -0.6227 0.2255 -0.7493
vn 0.8626 0.1552 -0.4814
vn 0.8714 0.0209 -0.4901
vn 0.9190 -0.0836 -0.3854
vn 0.9265 -0.0624 -0.3711
vn 0.9263 -0.0649 -0.3713
vn 0.9124 -0.1096 -0.3943
vn 0.8893 -0.1135 -0.4431
vn 0.9235 -0.0897 -0.3729
vn -0.0001 -0.7519 -0.6593
vn -0.6599 -0.4735 -0.5834
vn -0.4019 -0.6573 -0.6375
vn 0.0001 -0.7519 -0.6593
vn 0.9997 -0.0224 0.0108
vn 0.9963 -0.0853 0.0072
vn 0.9966 -0.0817 0.0074
vn 0.9999 -0.0068 0.0116
vn -0.0018 0.9983 0.0586
vn 0.0641 0.9962 0.0589
vn 0.0579 0.9967 0.0576
vn 0.0273 0.9978 0.0605
vn -0.3145 -0.9476 -0.0564
vn -0.2770 -0.9592 -0.0566
vn -0.3769 -0.9246 -0.0559
vn 0.0743 -0.9957 -0.0544
vn 0.0231 0.9963 0.0833
vn 0.1705 0.9853 0.0142
vn 0.1706 0.9852 0.0142
vn 0.0214 0.9964 0.0823
vn 0.0225 0.9984 0.0525
vn -0.1551 0.9864 0.0549
vn -0.1329 0.9896 0.0547
vn 0.0224 0.9984 0.0525
vn -0.9960 -0.0875 -0.0168
vn -0.9990 -0.0428 -0.0144
vn -0.9991 -0.0388 -0.0142
vn 0.9973 -0.0729 0.0079
vn 0.9841 -0.1775 0.0020
vn -0.3458 -0.9366 -0.0562
vn -0.2941 -0.9541 -0.0565
vn -0.0001 -0.9991 -0.0424
vn 0.1098 -0.9928 -0.0487
vn 0.0406 -0.9982 -0.0451
vn -0.0000 -0.9991 -0.0424
vn -0.1010 0.9934 0.0540
vn 0.0623 0.9965 0.0561
vn 0.0385 0.9977 0.0559
vn -0.1026 0.9933 0.0539
vn 0.9994 0.0316 0.0138
vn 0.9940 -0.1088 0.0059
vn 0.9999 -0.0029 0.0118
vn 0.9999 0.0085 0.0125
vn 0.8515 -0.5240 -0.0189
vn 0.4316 -0.9010 -0.0448
vn 0.3627 -0.9307 -0.0473
vn 0.7771 -0.6289 -0.0256
vn 0.3570 -0.9329 -0.0475
vn -0.0576 -0.9970 -0.0509
vn -0.0208 -0.9987 -0.0461
vn 0.0118 -0.9984 -0.0553
vn -0.9788 0.2049 -0.0004
vn -0.9347 0.3553 0.0085
vn -0.9350 0.3545 0.0084
vn -0.9991 -0.0391 -0.0142
vn -0.9992 0.0381 -0.0099
vn -0.9976 0.0691 -0.0082
vn 0.3362 -0.9406 -0.0482
vn 0.4260 -0.9036 -0.0451
vn -0.9257 0.3782 0.0051
vn -0.7245 0.6887 0.0267
vn -0.1394 0.9881 0.0654
vn -0.1772 0.9821 0.0635
vn -0.9991 0.0407 -0.0097
vn -0.9170 -0.3969 -0.0393
vn -0.9222 -0.3847 -0.0385
vn -0.9997 0.0203 -0.0109
vn -0.8478 -0.5279 -0.0495
vn -0.8964 -0.4410 -0.0442
vn 0.8733 -0.4868 -0.0170
vn 0.9091 -0.4162 -0.0161
vn 0.9133 -0.4071 -0.0154
vn 0.9406 -0.3394 -0.0031
vn 0.8003 0.5988 -0.0309
vn 0.7586 0.6506 -0.0354
vn -0.4006 -0.9146 -0.0556
vn -0.9035 -0.0340 -0.4273
vn -0.9035 -0.0316 -0.4273
vn 0.0115 0.7981 -0.6024
vn 0.0165 0.7980 -0.6024
vn 0.8605 -0.0780 -0.5034
vn 0.8571 -0.1175 -0.5015
vn 0.6780 -0.1612 -0.7171
vn 0.6588 -0.0825 -0.7478
vn 0.8315 0.0878 -0.5485
vn 0.8542 0.0164 -0.5197
vn 0.6490 0.0933 -0.7550
vn 0.6247 0.1670 -0.7628
vn 0.0005 0.2462 -0.9692
vn 0.0003 0.1555 -0.9878
vn -0.6498 0.0910 -0.7547
vn -0.6265 0.1617 -0.7625
vn 0.0001 -0.0959 -0.9954
vn -0.0004 -0.2121 -0.9772
vn -0.6827 -0.1571 -0.7136
vn -0.6594 -0.0801 -0.7475
vn -0.0032 0.2011 -0.9796
vn -0.5540 0.1580 -0.8174
vn -0.8612 -0.0763 -0.5026
vn -0.8558 0.0129 -0.5171
vn -0.8334 0.0799 -0.5469
vn -0.8575 -0.1130 -0.5020
vn 0.5540 0.1624 -0.8165
vt 0.577111 0.935507
vt 0.587584 0.930129
vt 0.586833 0.943901
vt 0.576535 0.949416
vt 0.686371 0.377307
vt 0.683225 0.362176
vt 0.698944 0.362532
vt 0.701413 0.377048
vt 0.651916 0.376343
vt 0.647772 0.362647
vt 0.657102 0.362199
vt 0.662133 0.375826
vt 0.568486 0.906537
vt 0.579641 0.904404
vt 0.581569 0.910538
vt 0.570141 0.914602
vt 0.653196 0.397698
vt 0.656000 0.387385
vt 0.665688 0.386872
vt 0.660974 0.397490
vt 0.680745 0.399650
vt 0.684685 0.389651
vt 0.696966 0.388813
vt 0.694341 0.398548
vt 0.545452 0.904758
vt 0.559188 0.908870
vt 0.558984 0.918876
vt 0.544814 0.915366
vt 0.547464 0.940437
vt 0.565077 0.939487
vt 0.564705 0.952235
vt 0.548219 0.955750
vt 0.616818 0.338728
vt 0.618772 0.331194
vt 0.625977 0.331251
vt 0.624107 0.338191
vt 0.622777 0.402950
vt 0.620283 0.386510
vt 0.625433 0.386551
vt 0.633128 0.397928
vt 0.622451 0.320192
vt 0.624665 0.306931
vt 0.637166 0.315629
vt 0.633206 0.323860
vt 0.617764 0.378320
vt 0.619964 0.366095
vt 0.625877 0.366142
vt 0.623733 0.377772
vt 0.565087 0.926710
vt 0.546706 0.925060
vt 0.672410 0.389863
vt 0.667186 0.399917
vt 0.667378 0.362210
vt 0.671275 0.377192
vt 0.587491 0.916491
vt 0.577067 0.921607
vt 0.551212 0.877320
vt 0.558393 0.878908
vt 0.558686 0.898754
vt 0.545966 0.894213
vt 0.646152 0.386716
vt 0.645347 0.396922
vt 0.570036 0.885860
vt 0.579115 0.889488
vt 0.577800 0.898333
vt 0.567671 0.898474
vt 0.638621 0.362934
vt 0.641710 0.376137
vt 0.602820 0.379034
vt 0.607131 0.367730
vt 0.602820 0.314063
vt 0.609097 0.301740
vt 0.603803 0.405079
vt 0.603033 0.387230
vt 0.605700 0.339473
vt 0.606632 0.332495
vt 0.558286 0.871707
vt 0.574623 0.874975
vt 0.606927 0.415750
vt 0.623804 0.417130
vt 0.636095 0.408454
vt 0.644655 0.407498
vt 0.656806 0.408054
vt 0.663540 0.409481
vt 0.675442 0.409141
vt 0.689052 0.407779
vt 0.650551 0.408611
vt 0.606914 0.358537
vt 0.606697 0.349344
vt 0.619715 0.347711
vt 0.619839 0.356903
vt 0.625953 0.356952
vt 0.626028 0.347761
vt 0.637868 0.344546
vt 0.638245 0.353740
vt 0.657148 0.353008
vt 0.657195 0.343817
vt 0.667476 0.343043
vt 0.667427 0.352627
vt 0.683274 0.352691
vt 0.683322 0.343205
vt 0.699037 0.344151
vt 0.698990 0.353342
vt 0.647603 0.353261
vt 0.647435 0.343875
vt 0.532020 0.891231
vt 0.530561 0.900745
vt 0.528418 0.920708
vt 0.528418 0.936545
vt 0.542078 0.879631
vt 0.529577 0.910484
vt 0.541985 0.873321
vt 0.552944 0.870077
vt 0.530195 0.952300
vt 0.463053 0.944532
vt 0.463741 0.958436
vt 0.453273 0.952907
vt 0.452412 0.939142
vt 0.073837 0.653609
vt 0.063605 0.653241
vt 0.077457 0.639736
vt 0.471385 0.915447
vt 0.469836 0.923558
vt 0.458287 0.919517
vt 0.460125 0.913337
vt 0.073346 0.675154
vt 0.065700 0.675111
vt 0.062625 0.664442
vt 0.070299 0.664850
vt 0.046276 0.677676
vt 0.032687 0.676782
vt 0.029707 0.667010
vt 0.041972 0.667657
vt 0.494541 0.913590
vt 0.495254 0.924183
vt 0.481118 0.925801
vt 0.480817 0.917796
vt 0.492798 0.949270
vt 0.492176 0.964596
vt 0.475698 0.961242
vt 0.475220 0.948494
vt 0.109296 0.615817
vt 0.101913 0.615356
vt 0.100191 0.608536
vt 0.107384 0.608369
vt 0.103969 0.680004
vt 0.093498 0.675119
vt 0.100811 0.663551
vt 0.105951 0.663431
vt 0.104180 0.597655
vt 0.093318 0.601422
vt 0.089562 0.593369
vt 0.102143 0.585031
vt 0.108407 0.655226
vt 0.102341 0.654734
vt 0.100006 0.643129
vt 0.105908 0.642992
vt 0.493433 0.933888
vt 0.475115 0.935723
vt 0.059817 0.677736
vt 0.054227 0.667680
vt 0.462998 0.930642
vt 0.452412 0.925517
vt 0.488693 0.886303
vt 0.493974 0.903075
vt 0.481258 0.907693
vt 0.081162 0.674255
vt 0.080128 0.664034
vt 0.469727 0.894830
vt 0.472150 0.907390
vt 0.461916 0.907249
vt 0.460544 0.898427
vt 0.084077 0.653268
vt 0.086690 0.639917
vt 0.123474 0.655762
vt 0.119096 0.644846
vt 0.123474 0.591148
vt 0.117193 0.578984
vt 0.122637 0.682155
vt 0.123446 0.664511
vt 0.120545 0.616442
vt 0.119753 0.609567
vt 0.481411 0.887861
vt 0.481467 0.880664
vt 0.465014 0.883952
vt 0.117931 0.692595
vt 0.103154 0.694667
vt 0.090758 0.685714
vt 0.082148 0.684870
vt 0.070218 0.685682
vt 0.063743 0.687295
vt 0.051852 0.687136
vt 0.038241 0.685981
vt 0.076342 0.686097
vt 0.119136 0.634918
vt 0.105855 0.633065
vt 0.106132 0.624695
vt 0.119504 0.626546
vt 0.099753 0.633208
vt 0.086889 0.629985
vt 0.087416 0.621609
vt 0.099829 0.624843
vt 0.024557 0.655118
vt 0.026316 0.640386
vt 0.029213 0.638578
vt 0.027655 0.651630
vt 0.509481 0.909521
vt 0.512207 0.912338
vt 0.499602 0.925328
vt 0.054555 0.654767
vt 0.039522 0.655127
vt 0.040913 0.651637
vt 0.054231 0.651319
vt 0.062249 0.649966
vt 0.074520 0.638002
vt 0.497426 0.947553
vt 0.496876 0.961131
vt 0.077447 0.629616
vt 0.077767 0.621053
vt 0.507985 0.900050
vt 0.517881 0.961411
vt 0.510200 0.961023
vt 0.512843 0.957965
vt 0.519649 0.958309
vt 0.498002 0.888662
vt 0.498051 0.882357
vt 0.486938 0.879102
vt 0.702706 0.799485
vt 0.699947 0.811038
vt 0.696463 0.809684
vt 0.699222 0.798132
vt 0.685476 0.818588
vt 0.687754 0.807506
vt 0.691082 0.807381
vt 0.689889 0.818433
vt 0.125873 0.758252
vt 0.139969 0.766834
vt 0.135553 0.766757
vt 0.121457 0.758176
vt 0.683598 0.769709
vt 0.683990 0.750925
vt 0.686803 0.750814
vt 0.686019 0.769609
vt 0.687543 0.797977
vt 0.687331 0.788448
vt 0.690658 0.788323
vt 0.693583 0.797779
vt 0.449618 0.953407
vt 0.448757 0.939643
vt 0.700230 0.791782
vt 0.696746 0.790429
vt 0.146923 0.777716
vt 0.142507 0.777639
vt 0.111347 0.738089
vt 0.111329 0.747581
vt 0.106913 0.747504
vt 0.104218 0.737982
vt 0.684401 0.845670
vt 0.682481 0.826680
vt 0.686895 0.826525
vt 0.688815 0.845516
vt 0.699429 0.778970
vt 0.698979 0.785003
vt 0.695495 0.783650
vt 0.695945 0.777617
vt 0.151863 0.694744
vt 0.146890 0.702205
vt 0.142475 0.702128
vt 0.147447 0.694667
vt 0.125857 0.717484
vt 0.111365 0.728597
vt 0.106949 0.728520
vt 0.121441 0.717407
vt 0.448757 0.926018
vt 0.454632 0.920017
vt 0.456470 0.913837
vt 0.139903 0.709928
vt 0.135487 0.709851
vt 0.684101 0.857954
vt 0.688515 0.857800
vt 0.684872 0.777873
vt 0.689286 0.777719
vt 0.458261 0.907750
vt 0.456889 0.898927
vt 0.451758 0.885979
vt 0.453958 0.885520
vt 0.700286 0.758110
vt 0.702181 0.770905
vt 0.698697 0.769551
vt 0.698229 0.757141
vt 0.696948 0.739685
vt 0.693583 0.740015
vt 0.682481 0.739959
vt 0.686148 0.739685
vt 0.697067 0.824274
vt 0.693583 0.822920
vt 0.151863 0.788859
vt 0.147447 0.788783
vt 0.456558 0.869993
vt 0.460213 0.869493
vt 0.497989 0.933925
vt 0.074512 0.629037
vt 0.074795 0.621450
vt 0.026092 0.630464
vt 0.029014 0.629788
vt 0.043027 0.638019
vt 0.057051 0.637837
vt 0.066217 0.637715
vt 0.066018 0.628924
vt 0.056850 0.628700
vt 0.056941 0.620942
vt 0.066112 0.621513
vt 0.042826 0.628968
vt 0.029108 0.622376
vt 0.042918 0.621297
vt 0.514193 0.929965
vt 0.514291 0.943983
vt 0.513129 0.920944
s 1
f 62/1/1 58/2/2 4/3/3 36/4/4
f 80/5/5 59/6/6 6/7/7 73/8/8
f 81/9/9 67/10/10 9/11/11 74/12/12
f 70/13/13 66/14/14 8/15/15 37/16/16
f 71/17/17 68/18/18 12/19/19 45/20/20
f 63/21/21 60/22/22 11/23/23 44/24/24
f 90/25/25 69/26/26 15/27/27 83/28/28
f 89/29/29 61/30/30 13/31/31 82/32/32
f 87/33/33 34/34/34 20/35/35 84/36/36
f 49/37/37 33/38/38 19/39/39 46/40/40
f 42/41/41 31/42/42 16/43/43 39/44/44
f 79/45/45 32/46/46 17/47/47 76/48/48
f 83/28/28 15/27/27 25/49/49 85/50/50
f 45/20/20 12/19/19 24/51/51 47/52/52
f 74/12/12 9/11/11 23/53/53 77/54/54
f 37/16/16 8/15/15 22/55/55 40/56/56
f 84/57/36 20/58/35 30/59/57 86/60/58
f 46/40/40 19/39/39 29/61/59 48/62/60
f 39/63/44 16/64/43 27/65/61 41/66/62
f 76/48/48 17/47/47 28/67/63 78/68/64
f 75/69/65 5/70/66 32/46/46 79/45/45
f 38/71/67 3/72/68 31/42/42 42/41/41
f 43/73/69 10/74/70 33/38/38 49/37/37
f 88/75/71 14/76/72 34/34/34 87/33/33
f 14/76/72 38/71/67 42/41/41 34/34/34
f 20/58/35 39/63/44 41/66/62 30/59/57
f 15/27/27 37/16/16 40/56/56 25/49/49
f 34/77/34 42/78/41 39/63/44 20/58/35
f 69/26/26 70/13/13 37/16/16 15/27/27
f 61/30/30 62/1/1 36/4/4 13/31/31
f 1/79/73 43/73/69 49/37/37 35/80/74
f 18/81/75 46/40/40 48/62/60 26/82/76
f 7/83/77 45/20/20 47/52/52 21/84/78
f 35/80/74 49/37/37 46/40/40 18/81/75
f 57/85/79 63/21/21 44/24/24 2/86/80
f 65/87/81 71/17/17 45/20/20 7/83/77
f 175/88/82 50/89/83 56/90/84 181/91/85
f 178/92/86 53/93/87 55/94/88 180/95/89
f 177/96/90 52/97/91 54/98/92 179/99/93
f 181/91/85 56/90/84 53/93/87 178/92/86
f 182/100/94 64/101/95 51/102/96 176/103/97
f 183/104/98 72/105/99 52/97/91 177/96/90
f 179/99/93 54/98/92 64/101/95 182/100/94
f 21/84/78 47/52/52 63/21/21 57/85/79
f 25/49/49 40/56/56 62/1/1 61/30/30
f 85/50/50 25/49/49 61/30/30 89/29/29
f 47/52/52 24/51/51 60/22/22 63/21/21
f 77/54/54 23/53/53 59/6/6 80/5/5
f 40/56/56 22/55/55 58/2/2 62/1/1
f 180/95/89 55/94/88 72/105/99 183/104/98
f 26/82/76 48/62/60 71/17/17 65/87/81
f 30/59/57 41/66/62 70/13/13 69/26/26
f 86/60/58 30/59/57 69/26/26 90/25/25
f 48/62/60 29/61/59 68/18/18 71/17/17
f 41/66/62 27/65/61 66/14/14 70/13/13
f 78/68/64 28/67/63 67/10/10 81/9/9
f 29/61/59 78/68/64 81/9/9 68/18/18
f 24/51/51 77/54/54 80/5/5 60/22/22
f 10/74/70 75/69/65 79/45/45 33/38/38
f 19/39/39 76/48/48 78/68/64 29/61/59
f 12/19/19 74/12/12 77/54/54 24/51/51
f 33/38/38 79/45/45 76/48/48 19/39/39
f 68/18/18 81/9/9 74/12/12 12/19/19
f 60/22/22 80/5/5 73/8/8 11/23/23
f 55/106/88 86/60/58 90/25/25 72/107/99
f 54/108/92 85/50/50 89/29/29 64/109/95
f 50/89/83 88/75/71 87/33/33 56/90/84
f 53/110/87 84/57/36 86/60/58 55/106/88
f 52/111/91 83/28/28 85/50/50 54/108/92
f 56/112/84 87/113/33 84/57/36 53/110/87
f 64/109/95 89/29/29 82/32/32 51/114/96
f 72/107/99 90/25/25 83/28/28 52/111/91
f 147/115/100 124/116/101 94/117/102 144/118/103
f 165/119/104 158/120/105 151/121/106
f 154/122/107 125/123/108 98/124/109 150/125/110
f 155/126/111 133/127/112 101/128/113 152/129/114
f 148/130/115 132/131/116 100/132/117 145/133/118
f 174/134/119 167/135/120 104/136/121 153/137/122
f 173/138/123 166/139/124 102/140/124 146/141/125
f 171/142/126 168/143/127 109/144/128 122/145/129
f 137/146/130 134/147/131 108/148/132 121/149/133
f 130/150/134 127/151/135 105/152/136 119/153/137
f 163/154/138 160/155/139 106/156/140 120/157/141
f 167/135/120 169/158/142 113/159/143 104/136/121
f 133/127/112 135/160/144 112/161/145 101/128/113
f 125/123/108 128/162/146 111/163/147 98/124/109
f 168/164/148 170/165/149 118/166/150
f 134/147/131 136/167/151 117/168/152 108/148/132
f 127/169/135 129/170/153 115/171/154 105/172/136
f 160/155/155 162/173/156 116/174/157 106/156/158
f 159/175/159 163/154/138 120/157/141 95/176/160
f 126/177/161 130/150/134 119/153/137 93/178/162
f 131/179/163 137/146/130 121/149/133 99/180/164
f 172/181/165 171/142/126 122/145/129 103/182/166
f 103/182/166 122/145/129 130/150/134 126/177/161
f 109/183/128 118/166/167 129/170/153 127/169/135
f 104/136/168 113/159/169 128/162/146 125/123/108
f 122/184/129 109/183/128 127/169/135 130/185/134
f 153/137/170 104/136/168 125/123/108 154/122/107
f 146/141/171 102/140/172 124/116/101 147/115/100
f 91/186/173 123/187/174 137/146/130 131/179/163
f 107/188/175 114/189/176 136/167/151 134/147/131
f 97/190/177 110/191/178 135/160/144 133/127/112
f 123/187/174 107/188/175 134/147/131 137/146/130
f 143/192/179 92/193/180 132/131/116 148/130/115
f 149/194/181 97/190/177 133/127/112 155/126/111
f 184/195/182 188/196/183 142/197/184 138/198/185
f 186/199/186 187/200/187 141/201/188 140/202/189
f 157/203/190 96/204/191 191/205/192 190/206/193
f 188/196/183 186/199/194 140/202/195 142/197/184
f 167/135/196 156/207/197 207/208/198 210/209/199
f 161/210/200 164/211/201 205/212/202 196/213/203
f 151/121/204 158/120/205 194/214/206 206/215/207
f 110/191/178 143/192/179 148/130/115 135/160/144
f 113/159/169 146/141/171 147/115/100 128/162/146
f 169/158/142 173/138/123 146/141/125 113/159/143
f 135/160/144 148/130/115 145/133/118 112/161/145
f 166/139/208 173/138/209 212/216/210 209/217/211
f 128/162/146 147/115/100 144/118/103 111/163/147
f 187/200/187 189/218/212 156/219/213 141/201/188
f 114/189/176 149/194/181 155/126/111 136/167/151
f 118/166/167 153/137/170 154/122/107 129/170/153
f 170/165/149 174/134/119 153/137/122 118/166/150
f 136/167/151 155/126/111 152/129/114 117/168/152
f 129/170/153 154/122/107 150/125/110 115/171/154
f 162/173/156 165/119/104 151/121/106 116/174/157
f 117/168/214 152/129/215 165/119/104 162/173/156
f 112/161/216 145/133/217 164/211/218 161/210/219
f 99/180/164 121/149/133 163/154/138 159/175/159
f 108/148/132 117/168/152 160/155/139
f 101/128/220 112/161/216 161/210/219 158/120/105
f 121/149/133 108/148/132 160/155/139 163/154/138
f 152/129/215 101/128/220 158/120/105 165/119/104
f 145/133/217 100/132/221 157/203/221 164/211/218
f 141/220/188 156/207/213 174/134/119 170/165/149
f 185/221/222 139/222/223 198/223/224 197/224/225
f 138/198/185 142/197/184 171/142/126 172/181/165
f 140/225/189 141/220/188 170/165/149 168/164/148
f 139/222/223 166/139/208 209/217/211 198/223/224
f 142/226/184 140/225/195 168/164/127 171/227/126
f 164/211/201 157/203/190 190/206/193 205/212/202
f 156/207/213 167/135/120 174/134/119
f 21/228/226 57/229/227 143/230/228 110/231/229
f 88/232/230 50/233/231 138/234/232 172/235/233
f 82/236/234 13/237/235 102/238/236 166/239/237
f 10/240/238 43/241/239 131/242/240 99/243/241
f 175/244/242 5/245/243 95/246/244 184/247/245
f 4/248/246 58/249/247 144/118/248 94/117/246
f 7/250/249 21/228/226 110/231/229 97/251/250
f 13/237/235 36/252/251 124/253/252 102/238/236
f 176/254/253 51/255/254 139/256/255 185/257/256
f 38/258/257 14/259/258 103/260/259 126/261/260
f 26/262/261 65/263/262 149/264/263 114/265/264
f 2/266/265 44/267/266 132/268/267 92/269/268
f 73/270/269 6/271/270 96/272/271 157/273/272
f 58/249/247 22/274/273 111/163/274 144/118/248
f 8/275/275 66/276/276 150/125/277 98/124/278
f 11/277/279 73/270/269 157/273/272 100/278/280
f 3/279/281 38/258/257 126/261/260 93/280/282
f 65/263/262 7/250/249 97/251/250 149/264/263
f 22/274/273 8/275/275 98/124/278 111/163/274
f 5/245/243 75/281/283 159/282/284 95/246/244
f 27/283/285 16/284/286 105/172/287 115/171/288
f 16/284/286 31/285/289 119/286/290 105/172/287
f 51/255/254 82/236/234 166/239/237 139/256/255
f 35/287/291 18/288/292 107/289/293 123/290/294
f 75/281/283 10/240/238 99/243/241 159/282/284
f 1/291/295 35/287/291 123/290/294 91/292/296
f 44/267/266 11/277/279 100/278/280 132/268/267
f 18/288/292 26/262/261 114/265/264 107/289/293
f 43/241/239 1/293/295 91/294/296 131/242/240
f 66/276/276 27/283/285 115/171/288 150/125/277
f 57/229/227 2/295/265 92/296/268 143/230/228
f 36/252/251 4/297/297 94/298/297 124/253/252
f 14/259/258 88/232/230 172/235/233 103/260/259
f 31/285/289 3/299/281 93/300/282 119/286/290
f 160/155/155 117/168/214 162/173/156
f 118/166/167 109/183/128 168/164/127
f 6/271/270 176/254/253 185/257/256 96/272/271
f 50/233/231 175/244/242 184/247/245 138/234/232
f 116/174/157 151/121/106 189/218/212 187/200/187
f 169/158/298 167/135/196 210/209/199 211/301/299
f 156/219/197 189/218/300 208/302/301 207/303/198
f 96/204/191 185/304/222 197/305/225 191/205/192
f 120/157/141 106/156/140 186/199/194 188/196/183
f 189/218/300 151/121/204 206/215/207 208/302/301
f 106/156/158 116/174/157 187/200/187 186/199/186
f 95/176/160 120/157/141 188/196/183 184/195/182
f 28/67/63 180/95/89 183/104/98 67/10/10
f 23/53/53 179/99/93 182/100/94 59/6/6
f 67/10/10 183/104/98 177/96/90 9/11/11
f 59/6/6 182/100/94 176/103/97 6/7/7
f 32/46/46 181/91/85 178/92/86 17/47/47
f 9/11/11 177/96/90 179/99/93 23/53/53
f 17/47/47 178/92/86 180/95/89 28/67/63
f 5/70/66 175/88/82 181/91/85 32/46/46
f 158/120/205 161/210/200 196/213/203 194/214/206
f 173/138/209 169/158/298 211/301/299 212/216/210
f 205/212/302 190/206/303 191/205/304 195/306/305
f 194/214/306 196/213/307 192/307/308 193/308/309
f 199/309/310 201/310/311 202/311/312 200/312/313
f 204/313/314 197/305/315 198/314/316 203/315/317
f 208/302/318 199/309/310 200/312/313 207/303/319
f 201/310/311 204/313/314 203/315/317 202/311/312
f 196/213/307 205/212/302 195/306/305 192/307/308
f 202/316/312 203/317/317 212/216/320 211/301/321
f 200/318/313 202/316/312 211/301/321 210/209/322
f 203/317/317 198/223/316 209/217/323 212/216/320
f 192/307/308 195/306/305 204/313/314 201/310/311
f 206/215/324 193/308/309 199/309/310 208/302/318
f 195/306/305 191/205/304 197/305/315 204/313/314
f 193/308/309 192/307/308 201/310/311 199/309/310
f 206/215/324 194/214/306 193/308/309
f 210/209/322 207/208/319 200/318/313
o Cylinder.002
v 5.741327 0.617354 -0.913674
v 5.741327 0.415319 -0.913674
v 5.694943 0.617354 -0.614792
v 5.694943 0.415319 -0.614792
v 5.562855 0.617354 -0.361412
v 5.562855 0.415319 -0.361412
v 5.365171 0.617354 -0.192109
v 5.365171 0.415319 -0.192109
v 5.131987 0.617354 -0.132658
v 5.131987 0.415319 -0.132658
v 4.898803 0.617354 -0.192109
v 4.898803 0.415319 -0.192109
v 4.701119 0.617354 -0.361412
v 4.701119 0.415319 -0.361412
v 4.569031 0.617354 -0.614792
v 4.569031 0.415319 -0.614792
v 4.522647 0.617354 -0.913674
v 4.522647 0.415319 -0.913674
v 5.675676 0.415319 -0.913674
v 5.634291 0.415319 -0.646994
v 5.516434 0.415319 -0.420913
v 5.340048 0.415319 -0.269850
v 5.131987 0.415319 -0.216804
v 4.923926 0.415319 -0.269850
v 4.747540 0.415319 -0.420913
v 4.629683 0.415319 -0.646994
v 4.588298 0.415319 -0.913674
v 5.665277 0.617354 -0.913674
v 5.624683 0.617354 -0.652094
v 5.509080 0.617354 -0.430338
v 5.336069 0.617354 -0.282165
v 5.131987 0.617354 -0.230133
v 4.927906 0.617354 -0.282165
v 4.754894 0.617354 -0.430338
v 4.639291 0.617354 -0.652094
v 4.598697 0.617354 -0.913674
v 5.741327 0.415319 -1.330999
v 5.741327 0.617354 -1.463245
v 4.522647 0.415319 -1.364465
v 4.522647 0.617354 -1.481780
v 4.588298 0.415319 -1.364465
v 5.675676 0.415319 -1.330999
v 5.665277 0.617354 -1.463245
v 4.598697 0.617354 -1.481780
vn 0.9971 -0.0000 0.0766
vn 0.9515 -0.0000 0.3075
vn 0.7884 -0.0000 0.6151
vn 0.4689 -0.0000 0.8832
vn -0.0000 -0.0000 1.0000
vn -0.4689 -0.0000 0.8832
vn -0.7884 -0.0000 0.6151
vn -0.9515 -0.0000 0.3075
vn -0.9971 -0.0000 0.0766
vn -0.0000 -1.0000 -0.0000
vn -0.0000 1.0000 -0.0000
vn -0.9957 -0.0513 -0.0766
vn -0.9502 -0.0529 -0.3071
vn -0.9958 -0.0513 -0.0765
vn -0.7871 -0.0573 -0.6141
vn -0.4680 -0.0629 -0.8815
vn -0.0000 -0.0658 -0.9978
vn 0.4680 -0.0629 -0.8815
vn 0.7871 -0.0573 -0.6141
vn 0.9502 -0.0529 -0.3071
vn 0.9957 -0.0513 -0.0766
vn 0.9958 -0.0513 -0.0765
vn -1.0000 -0.0000 -0.0000
vn -0.9987 -0.0514 -0.0000
vn -0.0000 -0.5477 -0.8367
vn -0.0000 -0.5021 -0.8648
vn 1.0000 -0.0000 -0.0000
vn 0.9987 -0.0514 -0.0000
vt 0.746818 0.762353
vt 0.746818 0.647490
vt 0.768797 0.647471
vt 0.768797 0.762335
vt 0.787429 0.647418
vt 0.787429 0.762282
vt 0.668806 0.139362
vt 0.668806 0.024497
vt 0.689510 0.024497
vt 0.689510 0.139362
vt 0.711919 0.024497
vt 0.711919 0.139362
vt 0.732622 0.024497
vt 0.732622 0.139362
vt 0.748468 0.024497
vt 0.748468 0.139362
vt 0.701384 0.531994
vt 0.701384 0.417130
vt 0.720017 0.417183
vt 0.720017 0.532047
vt 0.741995 0.417202
vt 0.741995 0.532066
vt 0.415476 0.754549
vt 0.393602 0.749681
vt 0.396099 0.744019
vt 0.415616 0.748363
vt 0.643230 0.417130
vt 0.665262 0.421223
vt 0.662603 0.427880
vt 0.643321 0.424297
vt 0.396005 0.643587
vt 0.418077 0.639714
vt 0.417937 0.645900
vt 0.398243 0.649356
vt 0.375257 0.736813
vt 0.363232 0.717903
vt 0.369001 0.715665
vt 0.379730 0.732537
vt 0.359359 0.695831
vt 0.364227 0.673957
vt 0.369889 0.676454
vt 0.365545 0.695971
vt 0.377095 0.655612
vt 0.381371 0.660085
vt 0.697291 0.495863
vt 0.685078 0.514652
vt 0.679946 0.509648
vt 0.690635 0.493204
vt 0.696735 0.451910
vt 0.701385 0.473831
vt 0.694217 0.473922
vt 0.690148 0.454736
vt 0.684050 0.433436
vt 0.679046 0.438569
vt 0.666605 0.527336
vt 0.663778 0.520749
vt 0.644683 0.531986
vt 0.644593 0.524818
vt 0.898975 0.532151
vt 0.879740 0.532051
vt 0.880058 0.417183
vt 0.899668 0.417285
vt 0.863433 0.531999
vt 0.863433 0.417130
vt 0.600196 0.870077
vt 0.583889 0.869593
vt 0.584264 0.754801
vt 0.600889 0.755295
vt 0.564654 0.869423
vt 0.564654 0.754628
vt 0.545418 0.869593
vt 0.545043 0.754801
vt 0.529111 0.870077
vt 0.528418 0.755295
vt 0.940094 0.416609
vt 0.923787 0.416661
vt 0.923469 0.301793
vt 0.940094 0.301740
vt 0.904552 0.416761
vt 0.903859 0.301895
vt 0.775145 0.417202
vt 0.783771 0.532066
vt 0.930356 0.417470
vt 0.939387 0.532394
vt 0.123474 0.694167
vt 0.124454 0.578984
vt 0.130642 0.578984
vt 0.130642 0.694167
vt 0.136829 0.578984
vt 0.137809 0.694118
vt 0.130642 0.694118
vt 0.448757 0.640409
vt 0.448617 0.646595
vt 0.706405 0.762353
vt 0.716130 0.647490
vt 0.602911 0.424809
vt 0.602820 0.417641
vt 0.862777 0.417013
vt 0.870710 0.302095
vt 0.602911 0.532514
vt 0.602820 0.525347
vt 0.448757 0.749114
vt 0.448617 0.755300
s 1
f 213/319/325 215/322/326 216/321/326 214/320/325
f 215/322/326 217/324/327 218/323/327 216/321/326
f 217/325/327 219/328/328 220/327/328 218/326/327
f 219/328/328 221/330/329 222/329/329 220/327/328
f 221/330/329 223/332/330 224/331/330 222/329/329
f 223/332/330 225/334/331 226/333/331 224/331/330
f 225/335/331 227/338/332 228/337/332 226/336/331
f 227/338/332 229/340/333 230/339/333 228/337/332
f 230/341/334 239/344/334 238/343/334 228/342/334
f 213/345/335 240/348/335 241/347/335 215/346/335
f 216/349/334 232/352/334 231/351/334 214/350/334
f 226/353/334 237/356/334 236/355/334 224/354/334
f 222/357/334 235/360/334 234/359/334 220/358/334
f 218/361/334 233/362/334 232/352/334 216/349/334
f 228/342/334 238/343/334 237/356/334 226/353/334
f 224/354/334 236/355/334 235/360/334 222/357/334
f 220/358/334 234/359/334 233/362/334 218/361/334
f 223/363/335 245/366/335 246/365/335 225/364/335
f 219/367/335 243/370/335 244/369/335 221/368/335
f 215/346/335 241/347/335 242/372/335 217/371/335
f 225/364/335 246/365/335 247/374/335 227/373/335
f 221/368/335 244/369/335 245/366/335 223/363/335
f 217/371/335 242/372/335 243/370/335 219/367/335
f 227/373/335 247/374/335 248/376/335 229/375/335
f 240/377/336 231/380/338 232/379/337 241/378/337
f 241/378/337 232/379/337 233/382/339 242/381/339
f 242/383/339 233/386/339 234/385/340 243/384/340
f 243/384/340 234/385/340 235/388/341 244/387/341
f 244/387/341 235/388/341 236/390/342 245/389/342
f 245/389/342 236/390/342 237/392/343 246/391/343
f 246/393/343 237/396/343 238/395/344 247/394/344
f 247/394/344 238/395/344 239/398/346 248/397/345
f 229/340/333 252/400/347 251/399/347 230/339/333
f 240/377/336 255/402/348 254/401/348 231/380/338
f 255/403/349 250/406/349 249/405/349 254/404/349
f 253/407/350 251/405/350 252/409/350 256/408/350
f 231/351/334 254/411/334 249/410/334 214/350/334
f 214/320/325 249/413/351 250/412/351 213/319/325
f 213/345/335 250/415/335 255/414/335 240/348/335
f 239/398/346 253/417/352 256/416/352 248/397/345
f 248/376/335 256/419/335 252/418/335 229/375/335
f 230/341/334 251/421/334 253/420/334 239/344/334
o Cylinder.003
v 6.025087 1.365020 -0.754899
v 6.025087 1.187348 -0.754899
v 5.956211 1.365020 -0.373567
v 5.956211 1.187348 -0.373567
v 5.760068 1.365020 -0.050288
v 5.760068 1.187348 -0.050288
v 5.466520 1.365020 0.165719
v 5.466520 1.187348 0.165719
v 5.120256 1.365020 0.241571
v 5.120256 1.187348 0.241571
v 4.773992 1.365020 0.165719
v 4.773992 1.187348 0.165719
v 4.480443 1.365020 -0.050288
v 4.480443 1.187348 -0.050288
v 4.284301 1.365020 -0.373567
v 4.284301 1.187348 -0.373567
v 4.215425 1.365020 -0.754899
v 4.215425 1.187348 -0.754899
v 5.927601 1.187348 -0.754899
v 5.866146 1.187348 -0.414651
v 5.691135 1.187348 -0.126203
v 5.429214 1.187348 0.066532
v 5.120256 1.187348 0.134211
v 4.811298 1.187348 0.066532
v 4.549376 1.187348 -0.126203
v 4.374366 1.187348 -0.414651
v 4.312911 1.187348 -0.754899
v 5.912159 1.365020 -0.754899
v 5.851879 1.365020 -0.421159
v 5.680216 1.365020 -0.138228
v 5.423304 1.365020 0.050820
v 5.120256 1.365020 0.117205
v 4.817208 1.365020 0.050820
v 4.560296 1.365020 -0.138228
v 4.388633 1.365020 -0.421159
v 4.328353 1.365020 -0.754899
v 6.025087 1.187348 -1.543770
v 6.025087 1.365020 -1.542694
v 4.215425 1.187348 -1.543770
v 4.215425 1.365020 -1.542694
v 4.312911 1.187348 -1.543770
v 5.927601 1.187348 -1.543770
v 5.912159 1.365020 -1.542694
v 4.328353 1.365020 -1.542694
vn 0.9960 -0.0000 0.0891
vn 0.9360 -0.0000 0.3520
vn 0.7403 -0.0000 0.6722
vn 0.4150 -0.0000 0.9098
vn -0.0000 -0.0000 1.0000
vn -0.4150 -0.0000 0.9098
vn -0.7403 -0.0000 0.6722
vn -0.9360 -0.0000 0.3520
vn -0.9960 -0.0000 0.0891
vn -0.0000 -1.0000 -0.0000
vn -0.0000 1.0000 -0.0000
vn -0.9923 -0.0862 -0.0888
vn -0.9324 -0.0877 -0.3507
vn -0.9923 -0.0862 -0.0887
vn -0.7373 -0.0906 -0.6695
vn -0.4132 -0.0938 -0.9058
vn -0.0000 -0.0953 -0.9955
vn 0.4132 -0.0938 -0.9058
vn 0.7373 -0.0906 -0.6695
vn 0.9324 -0.0877 -0.3507
vn 0.9923 -0.0862 -0.0888
vn 0.9923 -0.0862 -0.0887
vn -1.0000 -0.0000 -0.0000
vn -0.9962 -0.0866 -0.0000
vn -0.0000 0.0061 -1.0000
vn 1.0000 -0.0000 -0.0000
vn 0.9962 -0.0866 -0.0000
vt 0.714150 0.254275
vt 0.714212 0.139411
vt 0.736190 0.139405
vt 0.736128 0.254269
vt 0.754823 0.139362
vt 0.754761 0.254225
vt 0.748468 0.139362
vt 0.748468 0.024497
vt 0.769171 0.024497
vt 0.769171 0.139362
vt 0.791580 0.024497
vt 0.791580 0.139362
vt 0.812283 0.024497
vt 0.812283 0.139362
vt 0.828129 0.024497
vt 0.828129 0.139362
vt 0.448819 0.754578
vt 0.448757 0.639714
vt 0.467390 0.639757
vt 0.467452 0.754621
vt 0.489368 0.639764
vt 0.489430 0.754628
vt 0.611374 0.024497
vt 0.633353 0.028868
vt 0.630985 0.034585
vt 0.611374 0.030684
vt 0.611312 0.139362
vt 0.633291 0.143733
vt 0.630548 0.150356
vt 0.611312 0.146529
vt 0.633353 0.134990
vt 0.611374 0.139362
vt 0.611374 0.133174
vt 0.630985 0.129273
vt 0.651985 0.041318
vt 0.664435 0.059951
vt 0.658718 0.062319
vt 0.647610 0.045694
vt 0.668807 0.081929
vt 0.664435 0.103907
vt 0.658718 0.101540
vt 0.662619 0.081929
vt 0.651985 0.122540
vt 0.647610 0.118165
vt 0.664373 0.218773
vt 0.651923 0.237405
vt 0.646855 0.232336
vt 0.657750 0.216029
vt 0.664373 0.174816
vt 0.668745 0.196794
vt 0.661577 0.196794
vt 0.657750 0.177559
vt 0.651923 0.156183
vt 0.646855 0.161252
vt 0.633291 0.249855
vt 0.630548 0.243232
vt 0.611312 0.254227
vt 0.611312 0.247059
vt 0.737559 0.416608
vt 0.718324 0.416610
vt 0.718038 0.301741
vt 0.737648 0.301740
vt 0.702017 0.416643
vt 0.701413 0.301776
vt 0.938868 0.762344
vt 0.922561 0.762301
vt 0.922936 0.647433
vt 0.939561 0.647477
vt 0.903326 0.762286
vt 0.903326 0.647418
vt 0.884090 0.762301
vt 0.883715 0.647433
vt 0.867783 0.762344
vt 0.867090 0.647477
vt 0.787504 0.647418
vt 0.771197 0.647384
vt 0.771483 0.532516
vt 0.788108 0.532550
vt 0.751962 0.647383
vt 0.751873 0.532514
vt 0.534835 0.639739
vt 0.534835 0.754603
vt 0.783116 0.301775
vt 0.782965 0.416643
vt 0.137809 0.693847
vt 0.138790 0.578984
vt 0.144977 0.578984
vt 0.144977 0.693847
vt 0.151165 0.578984
vt 0.152145 0.693847
vt 0.565907 0.139362
vt 0.565907 0.133174
vt 0.668745 0.254251
vt 0.668745 0.139387
vt 0.565907 0.146529
vt 0.706556 0.647418
vt 0.706405 0.532550
vt 0.565907 0.254227
vt 0.565907 0.247059
vt 0.565907 0.030684
vt 0.565907 0.024497
s 1
f 257/422/353 259/425/354 260/424/354 258/423/353
f 259/425/354 261/427/355 262/426/355 260/424/354
f 261/428/355 263/431/356 264/430/356 262/429/355
f 263/431/356 265/433/357 266/432/357 264/430/356
f 265/433/357 267/435/358 268/434/358 266/432/357
f 267/435/358 269/437/359 270/436/359 268/434/358
f 269/438/359 271/441/360 272/440/360 270/439/359
f 271/441/360 273/443/361 274/442/361 272/440/360
f 274/444/362 283/447/362 282/446/362 272/445/362
f 257/448/363 284/451/363 285/450/363 259/449/363
f 260/452/362 276/455/362 275/454/362 258/453/362
f 270/456/362 281/459/362 280/458/362 268/457/362
f 266/460/362 279/463/362 278/462/362 264/461/362
f 262/464/362 277/465/362 276/455/362 260/452/362
f 272/445/362 282/446/362 281/459/362 270/456/362
f 268/457/362 280/458/362 279/463/362 266/460/362
f 264/461/362 278/462/362 277/465/362 262/464/362
f 267/466/363 289/469/363 290/468/363 269/467/363
f 263/470/363 287/473/363 288/472/363 265/471/363
f 259/449/363 285/450/363 286/475/363 261/474/363
f 269/467/363 290/468/363 291/477/363 271/476/363
f 265/471/363 288/472/363 289/469/363 267/466/363
f 261/474/363 286/475/363 287/473/363 263/470/363
f 271/476/363 291/477/363 292/479/363 273/478/363
f 284/480/364 275/483/366 276/482/365 285/481/365
f 285/481/365 276/482/365 277/485/367 286/484/367
f 286/486/367 277/489/367 278/488/368 287/487/368
f 287/487/368 278/488/368 279/491/369 288/490/369
f 288/490/369 279/491/369 280/493/370 289/492/370
f 289/492/370 280/493/370 281/495/371 290/494/371
f 290/496/371 281/499/371 282/498/372 291/497/372
f 291/497/372 282/498/372 283/501/374 292/500/373
f 273/443/361 296/503/375 295/502/375 274/442/361
f 284/480/364 299/505/376 298/504/376 275/483/366
f 299/506/377 294/509/377 293/508/377 298/507/377
f 297/510/377 295/508/377 296/509/377 300/511/377
f 275/454/362 298/513/362 293/512/362 258/453/362
f 258/423/353 293/515/378 294/514/378 257/422/353
f 257/448/363 294/512/363 299/516/363 284/451/363
f 283/501/374 297/518/379 300/517/379 292/500/373
f 292/479/363 300/520/363 296/519/363 273/478/363
f 274/444/362 295/522/362 297/521/362 283/447/362
o Cylinder.004
v 6.016845 0.717676 -2.035492
v 5.828119 0.717676 -1.931125
v 5.934909 0.683998 -2.183655
v 5.746184 0.683998 -2.079288
v 5.865448 0.588092 -2.309261
v 5.676723 0.588092 -2.204894
v 5.819036 0.444559 -2.393188
v 5.630311 0.444559 -2.288822
v 5.802738 0.275249 -2.422660
v 5.614013 0.275249 -2.318293
v 5.819036 0.105940 -2.393188
v 5.630311 0.105940 -2.288822
v 5.865448 -0.037593 -2.309261
v 5.676723 -0.037593 -2.204894
v 5.934909 -0.133499 -2.183655
v 5.746184 -0.133499 -2.079288
v 6.016845 -0.167177 -2.035492
v 5.828119 -0.167177 -1.931125
v 6.098780 -0.133499 -1.887329
v 5.910055 -0.133499 -1.782962
v 6.168241 -0.037593 -1.761723
v 5.979516 -0.037593 -1.657356
v 6.214653 0.105940 -1.677795
v 6.025928 0.105940 -1.573429
v 6.230951 0.275249 -1.648324
v 6.042226 0.275249 -1.543957
v 6.214653 0.444559 -1.677795
v 6.025928 0.444559 -1.573429
v 6.168241 0.588092 -1.761723
v 5.979516 0.588092 -1.657356
v 6.098780 0.683998 -1.887329
v 5.910055 0.683998 -1.782962
vn -0.0000 1.0000 -0.0000
vn -0.1852 0.9239 -0.3349
vn -0.3422 0.7071 -0.6188
vn -0.4471 0.3827 -0.8085
vn -0.4839 -0.0000 -0.8751
vn -0.4471 -0.3827 -0.8085
vn -0.3422 -0.7071 -0.6188
vn -0.1852 -0.9239 -0.3349
vn -0.0000 -1.0000 -0.0000
vn 0.1852 -0.9239 0.3349
vn 0.3422 -0.7071 0.6188
vn 0.4471 -0.3827 0.8085
vn 0.4839 -0.0000 0.8751
vn 0.4471 0.3827 0.8085
vn 0.3422 0.7071 0.6188
vn -0.8751 -0.0000 0.4839
vn 0.1852 0.9239 0.3349
vn 0.8751 -0.0000 -0.4839
vt 0.639369 0.854550
vt 0.639369 0.739685
vt 0.661778 0.739685
vt 0.661778 0.854550
vt 0.682481 0.739685
vt 0.682481 0.854550
vt 0.152188 0.858164
vt 0.152188 0.743299
vt 0.168034 0.743299
vt 0.168034 0.858164
vt 0.188737 0.743299
vt 0.188737 0.858164
vt 0.211146 0.743299
vt 0.211146 0.858164
vt 0.231850 0.743299
vt 0.231850 0.858164
vt 0.252553 0.743299
vt 0.252553 0.858164
vt 0.274962 0.743299
vt 0.274962 0.858164
vt 0.295665 0.743299
vt 0.295665 0.858164
vt 0.311511 0.743299
vt 0.311511 0.858164
vt 0.783116 0.416605
vt 0.783116 0.301740
vt 0.803819 0.301740
vt 0.803819 0.416605
vt 0.826228 0.301740
vt 0.826228 0.416605
vt 0.846931 0.301740
vt 0.846931 0.416605
vt 0.862777 0.301740
vt 0.862777 0.416605
vt 0.160764 0.389977
vt 0.152188 0.369274
vt 0.152188 0.346864
vt 0.160764 0.326161
vt 0.176610 0.310316
vt 0.197313 0.301740
vt 0.219722 0.301740
vt 0.240425 0.310316
vt 0.256271 0.326161
vt 0.264846 0.346864
vt 0.264846 0.369274
vt 0.256271 0.389977
vt 0.240425 0.405822
vt 0.219722 0.414398
vt 0.197313 0.414398
vt 0.176610 0.405822
vt 0.602820 0.854550
vt 0.602820 0.739685
vt 0.618666 0.739685
vt 0.618666 0.854550
vt 0.264846 0.369274
vt 0.264846 0.346864
vt 0.273422 0.326161
vt 0.289267 0.310316
vt 0.309971 0.301740
vt 0.332380 0.301740
vt 0.353083 0.310316
vt 0.368929 0.326161
vt 0.377504 0.346864
vt 0.377504 0.369273
vt 0.368929 0.389977
vt 0.353083 0.405822
vt 0.332380 0.414398
vt 0.309971 0.414398
vt 0.289267 0.405822
vt 0.273422 0.389977
s 1
f 301/523/380 303/526/381 304/525/381 302/524/380
f 303/526/381 305/528/382 306/527/382 304/525/381
f 305/529/382 307/532/383 308/531/383 306/530/382
f 307/532/383 309/534/384 310/533/384 308/531/383
f 309/534/384 311/536/385 312/535/385 310/533/384
f 311/536/385 313/538/386 314/537/386 312/535/385
f 313/538/386 315/540/387 316/539/387 314/537/386
f 315/540/387 317/542/388 318/541/388 316/539/387
f 317/542/388 319/544/389 320/543/389 318/541/388
f 319/544/389 321/546/390 322/545/390 320/543/389
f 321/547/390 323/550/391 324/549/391 322/548/390
f 323/550/391 325/552/392 326/551/392 324/549/391
f 325/552/392 327/554/393 328/553/393 326/551/392
f 327/554/393 329/556/394 330/555/394 328/553/393
f 304/557/395 306/572/395 308/571/395 310/570/395 312/569/395 314/568/395 316/567/395 318/566/395 320/565/395 322/564/395 324/563/395 326/562/395 328/561/395 330/560/395 332/559/395 302/558/395
f 329/573/394 331/576/396 332/575/396 330/574/394
f 331/576/396 301/523/380 302/524/380 332/575/396
f 301/577/397 331/592/397 329/591/397 327/590/397 325/589/397 323/588/397 321/587/397 319/586/397 317/585/397 315/584/397 313/583/397 311/582/397 309/581/397 307/580/397 305/579/397 303/578/397
o Cylinder.005
v 5.473446 0.272827 -2.068229
v 5.307208 0.272828 -1.973476
v 5.484869 0.388801 -2.048187
v 5.318632 0.388801 -1.953434
v 5.517400 0.487119 -1.991114
v 5.351162 0.487119 -1.896361
v 5.566087 0.552813 -1.905697
v 5.399849 0.552813 -1.810944
v 5.623516 0.575881 -1.804941
v 5.457278 0.575881 -1.710188
v 5.680945 0.552813 -1.704185
v 5.514708 0.552813 -1.609432
v 5.729632 0.487119 -1.618768
v 5.563394 0.487119 -1.524015
v 5.762163 0.388801 -1.561695
v 5.595925 0.388801 -1.466942
v 5.773586 0.272827 -1.541653
v 5.607348 0.272827 -1.446900
v 5.762163 0.156854 -1.561695
v 5.595925 0.156854 -1.466942
v 5.729632 0.058536 -1.618768
v 5.563394 0.058536 -1.524015
v 5.680945 -0.007158 -1.704185
v 5.514708 -0.007158 -1.609432
v 5.623516 -0.030226 -1.804941
v 5.457278 -0.030226 -1.710188
v 5.566087 -0.007158 -1.905697
v 5.399849 -0.007158 -1.810944
v 5.517400 0.058536 -1.991114
v 5.351162 0.058536 -1.896361
v 5.484869 0.156854 -2.048187
v 5.318632 0.156854 -1.953434
v 5.708447 0.272827 -2.202177
v 5.719871 0.388801 -2.182135
v 5.752402 0.487119 -2.125061
v 5.801088 0.552813 -2.039644
v 5.858518 0.575881 -1.938888
v 5.915947 0.552813 -1.838133
v 5.964633 0.487119 -1.752716
v 5.997165 0.388801 -1.695642
v 6.008588 0.272827 -1.675600
v 5.997165 0.156854 -1.695642
v 5.964633 0.058536 -1.752716
v 5.915947 -0.007158 -1.838133
v 5.858518 -0.030226 -1.938888
v 5.801088 -0.007158 -2.039644
v 5.752402 0.058536 -2.125061
v 5.719871 0.156854 -2.182135
vn -0.4952 -0.0000 -0.8688
vn -0.4575 0.3827 -0.8027
vn -0.3502 0.7071 -0.6143
vn -0.1895 0.9239 -0.3325
vn -0.0000 1.0000 -0.0000
vn 0.1895 0.9239 0.3325
vn 0.3502 0.7071 0.6143
vn 0.4575 0.3827 0.8027
vn 0.4952 -0.0000 0.8688
vn 0.4575 -0.3827 0.8027
vn 0.3502 -0.7071 0.6143
vn 0.1895 -0.9239 0.3325
vn -0.0000 -1.0000 -0.0000
vn -0.1895 -0.9239 -0.3325
vn -0.3502 -0.7071 -0.6143
vn -0.8688 -0.0000 0.4952
vn -0.4575 -0.3827 -0.8027
vn 0.8688 -0.0000 -0.4952
vt 0.024557 0.139362
vt 0.024557 0.024497
vt 0.040403 0.024497
vt 0.040403 0.139362
vt 0.061106 0.024497
vt 0.061106 0.139362
vt 0.083515 0.024497
vt 0.083515 0.139362
vt 0.104218 0.024497
vt 0.104218 0.139362
vt 0.120064 0.024497
vt 0.120064 0.139362
vt 0.120064 0.139362
vt 0.120064 0.024497
vt 0.135910 0.024497
vt 0.135910 0.139362
vt 0.156613 0.024497
vt 0.156613 0.139362
vt 0.179022 0.024497
vt 0.179022 0.139362
vt 0.199725 0.024497
vt 0.199725 0.139362
vt 0.215571 0.024497
vt 0.215571 0.139362
vt 0.422430 0.139362
vt 0.422430 0.024497
vt 0.443133 0.024497
vt 0.443133 0.139362
vt 0.465542 0.024497
vt 0.465542 0.139362
vt 0.486245 0.024497
vt 0.486245 0.139362
vt 0.024557 0.416605
vt 0.024557 0.301740
vt 0.045261 0.301740
vt 0.045261 0.416605
vt 0.386080 0.389977
vt 0.377504 0.369273
vt 0.377504 0.346864
vt 0.386080 0.326161
vt 0.401925 0.310316
vt 0.422629 0.301740
vt 0.445038 0.301740
vt 0.465741 0.310316
vt 0.481587 0.326161
vt 0.490162 0.346864
vt 0.490162 0.369273
vt 0.481587 0.389977
vt 0.465741 0.405822
vt 0.445038 0.414398
vt 0.422629 0.414398
vt 0.401925 0.405822
vt 0.067670 0.301740
vt 0.067670 0.416605
vt 0.088373 0.301740
vt 0.088373 0.416605
vt 0.088373 0.578984
vt 0.067670 0.578984
vt 0.197313 0.527056
vt 0.176610 0.518480
vt 0.160764 0.502635
vt 0.152188 0.481931
vt 0.152188 0.459522
vt 0.160764 0.438819
vt 0.176610 0.422974
vt 0.197313 0.414398
vt 0.219722 0.414398
vt 0.240425 0.422974
vt 0.256271 0.438819
vt 0.264846 0.459522
vt 0.264846 0.481931
vt 0.256271 0.502635
vt 0.240425 0.518480
vt 0.219722 0.527056
vt 0.104218 0.301740
vt 0.083515 0.301740
vt 0.199725 0.301740
vt 0.179022 0.301740
vt 0.045261 0.578984
vt 0.024557 0.578984
vt 0.061106 0.301740
vt 0.040403 0.301740
vt 0.156613 0.301740
vt 0.135910 0.301740
vt 0.465542 0.301740
vt 0.443133 0.301740
vt 0.120064 0.301740
vt 0.406584 0.139362
vt 0.422430 0.301740
vt 0.406584 0.301740
vt 0.486245 0.301740
vt 0.120064 0.301740
s 1
f 333/593/398 334/594/398 336/595/399 335/596/399
f 335/596/399 336/595/399 338/597/400 337/598/400
f 337/598/400 338/597/400 340/599/401 339/600/401
f 339/600/401 340/599/401 342/601/402 341/602/402
f 341/602/402 342/601/402 344/603/403 343/604/403
f 343/605/403 344/606/403 346/607/404 345/608/404
f 345/608/404 346/607/404 348/609/405 347/610/405
f 347/610/405 348/609/405 350/611/406 349/612/406
f 349/612/406 350/611/406 352/613/407 351/614/407
f 351/614/407 352/613/407 354/615/408 353/616/408
f 353/617/408 354/618/408 356/619/409 355/620/409
f 355/620/409 356/619/409 358/621/410 357/622/410
f 357/622/410 358/621/410 360/623/411 359/624/411
f 359/625/411 360/626/411 362/627/412 361/628/412
f 336/629/413 334/630/413 364/631/413 362/632/413 360/633/413 358/634/413 356/635/413 354/636/413 352/637/413 350/638/413 348/639/413 346/640/413 344/641/413 342/642/413 340/643/413 338/644/413
f 361/628/412 362/627/412 364/645/414 363/646/414
f 363/646/414 364/645/414 334/647/398 333/648/398
f 363/646/414 333/648/398 365/649/398 380/650/414
f 365/651/415 366/652/415 367/653/415 368/654/415 369/655/415 370/656/415 371/657/415 372/658/415 373/659/415 374/660/415 375/661/415 376/662/415 377/663/415 378/664/415 379/665/415 380/666/415
f 339/600/401 341/602/402 369/667/402 368/668/401
f 349/612/406 351/614/407 374/669/407 373/670/406
f 359/625/411 361/628/412 379/671/412 378/672/411
f 335/596/399 337/598/400 367/673/400 366/674/399
f 345/608/404 347/610/405 372/675/405 371/676/404
f 355/620/409 357/622/410 377/677/410 376/678/409
f 341/602/402 343/604/403 370/679/403 369/667/402
f 351/680/407 353/617/408 375/681/408 374/682/407
f 361/628/412 363/646/414 380/650/414 379/671/412
f 337/598/400 339/600/401 368/668/401 367/673/400
f 347/610/405 349/612/406 373/670/406 372/675/405
f 333/593/398 335/596/399 366/674/399 365/626/398
f 357/622/410 359/624/411 378/683/411 377/677/410
f 343/605/403 345/608/404 371/676/404 370/684/403
f 353/617/408 355/620/409 376/678/409 375/681/408
o Cylinder.006
v 4.532944 0.272828 -1.504815
v 4.705771 0.272827 -1.422693
v 4.542845 0.388801 -1.525651
v 4.715672 0.388801 -1.443529
v 4.571039 0.487119 -1.584987
v 4.743866 0.487119 -1.502864
v 4.613235 0.552813 -1.673789
v 4.786063 0.552813 -1.591667
v 4.663010 0.575881 -1.778539
v 4.835836 0.575881 -1.696416
v 4.712783 0.552813 -1.883288
v 4.885611 0.552813 -1.801166
v 4.754980 0.487119 -1.972090
v 4.927807 0.487119 -1.889968
v 4.783175 0.388801 -2.031426
v 4.956001 0.388801 -1.949304
v 4.793075 0.272827 -2.052262
v 4.965902 0.272827 -1.970140
v 4.783175 0.156854 -2.031426
v 4.956001 0.156854 -1.949304
v 4.754980 0.058536 -1.972090
v 4.927807 0.058536 -1.889968
v 4.712783 -0.007158 -1.883288
v 4.885611 -0.007158 -1.801166
v 4.663010 -0.030226 -1.778539
v 4.835836 -0.030226 -1.696416
v 4.613235 -0.007158 -1.673789
v 4.786063 -0.007158 -1.591667
v 4.571039 0.058536 -1.584987
v 4.743866 0.058536 -1.502864
v 4.542845 0.156854 -1.525651
v 4.715672 0.156854 -1.443529
v 4.288628 0.272828 -1.620907
v 4.298529 0.388801 -1.641743
v 4.326723 0.487119 -1.701079
v 4.368920 0.552813 -1.789881
v 4.418694 0.575881 -1.894631
v 4.468468 0.552813 -1.999380
v 4.510664 0.487119 -2.088182
v 4.538858 0.388801 -2.147518
v 4.548759 0.272828 -2.168354
v 4.538858 0.156854 -2.147518
v 4.510664 0.058536 -2.088182
v 4.468468 -0.007158 -1.999380
v 4.418694 -0.030226 -1.894631
v 4.368919 -0.007158 -1.789881
v 4.326723 0.058536 -1.701079
v 4.298529 0.156854 -1.641743
vn -0.4292 -0.0000 0.9032
vn -0.3965 0.3827 0.8345
vn -0.3035 0.7071 0.6387
vn -0.1642 0.9239 0.3456
vn -0.0000 1.0000 -0.0000
vn 0.1642 0.9239 -0.3456
vn 0.3035 0.7071 -0.6387
vn 0.3965 0.3827 -0.8345
vn 0.4292 -0.0000 -0.9032
vn 0.3965 -0.3827 -0.8345
vn 0.3035 -0.7071 -0.6387
vn 0.1642 -0.9239 -0.3456
vn -0.0000 -1.0000 -0.0000
vn -0.1642 -0.9239 0.3456
vn -0.3035 -0.7071 0.6387
vn 0.9032 -0.0000 0.4292
vn -0.3965 -0.3827 0.8345
vn -0.9032 -0.0000 -0.4292
vt 0.215571 0.139362
vt 0.215571 0.024497
vt 0.231416 0.024497
vt 0.231416 0.139362
vt 0.252120 0.024497
vt 0.252120 0.139362
vt 0.274529 0.024497
vt 0.274529 0.139362
vt 0.295232 0.024497
vt 0.295232 0.139362
vt 0.311078 0.024497
vt 0.311078 0.139362
vt 0.311078 0.139362
vt 0.311078 0.024497
vt 0.326923 0.024497
vt 0.326923 0.139362
vt 0.347626 0.024497
vt 0.347626 0.139362
vt 0.370035 0.024497
vt 0.370035 0.139362
vt 0.390739 0.024497
vt 0.390739 0.139362
vt 0.406584 0.024497
vt 0.406584 0.139362
vt 0.502091 0.139362
vt 0.502091 0.024497
vt 0.522794 0.024497
vt 0.522794 0.139362
vt 0.545203 0.024497
vt 0.545203 0.139362
vt 0.565907 0.024497
vt 0.565907 0.139362
vt 0.088373 0.416605
vt 0.088373 0.301740
vt 0.109076 0.301740
vt 0.109076 0.416605
vt 0.273422 0.502635
vt 0.264846 0.481931
vt 0.264846 0.459522
vt 0.273422 0.438819
vt 0.289267 0.422973
vt 0.309971 0.414398
vt 0.332380 0.414398
vt 0.353083 0.422973
vt 0.368929 0.438819
vt 0.377504 0.459522
vt 0.377504 0.481931
vt 0.368929 0.502635
vt 0.353083 0.518480
vt 0.332380 0.527056
vt 0.309971 0.527056
vt 0.289267 0.518480
vt 0.131485 0.301740
vt 0.131485 0.416605
vt 0.152188 0.301740
vt 0.152188 0.416605
vt 0.152188 0.578984
vt 0.131485 0.578984
vt 0.422629 0.527056
vt 0.401925 0.518480
vt 0.386080 0.502635
vt 0.377504 0.481931
vt 0.377504 0.459522
vt 0.386080 0.438819
vt 0.401925 0.422974
vt 0.422629 0.414398
vt 0.445038 0.414398
vt 0.465741 0.422974
vt 0.481587 0.438819
vt 0.490162 0.459522
vt 0.490162 0.481931
vt 0.481587 0.502635
vt 0.465741 0.518480
vt 0.445038 0.527056
vt 0.295232 0.301740
vt 0.274529 0.301740
vt 0.390739 0.301740
vt 0.370035 0.301740
vt 0.109076 0.578984
vt 0.088373 0.578984
vt 0.252120 0.301740
vt 0.231416 0.301740
vt 0.347626 0.301740
vt 0.326923 0.301740
vt 0.545203 0.301740
vt 0.522794 0.301740
vt 0.311078 0.301740
vt 0.486246 0.139362
vt 0.502091 0.301740
vt 0.486246 0.301740
vt 0.215571 0.301740
vt 0.565907 0.301740
vt 0.311078 0.301740
s 1
f 381/685/416 382/686/416 384/687/417 383/688/417
f 383/688/417 384/687/417 386/689/418 385/690/418
f 385/690/418 386/689/418 388/691/419 387/692/419
f 387/692/419 388/691/419 390/693/420 389/694/420
f 389/694/420 390/693/420 392/695/421 391/696/421
f 391/697/421 392/698/421 394/699/422 393/700/422
f 393/700/422 394/699/422 396/701/423 395/702/423
f 395/702/423 396/701/423 398/703/424 397/704/424
f 397/704/424 398/703/424 400/705/425 399/706/425
f 399/706/425 400/705/425 402/707/426 401/708/426
f 401/709/426 402/710/426 404/711/427 403/712/427
f 403/712/427 404/711/427 406/713/428 405/714/428
f 405/714/428 406/713/428 408/715/429 407/716/429
f 407/717/429 408/718/429 410/719/430 409/720/430
f 384/721/431 382/722/431 412/723/431 410/724/431 408/725/431 406/726/431 404/727/431 402/728/431 400/729/431 398/730/431 396/731/431 394/732/431 392/733/431 390/734/431 388/735/431 386/736/431
f 409/720/430 410/719/430 412/737/432 411/738/432
f 411/738/432 412/737/432 382/739/416 381/740/416
f 411/738/432 381/740/416 413/741/416 428/742/432
f 413/743/433 414/744/433 415/745/433 416/746/433 417/747/433 418/748/433 419/749/433 420/750/433 421/751/433 422/752/433 423/753/433 424/754/433 425/755/433 426/756/433 427/757/433 428/758/433
f 387/692/419 389/694/420 417/759/420 416/760/419
f 397/704/424 399/706/425 422/761/425 421/762/424
f 407/717/429 409/720/430 427/763/430 426/764/429
f 383/688/417 385/690/418 415/765/418 414/766/417
f 393/700/422 395/702/423 420/767/423 419/768/422
f 403/712/427 405/714/428 425/769/428 424/770/427
f 389/694/420 391/696/421 418/771/421 417/759/420
f 399/772/425 401/709/426 423/773/426 422/774/425
f 409/720/430 411/738/432 428/742/432 427/763/430
f 385/690/418 387/692/419 416/760/419 415/765/418
f 395/702/423 397/704/424 421/762/424 420/767/423
f 381/685/416 383/688/417 414/766/417 413/775/416
f 405/714/428 407/716/429 426/776/429 425/769/428
f 391/697/421 393/700/422 419/768/422 418/777/421
f 401/709/426 403/712/427 424/770/427 423/773/426
o Cylinder.007
v 4.248780 0.717676 -1.969009
v 4.442358 0.717676 -1.873944
v 4.174148 0.683998 -1.817036
v 4.367725 0.683998 -1.721972
v 4.110878 0.588092 -1.688200
v 4.304455 0.588092 -1.593136
v 4.068602 0.444559 -1.602115
v 4.262179 0.444559 -1.507051
v 4.053757 0.275249 -1.571886
v 4.247334 0.275249 -1.476821
v 4.068602 0.105940 -1.602115
v 4.262179 0.105940 -1.507051
v 4.110878 -0.037593 -1.688200
v 4.304455 -0.037593 -1.593136
v 4.174148 -0.133499 -1.817036
v 4.367725 -0.133499 -1.721972
v 4.248780 -0.167177 -1.969009
v 4.442358 -0.167177 -1.873944
v 4.323413 -0.133499 -2.120981
v 4.516990 -0.133499 -2.025917
v 4.386683 -0.037593 -2.249817
v 4.580261 -0.037593 -2.154752
v 4.428959 0.105940 -2.335902
v 4.622537 0.105940 -2.240838
v 4.443804 0.275249 -2.366132
v 4.637382 0.275249 -2.271067
v 4.428959 0.444559 -2.335902
v 4.622537 0.444559 -2.240838
v 4.386683 0.588092 -2.249817
v 4.580261 0.588092 -2.154752
v 4.323413 0.683998 -2.120981
v 4.516990 0.683998 -2.025917
vn -0.0000 1.0000 -0.0000
vn -0.1687 0.9239 0.3435
vn -0.3117 0.7071 0.6347
vn -0.4073 0.3827 0.8293
vn -0.4408 -0.0000 0.8976
vn -0.4073 -0.3827 0.8293
vn -0.3117 -0.7071 0.6347
vn -0.1687 -0.9239 0.3435
vn -0.0000 -1.0000 -0.0000
vn 0.1687 -0.9239 -0.3435
vn 0.3117 -0.7071 -0.6347
vn 0.4073 -0.3827 -0.8293
vn 0.4408 -0.0000 -0.8976
vn 0.4073 0.3827 -0.8293
vn 0.3117 0.7071 -0.6347
vn 0.8976 -0.0000 0.4408
vn 0.1687 0.9239 -0.3435
vn -0.8976 -0.0000 -0.4408
vt 0.820320 0.531995
vt 0.820320 0.417130
vt 0.842729 0.417130
vt 0.842729 0.531995
vt 0.863433 0.417130
vt 0.863433 0.531995
vt 0.787429 0.762283
vt 0.787429 0.647418
vt 0.803275 0.647418
vt 0.803275 0.762283
vt 0.823978 0.647418
vt 0.823978 0.762283
vt 0.846387 0.647418
vt 0.846387 0.762283
vt 0.867090 0.647418
vt 0.867090 0.762283
vt 0.788108 0.647379
vt 0.788108 0.532514
vt 0.808811 0.532514
vt 0.808811 0.647379
vt 0.831220 0.532514
vt 0.831220 0.647379
vt 0.851924 0.532514
vt 0.851924 0.647379
vt 0.867769 0.532514
vt 0.867769 0.647379
vt 0.448757 0.869493
vt 0.448757 0.754628
vt 0.469460 0.754628
vt 0.469460 0.869493
vt 0.491869 0.754628
vt 0.491869 0.869493
vt 0.512573 0.754628
vt 0.512573 0.869493
vt 0.528418 0.754628
vt 0.528418 0.869493
vt 0.498738 0.389977
vt 0.490162 0.369274
vt 0.490162 0.346864
vt 0.498738 0.326161
vt 0.514583 0.310316
vt 0.535287 0.301740
vt 0.557696 0.301740
vt 0.578399 0.310316
vt 0.594244 0.326161
vt 0.602820 0.346864
vt 0.602820 0.369274
vt 0.594244 0.389977
vt 0.578399 0.405822
vt 0.557696 0.414398
vt 0.535287 0.414398
vt 0.514583 0.405822
vt 0.783771 0.531995
vt 0.783771 0.417130
vt 0.799617 0.417130
vt 0.799617 0.531995
vt 0.490162 0.481931
vt 0.490162 0.459522
vt 0.498738 0.438819
vt 0.514583 0.422974
vt 0.557696 0.414398
vt 0.578399 0.422974
vt 0.594244 0.438819
vt 0.602820 0.459522
vt 0.602820 0.481931
vt 0.594244 0.502635
vt 0.578399 0.518480
vt 0.557696 0.527056
vt 0.535287 0.527056
vt 0.514583 0.518480
vt 0.498738 0.502635
s 1
f 429/778/434 431/781/435 432/780/435 430/779/434
f 431/781/435 433/783/436 434/782/436 432/780/435
f 433/784/436 435/787/437 436/786/437 434/785/436
f 435/787/437 437/789/438 438/788/438 436/786/437
f 437/789/438 439/791/439 440/790/439 438/788/438
f 439/791/439 441/793/440 442/792/440 440/790/439
f 441/794/440 443/797/441 444/796/441 442/795/440
f 443/797/441 445/799/442 446/798/442 444/796/441
f 445/799/442 447/801/443 448/800/443 446/798/442
f 447/801/443 449/803/444 450/802/444 448/800/443
f 449/804/444 451/807/445 452/806/445 450/805/444
f 451/807/445 453/809/446 454/808/446 452/806/445
f 453/809/446 455/811/447 456/810/447 454/808/446
f 455/811/447 457/813/448 458/812/448 456/810/447
f 432/814/449 434/829/449 436/828/449 438/827/449 440/826/449 442/825/449 444/824/449 446/823/449 448/822/449 450/821/449 452/820/449 454/819/449 456/818/449 458/817/449 460/816/449 430/815/449
f 457/830/448 459/833/450 460/832/450 458/831/448
f 459/833/450 429/778/434 430/779/434 460/832/450
f 429/834/451 459/848/451 457/847/451 455/846/451 453/845/451 451/844/451 449/843/451 447/842/451 445/841/451 443/840/451 441/839/451 439/838/451 437/828/451 435/837/451 433/836/451 431/835/451
o Cylinder
v 5.681443 1.052904 -1.664755
v 5.681443 1.052904 -1.563573
v 5.852331 1.086895 -1.664755
v 5.852331 1.086895 -1.563573
v 5.997204 1.183696 -1.664755
v 5.997204 1.183696 -1.563573
v 6.094004 1.328568 -1.664755
v 6.094004 1.328568 -1.563573
v 6.127996 1.499457 -1.664755
v 6.127996 1.499457 -1.563573
v 6.094004 1.670346 -1.664755
v 6.094004 1.670346 -1.563573
v 5.997204 1.815218 -1.664755
v 5.997204 1.815218 -1.563573
v 5.852331 1.912019 -1.664755
v 5.852331 1.912019 -1.563573
v 5.681443 1.946010 -1.664755
v 5.681443 1.946010 -1.563573
v 5.510554 1.912019 -1.664755
v 5.510554 1.912019 -1.563573
v 5.365682 1.815218 -1.664755
v 5.365682 1.815218 -1.563573
v 5.268881 1.670346 -1.664755
v 5.268881 1.670346 -1.563573
v 5.234890 1.499457 -1.664755
v 5.234890 1.499457 -1.563573
v 5.268881 1.328568 -1.664755
v 5.268881 1.328568 -1.563573
v 5.365682 1.183696 -1.664755
v 5.365682 1.183696 -1.563573
v 5.510554 1.086895 -1.664755
v 5.510554 1.086895 -1.563573
v 5.681443 0.973639 -1.664755
v 5.882665 1.013664 -1.664755
v 5.882665 1.013664 -1.563573
v 5.681443 0.973639 -1.563573
v 6.053252 1.127647 -1.664755
v 6.053252 1.127647 -1.563573
v 6.167235 1.298235 -1.664755
v 6.167235 1.298235 -1.563573
v 6.207261 1.499457 -1.664755
v 6.207261 1.499457 -1.563573
v 6.167235 1.700679 -1.664755
v 6.167235 1.700679 -1.563573
v 6.053252 1.871267 -1.664755
v 6.053252 1.871267 -1.563573
v 5.882665 1.985250 -1.664755
v 5.882665 1.985250 -1.563573
v 5.681443 2.025275 -1.664755
v 5.681443 2.025275 -1.563573
v 5.480221 1.985250 -1.664755
v 5.480221 1.985250 -1.563573
v 5.309633 1.871267 -1.664755
v 5.309633 1.871267 -1.563573
v 5.195650 1.700679 -1.664755
v 5.195650 1.700679 -1.563573
v 5.155624 1.499457 -1.664755
v 5.155624 1.499457 -1.563573
v 5.195650 1.298235 -1.664755
v 5.195650 1.298235 -1.563573
v 5.309633 1.127647 -1.664755
v 5.309633 1.127647 -1.563573
v 5.480221 1.013664 -1.664755
v 5.480221 1.013664 -1.563573
v 5.693277 0.997570 -1.636925
v 5.693277 0.997570 -1.601657
v 5.878294 1.034372 -1.636925
v 5.878294 1.034372 -1.601657
v 6.035144 1.139175 -1.636925
v 6.035144 1.139175 -1.601657
v 6.139947 1.296025 -1.636925
v 6.139947 1.296025 -1.601657
v 6.176750 1.481042 -1.636925
v 6.176750 1.481042 -1.601657
v 6.139947 1.666059 -1.636925
v 6.139947 1.666059 -1.601657
v 6.035144 1.822908 -1.636925
v 6.035144 1.822908 -1.601657
v 5.878294 1.927712 -1.636925
v 5.878294 1.927712 -1.601657
v 5.693277 1.964514 -1.636925
v 5.693277 1.964514 -1.601657
v 5.508261 1.927712 -1.636925
v 5.508261 1.927712 -1.601657
v 5.351411 1.822908 -1.636925
v 5.351411 1.822908 -1.601657
v 5.246607 1.666059 -1.636925
v 5.246607 1.666059 -1.601657
v 5.209805 1.481042 -1.636925
v 5.209805 1.481042 -1.601657
v 5.246607 1.296025 -1.636925
v 5.246607 1.296025 -1.601657
v 5.351411 1.139175 -1.636925
v 5.351411 1.139175 -1.601657
v 5.508261 1.034372 -1.636925
v 5.508261 1.034372 -1.601657
v 4.571729 0.997570 -1.636925
v 4.571729 0.997570 -1.601657
v 4.756746 1.034372 -1.636925
v 4.756746 1.034372 -1.601657
v 4.913595 1.139175 -1.636925
v 4.913595 1.139175 -1.601657
v 5.018399 1.296025 -1.636925
v 5.018399 1.296025 -1.601657
v 5.055201 1.481042 -1.636925
v 5.055201 1.481042 -1.601657
v 5.018399 1.666059 -1.636925
v 5.018399 1.666059 -1.601657
v 4.913595 1.822908 -1.636925
v 4.913595 1.822908 -1.601657
v 4.756746 1.927712 -1.636925
v 4.756746 1.927712 -1.601657
v 4.571729 1.964514 -1.636925
v 4.571729 1.964514 -1.601657
v 4.386713 1.927712 -1.636925
v 4.386713 1.927712 -1.601657
v 4.229863 1.822908 -1.636925
v 4.229863 1.822908 -1.601657
v 4.125059 1.666059 -1.636925
v 4.125059 1.666059 -1.601657
v 4.088257 1.481042 -1.636925
v 4.088257 1.481042 -1.601657
v 4.125059 1.296025 -1.636925
v 4.125059 1.296025 -1.601657
v 4.229863 1.139175 -1.636925
v 4.229863 1.139175 -1.601657
v 4.386713 1.034372 -1.636925
v 4.386713 1.034372 -1.601657
vn -0.0000 -1.0000 -0.0000
vn 0.3827 -0.9239 -0.0000
vn 0.7071 -0.7071 -0.0000
vn 0.9239 -0.3827 -0.0000
vn 1.0000 -0.0000 -0.0000
vn 0.9239 0.3827 -0.0000
vn 0.7071 0.7071 -0.0000
vn 0.3827 0.9239 -0.0000
vn -0.0000 1.0000 -0.0000
vn -0.3827 0.9239 -0.0000
vn -0.7071 0.7071 -0.0000
vn -0.9239 0.3827 -0.0000
vn -1.0000 -0.0000 -0.0000
vn -0.9239 -0.3827 -0.0000
vn -0.7071 -0.7071 -0.0000
vn -0.3827 -0.9239 -0.0000
vn -0.0000 -0.0000 -1.0000
vn -0.0000 -0.0000 1.0000
vn 0.1951 -0.9808 -0.0000
vn 0.5556 -0.8315 -0.0000
vn 0.8315 -0.5556 -0.0000
vn 0.9808 -0.1951 -0.0000
vn 0.9808 0.1951 -0.0000
vn 0.8315 0.5556 -0.0000
vn 0.5556 0.8315 -0.0000
vn 0.1951 0.9808 -0.0000
vn -0.1951 0.9808 -0.0000
vn -0.5556 0.8315 -0.0000
vn -0.8315 0.5556 -0.0000
vn -0.9808 0.1951 -0.0000
vn -0.9808 -0.1951 -0.0000
vn -0.8315 -0.5556 -0.0000
vn -0.5556 -0.8315 -0.0000
vn -0.1951 -0.9808 -0.0000
vt 0.045261 0.809532
vt 0.045261 0.694667
vt 0.067670 0.694667
vt 0.067670 0.809532
vt 0.088373 0.694667
vt 0.088373 0.809532
vt 0.104218 0.694667
vt 0.104218 0.809532
vt 0.359359 0.870165
vt 0.359359 0.755300
vt 0.380062 0.755300
vt 0.380062 0.870165
vt 0.402471 0.755300
vt 0.402471 0.870165
vt 0.423174 0.755300
vt 0.423174 0.870165
vt 0.439020 0.755300
vt 0.439020 0.870165
vt 0.754823 0.254227
vt 0.754823 0.139362
vt 0.775526 0.139362
vt 0.775526 0.254227
vt 0.797935 0.139362
vt 0.797935 0.254227
vt 0.818638 0.139362
vt 0.818638 0.254227
vt 0.834484 0.139362
vt 0.834484 0.254227
vt 0.787429 0.877148
vt 0.787429 0.762283
vt 0.808132 0.762283
vt 0.808132 0.877148
vt 0.830541 0.762283
vt 0.830541 0.877148
vt 0.851245 0.762283
vt 0.851245 0.877148
vt 0.867769 0.532514
vt 0.881226 0.532514
vt 0.881226 0.647379
vt 0.867769 0.647379
vt 0.867090 0.762283
vt 0.867090 0.877148
vt 0.024557 0.809532
vt 0.024557 0.694667
vt 0.584906 0.639714
vt 0.602488 0.639714
vt 0.602488 0.754579
vt 0.584906 0.754579
vt 0.160680 0.573869
vt 0.160680 0.592900
vt 0.152188 0.594589
vt 0.152188 0.572180
vt 0.273338 0.592900
vt 0.280621 0.610483
vt 0.273422 0.615293
vt 0.264846 0.594589
vt 0.167963 0.556287
vt 0.160764 0.551477
vt 0.294077 0.623940
vt 0.289267 0.631138
vt 0.181420 0.542830
vt 0.176610 0.535631
vt 0.311660 0.631222
vt 0.309971 0.639714
vt 0.199002 0.535547
vt 0.197313 0.527056
vt 0.330691 0.631222
vt 0.332380 0.639714
vt 0.218033 0.535547
vt 0.219722 0.527056
vt 0.348273 0.623940
vt 0.353083 0.631138
vt 0.235615 0.542830
vt 0.240425 0.535631
vt 0.361730 0.610483
vt 0.368929 0.615293
vt 0.249072 0.556287
vt 0.256271 0.551477
vt 0.369013 0.592900
vt 0.377504 0.594589
vt 0.256355 0.573869
vt 0.264846 0.572180
vt 0.369013 0.573869
vt 0.377504 0.572180
vt 0.256355 0.592900
vt 0.264846 0.594589
vt 0.361730 0.556287
vt 0.368929 0.551477
vt 0.249072 0.610483
vt 0.256271 0.615293
vt 0.348273 0.542830
vt 0.353083 0.535631
vt 0.235615 0.623940
vt 0.240425 0.631138
vt 0.330691 0.535547
vt 0.332380 0.527056
vt 0.218033 0.631222
vt 0.219722 0.639714
vt 0.311660 0.535547
vt 0.309971 0.527056
vt 0.199002 0.631222
vt 0.197313 0.639714
vt 0.294077 0.542830
vt 0.289267 0.535631
vt 0.181420 0.623940
vt 0.176610 0.631138
vt 0.280621 0.556287
vt 0.273422 0.551477
vt 0.167963 0.610483
vt 0.160764 0.615293
vt 0.273338 0.573869
vt 0.264846 0.572180
vt 0.898808 0.532514
vt 0.898808 0.647379
vt 0.917839 0.532514
vt 0.917839 0.647379
vt 0.935422 0.532514
vt 0.935422 0.647379
vt 0.867090 0.762344
vt 0.880547 0.762344
vt 0.880547 0.877209
vt 0.867090 0.877209
vt 0.898130 0.762344
vt 0.898130 0.877209
vt 0.917161 0.762344
vt 0.917161 0.877209
vt 0.934743 0.762344
vt 0.934743 0.877209
vt 0.602820 0.854550
vt 0.616277 0.854550
vt 0.616277 0.969415
vt 0.602820 0.969415
vt 0.633859 0.854550
vt 0.633859 0.969415
vt 0.652890 0.854550
vt 0.652890 0.969415
vt 0.670473 0.854550
vt 0.670473 0.969415
vt 0.534835 0.639714
vt 0.548292 0.639714
vt 0.548292 0.754579
vt 0.534835 0.754579
vt 0.565875 0.639714
vt 0.565875 0.754579
vt 0.351549 0.797509
vt 0.311511 0.797509
vt 0.311511 0.776904
vt 0.351549 0.776904
vt 0.311511 0.757869
vt 0.351549 0.757869
vt 0.311511 0.743299
vt 0.351549 0.743299
vt 0.144257 0.949920
vt 0.104218 0.949920
vt 0.104218 0.930884
vt 0.144257 0.930884
vt 0.104218 0.910280
vt 0.144257 0.910280
vt 0.104218 0.891244
vt 0.144257 0.891244
vt 0.104218 0.876675
vt 0.144257 0.876675
vt 0.399397 0.943411
vt 0.359359 0.943411
vt 0.359359 0.924375
vt 0.399397 0.924375
vt 0.359359 0.903770
vt 0.399397 0.903770
vt 0.359359 0.884734
vt 0.399397 0.884734
vt 0.359359 0.870165
vt 0.399397 0.870165
vt 0.907128 0.935885
vt 0.867090 0.935885
vt 0.867090 0.916849
vt 0.907128 0.916849
vt 0.867090 0.896245
vt 0.907128 0.896245
vt 0.907128 0.877209
vt 0.174643 0.735414
vt 0.160073 0.720845
vt 0.152188 0.701809
vt 0.152188 0.681204
vt 0.160073 0.662168
vt 0.174643 0.647599
vt 0.193679 0.639714
vt 0.214283 0.639714
vt 0.233319 0.647599
vt 0.247889 0.662168
vt 0.255774 0.681204
vt 0.255774 0.701808
vt 0.247889 0.720844
vt 0.233319 0.735414
vt 0.214283 0.743299
vt 0.193679 0.743299
vt 0.351549 0.831114
vt 0.311511 0.831114
vt 0.311511 0.816545
vt 0.351549 0.816545
vt 0.602820 0.594609
vt 0.602820 0.574005
vt 0.610705 0.554969
vt 0.625275 0.540399
vt 0.644310 0.532515
vt 0.664915 0.532514
vt 0.683951 0.540399
vt 0.698520 0.554969
vt 0.706405 0.574005
vt 0.706405 0.594609
vt 0.698520 0.613645
vt 0.683951 0.628215
vt 0.664915 0.636100
vt 0.644310 0.636100
vt 0.625275 0.628215
vt 0.610705 0.613645
vt 0.144257 0.843069
vt 0.104218 0.843069
vt 0.104218 0.822465
vt 0.144257 0.822465
vt 0.104218 0.803429
vt 0.144257 0.803429
vt 0.104218 0.788859
vt 0.144257 0.788859
vt 0.827467 0.950394
vt 0.787429 0.950394
vt 0.787429 0.931358
vt 0.827467 0.931358
vt 0.787429 0.910753
vt 0.827467 0.910753
vt 0.787429 0.891717
vt 0.827467 0.891717
vt 0.827467 0.877148
vt 0.439435 0.943411
vt 0.399397 0.943411
vt 0.399397 0.924375
vt 0.439435 0.924375
vt 0.399397 0.903770
vt 0.439435 0.903770
vt 0.399397 0.884734
vt 0.439435 0.884734
vt 0.399397 0.870165
vt 0.439435 0.870165
vt 0.746443 0.935895
vt 0.706405 0.935895
vt 0.706405 0.916859
vt 0.746443 0.916859
vt 0.706405 0.896255
vt 0.746443 0.896255
vt 0.706405 0.877218
vt 0.746443 0.877218
vt 0.625275 0.731800
vt 0.610705 0.717230
vt 0.602820 0.698194
vt 0.602820 0.677590
vt 0.610705 0.658554
vt 0.625274 0.643985
vt 0.644310 0.636100
vt 0.664915 0.636100
vt 0.683951 0.643985
vt 0.698520 0.658554
vt 0.706405 0.677590
vt 0.706405 0.698194
vt 0.698520 0.717230
vt 0.683951 0.731800
vt 0.664915 0.739685
vt 0.644310 0.739685
vt 0.144257 0.876675
vt 0.104218 0.876675
vt 0.104218 0.862105
vt 0.144257 0.862105
vt 0.336904 0.735414
vt 0.317868 0.743299
vt 0.297264 0.743299
vt 0.278228 0.735414
vt 0.263659 0.720845
vt 0.255774 0.701809
vt 0.255774 0.681204
vt 0.263659 0.662168
vt 0.278228 0.647599
vt 0.297264 0.639714
vt 0.317868 0.639714
vt 0.336904 0.647599
vt 0.351474 0.662168
vt 0.359359 0.681204
vt 0.359359 0.701809
vt 0.351474 0.720844
s 1
f 493/849/452 494/852/453 495/851/453 496/850/452
f 494/852/453 497/854/454 498/853/454 495/851/453
f 497/854/454 499/856/455 500/855/455 498/853/454
f 499/857/455 501/860/456 502/859/456 500/858/455
f 501/860/456 503/862/457 504/861/457 502/859/456
f 503/862/457 505/864/458 506/863/458 504/861/457
f 505/864/458 507/866/459 508/865/459 506/863/458
f 507/867/459 509/870/460 510/869/460 508/868/459
f 509/870/460 511/872/461 512/871/461 510/869/460
f 511/872/461 513/874/462 514/873/462 512/871/461
f 513/874/462 515/876/463 516/875/463 514/873/462
f 515/877/463 517/880/464 518/879/464 516/878/463
f 517/880/464 519/882/465 520/881/465 518/879/464
f 519/882/465 521/884/466 522/883/466 520/881/465
f 492/885/459 491/888/459 489/887/458 490/886/458
f 521/884/466 523/890/467 524/889/467 522/883/466
f 523/891/467 493/849/452 496/850/452 524/892/467
f 462/893/460 461/896/460 491/895/459 492/894/459
f 463/897/468 494/900/468 493/899/468 461/898/468
f 462/901/469 496/904/469 495/903/469 464/902/469
f 465/905/468 497/906/468 494/900/468 463/897/468
f 464/902/469 495/903/469 498/908/469 466/907/469
f 467/909/468 499/910/468 497/906/468 465/905/468
f 466/907/469 498/908/469 500/912/469 468/911/469
f 469/913/468 501/914/468 499/910/468 467/909/468
f 468/911/469 500/912/469 502/916/469 470/915/469
f 471/917/468 503/918/468 501/914/468 469/913/468
f 470/915/469 502/916/469 504/920/469 472/919/469
f 473/921/468 505/922/468 503/918/468 471/917/468
f 472/919/469 504/920/469 506/924/469 474/923/469
f 475/925/468 507/926/468 505/922/468 473/921/468
f 474/923/469 506/924/469 508/928/469 476/927/469
f 477/929/468 509/930/468 507/926/468 475/925/468
f 476/927/469 508/928/469 510/932/469 478/931/469
f 479/933/468 511/934/468 509/930/468 477/929/468
f 478/931/469 510/932/469 512/936/469 480/935/469
f 481/937/468 513/938/468 511/934/468 479/933/468
f 480/935/469 512/936/469 514/940/469 482/939/469
f 483/941/468 515/942/468 513/938/468 481/937/468
f 482/939/469 514/940/469 516/944/469 484/943/469
f 485/945/468 517/946/468 515/942/468 483/941/468
f 484/943/469 516/944/469 518/948/469 486/947/469
f 487/949/468 519/950/468 517/946/468 485/945/468
f 486/947/469 518/948/469 520/952/469 488/951/469
f 489/953/468 521/954/468 519/950/468 487/949/468
f 488/951/469 520/952/469 522/956/469 490/955/469
f 491/957/468 523/958/468 521/954/468 489/953/468
f 490/955/469 522/956/469 524/960/469 492/959/469
f 461/898/468 493/899/468 523/958/468 491/957/468
f 492/959/469 524/960/469 496/904/469 462/901/469
f 490/886/458 489/887/458 487/962/457 488/961/457
f 488/961/457 487/962/457 485/964/456 486/963/456
f 486/963/456 485/964/456 483/966/455 484/965/455
f 484/967/455 483/970/455 481/969/454 482/968/454
f 482/968/454 481/969/454 479/972/453 480/971/453
f 480/971/453 479/972/453 477/974/452 478/973/452
f 478/973/452 477/974/452 475/976/467 476/975/467
f 476/977/467 475/980/467 473/979/466 474/978/466
f 474/978/466 473/979/466 471/982/465 472/981/465
f 472/981/465 471/982/465 469/984/464 470/983/464
f 470/983/464 469/984/464 467/986/463 468/985/463
f 468/987/463 467/990/463 465/989/462 466/988/462
f 466/988/462 465/989/462 463/992/461 464/991/461
f 464/991/461 463/992/461 461/896/460 462/893/460
f 525/993/470 527/996/470 528/995/470 526/994/470
f 527/996/471 529/998/471 530/997/471 528/995/471
f 529/998/472 531/1000/472 532/999/472 530/997/472
f 531/1001/473 533/1004/473 534/1003/473 532/1002/473
f 533/1004/474 535/1006/474 536/1005/474 534/1003/474
f 535/1006/475 537/1008/475 538/1007/475 536/1005/475
f 537/1008/476 539/1010/476 540/1009/476 538/1007/476
f 539/1011/477 541/1014/477 542/1013/477 540/1012/477
f 541/1014/478 543/1016/478 544/1015/478 542/1013/478
f 543/1016/479 545/1018/479 546/1017/479 544/1015/479
f 545/1018/480 547/1020/480 548/1019/480 546/1017/480
f 547/1021/481 549/1024/481 550/1023/481 548/1022/481
f 549/1024/482 551/1026/482 552/1025/482 550/1023/482
f 551/1026/483 553/1027/483 554/970/483 552/1025/483
f 528/1028/469 530/1043/469 532/1042/469 534/1041/469 536/1040/469 538/1039/469 540/1038/469 542/1037/469 544/1036/469 546/1035/469 548/1034/469 550/1033/469 552/1032/469 554/1031/469 556/1030/469 526/1029/469
f 553/1044/484 555/1047/484 556/1046/484 554/1045/484
f 555/1047/485 525/993/485 526/994/485 556/1046/485
f 525/1048/468 555/1063/468 553/1062/468 551/1061/468 549/1060/468 547/1059/468 545/1058/468 543/1057/468 541/1056/468 539/1055/468 537/1054/468 535/1053/468 533/1052/468 531/1051/468 529/1050/468 527/1049/468
f 557/1064/470 559/1067/470 560/1066/470 558/1065/470
f 559/1067/471 561/1069/471 562/1068/471 560/1066/471
f 561/1069/472 563/1071/472 564/1070/472 562/1068/472
f 563/1072/473 565/1075/473 566/1074/473 564/1073/473
f 565/1075/474 567/1077/474 568/1076/474 566/1074/474
f 567/1077/475 569/1079/475 570/1078/475 568/1076/475
f 569/1079/476 571/1080/476 572/877/476 570/1078/476
f 571/1081/477 573/1084/477 574/1083/477 572/1082/477
f 573/1084/478 575/1086/478 576/1085/478 574/1083/478
f 575/1086/479 577/1088/479 578/1087/479 576/1085/479
f 577/1088/480 579/1090/480 580/1089/480 578/1087/480
f 579/1091/481 581/1094/481 582/1093/481 580/1092/481
f 581/1094/482 583/1096/482 584/1095/482 582/1093/482
f 583/1096/483 585/1098/483 586/1097/483 584/1095/483
f 560/1099/469 562/1114/469 564/1113/469 566/1112/469 568/1111/469 570/1110/469 572/1109/469 574/1108/469 576/1107/469 578/1106/469 580/1105/469 582/1104/469 584/1103/469 586/1102/469 588/1101/469 558/1100/469
f 585/1115/484 587/1118/484 588/1117/484 586/1116/484
f 587/1118/485 557/1064/485 558/1065/485 588/1117/485
f 557/1119/468 587/1134/468 585/1133/468 583/1132/468 581/1131/468 579/1130/468 577/1129/468 575/1128/468 573/1127/468 571/1126/468 569/1125/468 567/1124/468 565/1123/468 563/1122/468 561/1121/468 559/1120/468
o Cylinder.001
v 4.574091 1.052904 -1.664755
v 4.574091 1.052904 -1.563573
v 4.744979 1.086895 -1.664755
v 4.744979 1.086895 -1.563573
v 4.889852 1.183696 -1.664755
v 4.889852 1.183696 -1.563573
v 4.986652 1.328568 -1.664755
v 4.986652 1.328568 -1.563573
v 5.020644 1.499457 -1.664755
v 5.020644 1.499457 -1.563573
v 4.986652 1.670346 -1.664755
v 4.986652 1.670346 -1.563573
v 4.889852 1.815218 -1.664755
v 4.889852 1.815218 -1.563573
v 4.744979 1.912019 -1.664755
v 4.744979 1.912019 -1.563573
v 4.574091 1.946010 -1.664755
v 4.574091 1.946010 -1.563573
v 4.403203 1.912019 -1.664755
v 4.403203 1.912019 -1.563573
v 4.258330 1.815218 -1.664755
v 4.258330 1.815218 -1.563573
v 4.161530 1.670346 -1.664755
v 4.161530 1.670346 -1.563573
v 4.127538 1.499457 -1.664755
v 4.127538 1.499457 -1.563573
v 4.161530 1.328568 -1.664755
v 4.161530 1.328568 -1.563573
v 4.258330 1.183696 -1.664755
v 4.258330 1.183696 -1.563573
v 4.403203 1.086895 -1.664755
v 4.403203 1.086895 -1.563573
v 4.574091 0.973639 -1.664755
v 4.775313 1.013664 -1.664755
v 4.775313 1.013664 -1.563573
v 4.574091 0.973639 -1.563573
v 4.945900 1.127647 -1.664755
v 4.945900 1.127647 -1.563573
v 5.059884 1.298235 -1.664755
v 5.059884 1.298235 -1.563573
v 5.099909 1.499457 -1.664755
v 5.099909 1.499457 -1.563573
v 5.059884 1.700679 -1.664755
v 5.059884 1.700679 -1.563573
v 4.945900 1.871267 -1.664755
v 4.945900 1.871267 -1.563573
v 4.775313 1.985250 -1.664755
v 4.775313 1.985250 -1.563573
v 4.574091 2.025275 -1.664755
v 4.574091 2.025275 -1.563573
v 4.372869 1.985250 -1.664755
v 4.372869 1.985250 -1.563573
v 4.202281 1.871267 -1.664755
v 4.202281 1.871267 -1.563573
v 4.088298 1.700679 -1.664755
v 4.088298 1.700679 -1.563573
v 4.048273 1.499457 -1.664755
v 4.048273 1.499457 -1.563573
v 4.088298 1.298235 -1.664755
v 4.088298 1.298235 -1.563573
v 4.202281 1.127647 -1.664755
v 4.202281 1.127647 -1.563573
v 4.372869 1.013664 -1.664755
v 4.372869 1.013664 -1.563573
vn -0.0000 -1.0000 -0.0000
vn 0.3827 -0.9239 -0.0000
vn 0.7071 -0.7071 -0.0000
vn 0.9239 -0.3827 -0.0000
vn 1.0000 -0.0000 -0.0000
vn 0.9239 0.3827 -0.0000
vn 0.7071 0.7071 -0.0000
vn 0.3827 0.9239 -0.0000
vn -0.0000 1.0000 -0.0000
vn -0.3827 0.9239 -0.0000
vn -0.7071 0.7071 -0.0000
vn -0.9239 0.3827 -0.0000
vn -1.0000 -0.0000 -0.0000
vn -0.9239 -0.3827 -0.0000
vn -0.7071 -0.7071 -0.0000
vn -0.3827 -0.9239 -0.0000
vn -0.0000 -0.0000 -1.0000
vn -0.0000 -0.0000 1.0000
vt 0.742954 0.877218
vt 0.742954 0.762354
vt 0.765363 0.762354
vt 0.765363 0.877218
vt 0.786066 0.762354
vt 0.786066 0.877218
vt 0.828129 0.139362
vt 0.828129 0.024497
vt 0.843974 0.024497
vt 0.843974 0.139362
vt 0.864678 0.024497
vt 0.864678 0.139362
vt 0.887087 0.024497
vt 0.887087 0.139362
vt 0.907790 0.024497
vt 0.907790 0.139362
vt 0.834484 0.254227
vt 0.834484 0.139362
vt 0.850330 0.139362
vt 0.850330 0.254227
vt 0.871033 0.139362
vt 0.871033 0.254227
vt 0.893442 0.139362
vt 0.893442 0.254227
vt 0.914145 0.139362
vt 0.914145 0.254227
vt 0.024557 0.924397
vt 0.024557 0.809532
vt 0.040403 0.809532
vt 0.040403 0.924397
vt 0.061106 0.809532
vt 0.061106 0.924397
vt 0.083515 0.809532
vt 0.083515 0.924397
vt 0.104218 0.809532
vt 0.104218 0.924397
vt 0.152188 0.858164
vt 0.165645 0.858164
vt 0.165645 0.973029
vt 0.152188 0.973029
vt 0.706405 0.877218
vt 0.706405 0.762354
vt 0.722251 0.762354
vt 0.722251 0.877218
vt 0.269911 0.858164
vt 0.287494 0.858164
vt 0.287494 0.973029
vt 0.269911 0.973029
vt 0.385996 0.573869
vt 0.385996 0.592900
vt 0.377504 0.594589
vt 0.377504 0.572180
vt 0.498653 0.592900
vt 0.505936 0.610483
vt 0.498738 0.615293
vt 0.490162 0.594589
vt 0.393278 0.556287
vt 0.386080 0.551477
vt 0.519393 0.623940
vt 0.514583 0.631138
vt 0.406735 0.542830
vt 0.401925 0.535631
vt 0.536976 0.631222
vt 0.535287 0.639714
vt 0.424318 0.535547
vt 0.422629 0.527056
vt 0.556007 0.631222
vt 0.557696 0.639714
vt 0.443349 0.535547
vt 0.445038 0.527056
vt 0.573589 0.623940
vt 0.578399 0.631138
vt 0.460931 0.542830
vt 0.465741 0.535631
vt 0.587046 0.610483
vt 0.594244 0.615293
vt 0.474388 0.556287
vt 0.481587 0.551477
vt 0.594329 0.592900
vt 0.602820 0.594589
vt 0.481671 0.573869
vt 0.490162 0.572180
vt 0.594329 0.573869
vt 0.602820 0.572180
vt 0.481671 0.592900
vt 0.490162 0.594589
vt 0.587046 0.556287
vt 0.594244 0.551477
vt 0.474388 0.610483
vt 0.481587 0.615293
vt 0.573589 0.542830
vt 0.578399 0.535631
vt 0.460931 0.623940
vt 0.465741 0.631138
vt 0.556007 0.535547
vt 0.557696 0.527056
vt 0.443349 0.631222
vt 0.445038 0.639714
vt 0.536976 0.535547
vt 0.535287 0.527056
vt 0.424318 0.631222
vt 0.422629 0.639714
vt 0.519393 0.542830
vt 0.514583 0.535631
vt 0.406735 0.623940
vt 0.401925 0.631138
vt 0.505936 0.556287
vt 0.498738 0.551477
vt 0.393278 0.610483
vt 0.386080 0.615293
vt 0.498653 0.573869
vt 0.490162 0.572180
vt 0.183228 0.858164
vt 0.183228 0.973029
vt 0.202259 0.858164
vt 0.202259 0.973029
vt 0.219841 0.858164
vt 0.219841 0.973029
vt 0.300951 0.858164
vt 0.300951 0.973029
vt 0.318533 0.858164
vt 0.318533 0.973029
vt 0.337564 0.858164
vt 0.337564 0.973029
vt 0.355146 0.858164
vt 0.355146 0.973029
vt 0.921247 0.024497
vt 0.921247 0.139362
vt 0.938829 0.024497
vt 0.938829 0.139362
vt 0.957860 0.024497
vt 0.957860 0.139362
vt 0.975443 0.024497
vt 0.975443 0.139362
vt 0.219841 0.858164
vt 0.233298 0.858164
vt 0.233298 0.973029
vt 0.219841 0.973029
vt 0.250880 0.858164
vt 0.250880 0.973029
s 1
f 621/1135/486 622/1138/487 623/1137/487 624/1136/486
f 622/1138/487 625/1140/488 626/1139/488 623/1137/487
f 625/1141/488 627/1144/489 628/1143/489 626/1142/488
f 627/1144/489 629/1146/490 630/1145/490 628/1143/489
f 629/1146/490 631/1148/491 632/1147/491 630/1145/490
f 631/1148/491 633/1150/492 634/1149/492 632/1147/491
f 633/1151/492 635/1154/493 636/1153/493 634/1152/492
f 635/1154/493 637/1156/494 638/1155/494 636/1153/493
f 637/1156/494 639/1158/495 640/1157/495 638/1155/494
f 639/1158/495 641/1160/496 642/1159/496 640/1157/495
f 641/1161/496 643/1164/497 644/1163/497 642/1162/496
f 643/1164/497 645/1166/498 646/1165/498 644/1163/497
f 645/1166/498 647/1168/499 648/1167/499 646/1165/498
f 647/1168/499 649/1170/500 650/1169/500 648/1167/499
f 620/1171/493 619/1174/493 617/1173/492 618/1172/492
f 649/1175/500 651/1178/501 652/1177/501 650/1176/500
f 651/1178/501 621/1135/486 624/1136/486 652/1177/501
f 590/1179/494 589/1182/494 619/1181/493 620/1180/493
f 591/1183/502 622/1186/502 621/1185/502 589/1184/502
f 590/1187/503 624/1190/503 623/1189/503 592/1188/503
f 593/1191/502 625/1192/502 622/1186/502 591/1183/502
f 592/1188/503 623/1189/503 626/1194/503 594/1193/503
f 595/1195/502 627/1196/502 625/1192/502 593/1191/502
f 594/1193/503 626/1194/503 628/1198/503 596/1197/503
f 597/1199/502 629/1200/502 627/1196/502 595/1195/502
f 596/1197/503 628/1198/503 630/1202/503 598/1201/503
f 599/1203/502 631/1204/502 629/1200/502 597/1199/502
f 598/1201/503 630/1202/503 632/1206/503 600/1205/503
f 601/1207/502 633/1208/502 631/1204/502 599/1203/502
f 600/1205/503 632/1206/503 634/1210/503 602/1209/503
f 603/1211/502 635/1212/502 633/1208/502 601/1207/502
f 602/1209/503 634/1210/503 636/1214/503 604/1213/503
f 605/1215/502 637/1216/502 635/1212/502 603/1211/502
f 604/1213/503 636/1214/503 638/1218/503 606/1217/503
f 607/1219/502 639/1220/502 637/1216/502 605/1215/502
f 606/1217/503 638/1218/503 640/1222/503 608/1221/503
f 609/1223/502 641/1224/502 639/1220/502 607/1219/502
f 608/1221/503 640/1222/503 642/1226/503 610/1225/503
f 611/1227/502 643/1228/502 641/1224/502 609/1223/502
f 610/1225/503 642/1226/503 644/1230/503 612/1229/503
f 613/1231/502 645/1232/502 643/1228/502 611/1227/502
f 612/1229/503 644/1230/503 646/1234/503 614/1233/503
f 615/1235/502 647/1236/502 645/1232/502 613/1231/502
f 614/1233/503 646/1234/503 648/1238/503 616/1237/503
f 617/1239/502 649/1240/502 647/1236/502 615/1235/502
f 616/1237/503 648/1238/503 650/1242/503 618/1241/503
f 619/1243/502 651/1244/502 649/1240/502 617/1239/502
f 618/1241/503 650/1242/503 652/1246/503 620/1245/503
f 589/1184/502 621/1185/502 651/1244/502 619/1243/502
f 620/1245/503 652/1246/503 624/1190/503 590/1187/503
f 618/1172/492 617/1173/492 615/1248/491 616/1247/491
f 616/1247/491 615/1248/491 613/1250/490 614/1249/490
f 614/1249/490 613/1250/490 611/1252/489 612/1251/489
f 612/1180/489 611/1181/489 609/1254/488 610/1253/488
f 610/1253/488 609/1254/488 607/1256/487 608/1255/487
f 608/1255/487 607/1256/487 605/1258/486 606/1257/486
f 606/1257/486 605/1258/486 603/1260/501 604/1259/501
f 604/1149/501 603/1150/501 601/1262/500 602/1261/500
f 602/1261/500 601/1262/500 599/1264/499 600/1263/499
f 600/1263/499 599/1264/499 597/1266/498 598/1265/498
f 598/1265/498 597/1266/498 595/1268/497 596/1267/497
f 596/1269/497 595/1272/497 593/1271/496 594/1270/496
f 594/1270/496 593/1271/496 591/1274/495 592/1273/495
f 592/1273/495 591/1274/495 589/1182/494 590/1179/494
