# Blender 5.0.1
# www.blender.org
mtllib new chars2.mtl
o Cube.001
v 7.530566 2.797176 9.753187
v 7.485925 3.077923 9.883199
v 7.740403 2.797176 9.753187
v 7.800230 3.077923 9.883199
v 7.530566 2.797176 9.570118
v 7.479336 3.095195 9.570118
v 7.740403 2.797176 9.570118
v 7.806819 3.095195 9.570118
v 7.486271 2.955061 9.885310
v 7.799884 2.955061 9.885310
v 7.806459 2.954398 9.570118
v 7.479696 2.954398 9.570118
v 7.507154 2.641099 9.570118
v 7.507154 2.641099 9.741812
v 7.779001 2.641099 9.741812
v 7.779001 2.641099 9.570118
v 7.508535 2.554834 9.570118
v 7.508535 2.554834 9.748431
v 7.777620 2.554834 9.748431
v 7.777620 2.554834 9.570118
v 7.530566 2.797176 9.641928
v 7.806819 3.088803 9.716768
v 7.479336 3.088803 9.716768
v 7.740403 2.797176 9.641928
v 7.479696 2.954398 9.667406
v 7.806459 2.954398 9.667406
v 7.507154 2.641099 9.649285
v 7.779001 2.641099 9.649285
v 7.508535 2.554834 9.652715
v 7.777620 2.554834 9.652715
v 7.614770 1.987793 9.658884
v 7.614770 1.987793 9.692123
v 7.671385 1.987793 9.692123
v 7.671385 1.987793 9.658884
v 7.652246 1.288027 9.647836
v 7.652246 1.288027 9.688593
v 7.692225 1.288027 9.688593
v 7.692225 1.288027 9.647836
v 7.652246 1.247936 9.647836
v 7.652246 1.247936 9.688593
v 7.692225 1.247936 9.688593
v 7.692225 1.247936 9.647836
v 7.573423 1.185751 9.631733
v 7.573423 1.185751 9.704696
v 7.729936 1.185751 9.704696
v 7.729936 1.185751 9.631733
v 7.515903 1.110255 9.598807
v 7.515903 1.110255 9.737621
v 7.770407 1.105193 9.737621
v 7.770407 1.105193 9.598807
v 7.486824 1.094136 9.585054
v 7.486824 1.094136 9.751374
v 7.787844 1.078951 9.751374
v 7.787844 1.078951 9.585054
v 7.515930 0.941636 9.585054
v 7.515930 0.941636 9.751374
v 7.787844 0.941636 9.751374
v 7.787844 0.941636 9.585054
v 7.581710 2.993295 10.170271
v 7.581710 3.069514 10.168901
v 7.704446 3.062064 10.168901
v 7.704446 3.000745 10.170271
v 7.614451 3.001091 10.556030
v 7.614451 3.029696 10.555391
v 7.671705 3.029696 10.555391
v 7.671705 3.001091 10.556030
v 7.625780 3.306111 9.600740
v 7.608483 3.306111 9.570118
v 7.677672 3.306111 9.570118
v 7.660375 3.306111 9.600740
v 7.576217 3.003381 10.591086
v 7.576217 3.050628 10.589548
v 7.712058 3.050628 10.589548
v 7.712058 3.003381 10.591086
v 7.576217 3.005816 10.700127
v 7.576217 3.053062 10.698588
v 7.712058 3.053062 10.698588
v 7.712058 3.005816 10.700127
v 7.597338 2.996356 10.727108
v 7.597338 3.042061 10.726088
v 7.696603 3.042061 10.726088
v 7.696603 2.996356 10.727108
v 7.712058 3.051413 10.624693
v 7.712058 3.004166 10.626231
v 7.576217 3.004166 10.626231
v 7.576217 3.051413 10.624693
v 7.712058 3.052290 10.664013
v 7.576217 3.005044 10.665551
v 7.712058 3.005044 10.665551
v 7.576217 3.052290 10.664013
v 7.480828 3.052290 10.737798
v 7.480828 3.051413 10.698478
v 7.480828 3.004166 10.700016
v 7.480828 3.005044 10.739336
v 7.620264 3.669295 9.615237
v 7.597451 3.669295 9.570118
v 7.688704 3.669295 9.570118
v 7.665891 3.669295 9.615237
v 7.477872 3.353577 9.570118
v 7.439677 3.422948 9.570118
v 7.447973 3.467620 9.570118
v 7.464237 3.536978 9.570118
v 7.522381 3.624509 9.570118
v 7.783108 3.624509 9.570118
v 7.834222 3.536978 9.570118
v 7.850231 3.478405 9.570118
v 7.850231 3.412151 9.570118
v 7.808284 3.353577 9.570118
v 7.713093 3.624509 9.678422
v 7.738649 3.536283 9.713465
v 7.746654 3.479101 9.728598
v 7.746654 3.412151 9.747192
v 7.725680 3.353577 9.725606
v 7.560475 3.353577 9.725606
v 7.539502 3.412151 9.747192
v 7.539502 3.479101 9.728598
v 7.547506 3.536283 9.713465
v 7.573062 3.624509 9.678422
v 7.719456 3.122274 9.570118
v 7.718508 3.119367 9.658007
v 7.566700 3.122274 9.570118
v 7.567647 3.119367 9.658007
v 7.573676 2.509323 9.654424
v 7.573676 2.509323 9.735915
v 7.712479 2.509323 9.735915
v 7.712479 2.509323 9.654424
v 7.786157 2.879613 9.835731
v 7.792156 2.875787 9.570118
v 7.493999 2.875787 9.570118
v 7.499999 2.879613 9.835731
v 7.792156 2.875787 9.655586
v 7.493999 2.875787 9.655586
v 7.663452 3.504591 9.392605
v 7.719351 3.121954 9.579803
v 7.566804 3.121954 9.579803
v 7.775393 3.624509 9.582051
v 7.823691 3.536902 9.585913
v 7.663452 3.404238 9.392605
v 7.838818 3.478481 9.587581
v 7.677158 3.495008 9.366489
v 7.685628 3.469920 9.350350
v 7.685628 3.438909 9.350350
v 7.677158 3.413821 9.366489
v 7.838818 3.412151 9.589629
v 7.799182 3.353577 9.587251
v 7.687724 3.495008 9.375851
v 7.702725 3.469920 9.365496
v 7.702725 3.438909 9.365496
v 7.687724 3.413821 9.375851
v 7.527965 3.624509 9.582051
v 7.473412 3.536902 9.585913
v 7.692729 3.495008 9.389050
v 7.710824 3.469920 9.386852
v 7.710824 3.438909 9.386852
v 7.692729 3.413821 9.389050
v 7.454754 3.467671 9.584903
v 7.447372 3.422948 9.586285
v 7.691028 3.495008 9.403063
v 7.708071 3.469920 9.409527
v 7.708071 3.438909 9.409527
v 7.691028 3.413821 9.403063
v 7.486974 3.353577 9.587251
v 7.686191 3.669295 9.575089
v 7.683009 3.495008 9.414680
v 7.695096 3.469920 9.428325
v 7.695096 3.438909 9.428325
v 7.683009 3.413821 9.414680
v 7.599964 3.669295 9.575089
v 7.675766 3.306111 9.573492
v 7.670510 3.495008 9.421241
v 7.674872 3.469920 9.438939
v 7.674872 3.438909 9.438939
v 7.670510 3.413821 9.421241
v 7.610389 3.306111 9.573492
v 7.508535 2.554834 9.579219
v 7.656394 3.495008 9.421241
v 7.652031 3.469920 9.438939
v 7.652031 3.438909 9.438939
v 7.656394 3.413821 9.421241
v 7.507154 2.641099 9.578841
v 7.806459 2.954398 9.580838
v 7.643894 3.495008 9.414680
v 7.631807 3.469920 9.428325
v 7.631807 3.438909 9.428325
v 7.643894 3.413821 9.414680
v 7.806819 3.094491 9.586277
v 7.530566 2.797176 9.578031
v 7.635875 3.495008 9.403063
v 7.618832 3.469920 9.409527
v 7.618832 3.438909 9.409527
v 7.635875 3.413821 9.403063
v 7.777620 2.554834 9.579219
v 7.779001 2.641099 9.578841
v 7.634173 3.495008 9.389050
v 7.616079 3.469920 9.386852
v 7.616079 3.438909 9.386852
v 7.634173 3.413821 9.389050
v 7.479696 2.954398 9.580838
v 7.740403 2.797176 9.578031
v 7.639179 3.495008 9.375851
v 7.624178 3.469920 9.365496
v 7.624178 3.438909 9.365496
v 7.639179 3.413821 9.375851
v 7.479336 3.094491 9.586277
v 7.539502 3.445626 9.737895
v 7.649745 3.495008 9.366489
v 7.641274 3.469920 9.350350
v 7.641274 3.438909 9.350350
v 7.649745 3.413821 9.366489
v 7.746654 3.445626 9.737895
v 7.850231 3.445278 9.570118
v 7.663452 3.495008 9.363111
v 7.663452 3.469920 9.344884
v 7.663452 3.438909 9.344884
v 7.663452 3.413821 9.363111
v 7.443825 3.445284 9.570118
v 7.792156 2.875787 9.579535
v 7.493999 2.875787 9.579535
v 7.451063 3.445310 9.585594
v 7.838818 3.445316 9.588605
v 7.404170 3.450974 9.570118
v 7.407047 3.466468 9.570118
v 7.406631 3.435479 9.593242
v 7.401293 3.435479 9.570118
v 7.411751 3.466503 9.592284
v 7.409191 3.450991 9.592763
v 7.406672 1.066699 9.599894
v 7.406672 1.066699 9.736535
v 7.406672 0.942498 9.599894
v 7.406672 0.942498 9.736535
v 7.583445 2.797176 9.753187
v 7.565130 3.077923 9.883199
v 7.561862 3.095195 9.570118
v 7.565301 2.955061 9.885310
v 7.575659 2.641099 9.741812
v 7.576344 2.554834 9.748431
v 7.576344 2.554834 9.570118
v 7.576344 2.554834 9.652715
v 7.561862 3.088803 9.716768
v 7.629037 1.987793 9.692123
v 7.629037 1.987793 9.658884
v 7.662321 1.288027 9.688593
v 7.662321 1.288027 9.647836
v 7.662321 1.247936 9.688593
v 7.662321 1.247936 9.647836
v 7.612864 1.185751 9.704696
v 7.612864 1.185751 9.631733
v 7.580038 1.108979 9.737621
v 7.580038 1.108979 9.598807
v 7.562681 1.090310 9.751374
v 7.562681 1.090310 9.585054
v 7.584453 0.941636 9.751374
v 7.584453 0.941636 9.585054
v 7.612639 3.067637 10.168901
v 7.612639 2.995173 10.170271
v 7.628879 3.029696 10.555391
v 7.628879 3.001091 10.556030
v 7.625918 3.306111 9.570118
v 7.634498 3.306111 9.600740
v 7.610448 3.050628 10.589548
v 7.610448 3.003381 10.591086
v 7.610448 3.053062 10.698588
v 7.610448 3.005816 10.700127
v 7.622353 3.042061 10.726088
v 7.622353 2.996356 10.727108
v 7.610448 3.051413 10.624693
v 7.610448 3.004166 10.626231
v 7.610448 3.052290 10.664013
v 7.610448 3.005044 10.665551
v 7.620447 3.669295 9.570118
v 7.631762 3.669295 9.615237
v 7.602107 3.353577 9.725606
v 7.591704 3.412151 9.747192
v 7.591704 3.479101 9.728598
v 7.595674 3.536283 9.713465
v 7.608350 3.624509 9.678422
v 7.561136 3.353577 9.570118
v 7.543137 3.420227 9.570118
v 7.549342 3.470338 9.570118
v 7.557473 3.536978 9.570118
v 7.588084 3.624509 9.570118
v 7.605664 3.119367 9.658007
v 7.605194 3.122274 9.570118
v 7.608654 2.509323 9.654424
v 7.608654 2.509323 9.735915
v 7.572111 2.879613 9.835731
v 7.621694 3.669295 9.570118
v 7.591704 3.445626 9.737895
v 7.546239 3.445282 9.570118
v 7.576344 2.554834 9.579219
v 7.640191 2.797176 9.753187
v 7.650423 3.095195 9.570118
v 7.649175 2.641099 9.741812
v 7.649113 2.554834 9.748431
v 7.650423 3.088803 9.716768
v 7.644348 1.987793 9.692123
v 7.673132 1.288027 9.688593
v 7.673132 1.247936 9.688593
v 7.655190 1.185751 9.704696
v 7.648863 1.107610 9.737621
v 7.644086 1.086203 9.751374
v 7.657986 0.941636 9.751374
v 7.644629 3.306111 9.570118
v 7.643854 3.306111 9.600740
v 7.647184 3.051413 10.624693
v 7.647184 3.052290 10.664013
v 7.645124 3.669295 9.570118
v 7.644101 3.669295 9.615237
v 7.650489 3.353577 9.570118
v 7.654163 3.417307 9.570118
v 7.658125 3.473254 9.570118
v 7.657528 3.536978 9.570118
v 7.658593 3.624509 9.570118
v 7.646504 3.122274 9.570118
v 7.646191 2.509323 9.735915
v 7.645011 3.669295 9.570118
v 7.656144 3.445281 9.570118
v 7.650127 3.077923 9.883199
v 7.650112 2.955061 9.885310
v 7.649113 2.554834 9.570118
v 7.649113 2.554834 9.652715
v 7.644348 1.987793 9.658884
v 7.673132 1.288027 9.647836
v 7.673132 1.247936 9.647836
v 7.655190 1.185751 9.631733
v 7.648863 1.107610 9.598807
v 7.644086 1.086203 9.585054
v 7.657986 0.941636 9.585054
v 7.645831 3.065622 10.168901
v 7.645831 2.997187 10.170271
v 7.644362 3.029696 10.555391
v 7.644362 3.001091 10.556030
v 7.647184 3.050628 10.589548
v 7.647184 3.003381 10.591086
v 7.647184 3.053062 10.698588
v 7.647184 3.005816 10.700127
v 7.649197 3.042061 10.726088
v 7.649197 2.996356 10.727108
v 7.647184 3.004166 10.626231
v 7.647184 3.005044 10.665551
v 7.646783 3.353577 9.725606
v 7.647724 3.412151 9.747192
v 7.647724 3.479101 9.728598
v 7.647365 3.536283 9.713465
v 7.646219 3.624509 9.678422
v 7.646461 3.119367 9.658007
v 7.646191 2.509323 9.654424
v 7.649497 2.879613 9.835731
v 7.647724 3.445626 9.737895
v 7.649113 2.554834 9.579219
v 7.690297 2.797176 9.753187
v 7.728621 3.095195 9.570118
v 7.714088 2.641099 9.741812
v 7.713367 2.554834 9.748431
v 7.728621 3.088803 9.716768
v 7.657866 1.987793 9.692123
v 7.682678 1.288027 9.688593
v 7.682678 1.247936 9.688593
v 7.692563 1.185751 9.704696
v 7.709635 1.106402 9.737621
v 7.715965 1.082577 9.751374
v 7.722915 0.941636 9.751374
v 7.661151 3.306111 9.570118
v 7.652114 3.306111 9.600740
v 7.679621 3.051413 10.624693
v 7.679621 3.052290 10.664013
v 7.666914 3.669295 9.570118
v 7.654996 3.669295 9.615237
v 7.729386 3.353577 9.570118
v 7.752197 3.414729 9.570118
v 7.754178 3.475829 9.570118
v 7.745875 3.536978 9.570118
v 7.720851 3.624509 9.570118
v 7.682980 3.122274 9.570118
v 7.679335 2.509323 9.735915
v 7.665601 3.669295 9.570118
v 7.753187 3.445279 9.570118
v 7.725179 3.077923 9.883199
v 7.724998 2.955061 9.885310
v 7.713367 2.554834 9.570118
v 7.713367 2.554834 9.652715
v 7.657866 1.987793 9.658884
v 7.682678 1.288027 9.647836
v 7.682678 1.247936 9.647836
v 7.692563 1.185751 9.631733
v 7.709635 1.106402 9.598807
v 7.715965 1.082577 9.585054
v 7.722915 0.941636 9.585054
v 7.675138 3.063843 10.168901
v 7.675138 2.998966 10.170271
v 7.658034 3.029696 10.555391
v 7.658034 3.001091 10.556030
v 7.679621 3.050628 10.589548
v 7.679621 3.003381 10.591086
v 7.679621 3.053062 10.698588
v 7.679621 3.005816 10.700127
v 7.672900 3.042061 10.726088
v 7.672900 2.996356 10.727108
v 7.679621 3.004166 10.626231
v 7.679621 3.005044 10.665551
v 7.686232 3.353577 9.725606
v 7.697189 3.412151 9.747192
v 7.697189 3.479101 9.728598
v 7.693007 3.536283 9.713465
v 7.679656 3.624509 9.678422
v 7.682485 3.119367 9.658007
v 7.679335 2.509323 9.654424
v 7.717827 2.879613 9.835731
v 7.697189 3.445626 9.737895
v 7.713367 2.554834 9.579219
v 7.591927 2.999979 10.868627
v 7.591927 3.045683 10.867606
v 7.566913 3.045683 10.867606
v 7.566913 2.999979 10.868627
v 7.639187 2.999979 10.889356
v 7.639187 3.045683 10.888335
v 7.612343 3.045683 10.888335
v 7.612343 2.999979 10.889356
v 7.680065 2.999979 10.889356
v 7.680065 3.045683 10.888335
v 7.656362 3.045683 10.888335
v 7.656362 2.999979 10.889356
v 7.736563 2.999979 10.868627
v 7.736563 3.045683 10.867606
v 7.712860 3.045683 10.867606
v 7.712860 2.999979 10.868627
v 7.530566 2.797176 9.387049
v 7.485925 3.077923 9.257037
v 7.740403 2.797176 9.387049
v 7.800230 3.077923 9.257037
v 7.486271 2.955061 9.254926
v 7.799884 2.955061 9.254926
v 7.507154 2.641099 9.398424
v 7.779001 2.641099 9.398424
v 7.508535 2.554834 9.391805
v 7.777620 2.554834 9.391805
v 7.530566 2.797176 9.498308
v 7.806819 3.088803 9.423468
v 7.479336 3.088803 9.423468
v 7.740403 2.797176 9.498308
v 7.479696 2.954398 9.472830
v 7.806459 2.954398 9.472830
v 7.507154 2.641099 9.490951
v 7.779001 2.641099 9.490951
v 7.508535 2.554834 9.487521
v 7.777620 2.554834 9.487521
v 7.614770 1.987793 9.481352
v 7.614770 1.987793 9.448112
v 7.671385 1.987793 9.448112
v 7.671385 1.987793 9.481352
v 7.652246 1.288027 9.492400
v 7.652246 1.288027 9.451643
v 7.692225 1.288027 9.451643
v 7.692225 1.288027 9.492400
v 7.652246 1.247936 9.492400
v 7.652246 1.247936 9.451643
v 7.692225 1.247936 9.451643
v 7.692225 1.247936 9.492400
v 7.573423 1.185751 9.508503
v 7.573423 1.185751 9.435540
v 7.729936 1.185751 9.435540
v 7.729936 1.185751 9.508503
v 7.515903 1.110255 9.541429
v 7.515903 1.110255 9.402615
v 7.770407 1.105193 9.402615
v 7.770407 1.105193 9.541429
v 7.486824 1.094136 9.555182
v 7.486824 1.094136 9.388862
v 7.787844 1.078951 9.388862
v 7.787844 1.078951 9.555182
v 7.515930 0.941636 9.555182
v 7.515930 0.941636 9.388862
v 7.787844 0.941636 9.388862
v 7.787844 0.941636 9.555182
v 7.581710 2.993295 8.969965
v 7.581710 3.069514 8.971334
v 7.704446 3.062064 8.971334
v 7.704446 3.000745 8.969965
v 7.614451 3.001091 8.584206
v 7.614451 3.029696 8.584845
v 7.671705 3.029696 8.584845
v 7.671705 3.001091 8.584206
v 7.625780 3.306111 9.539495
v 7.660375 3.306111 9.539495
v 7.576217 3.003381 8.549150
v 7.576217 3.050628 8.550688
v 7.712058 3.050628 8.550688
v 7.712058 3.003381 8.549150
v 7.576217 3.005816 8.440109
v 7.576217 3.053062 8.441648
v 7.712058 3.053062 8.441648
v 7.712058 3.005816 8.440109
v 7.597338 2.996356 8.413128
v 7.597338 3.042061 8.414148
v 7.696603 3.042061 8.414148
v 7.696603 2.996356 8.413128
v 7.712058 3.051413 8.515543
v 7.712058 3.004166 8.514005
v 7.576217 3.004166 8.514005
v 7.576217 3.051413 8.515543
v 7.712058 3.052290 8.476223
v 7.576217 3.005044 8.474685
v 7.712058 3.005044 8.474685
v 7.576217 3.052290 8.476223
v 7.480828 3.052290 8.402438
v 7.480828 3.051413 8.441758
v 7.480828 3.004166 8.440220
v 7.480828 3.005044 8.400900
v 7.620264 3.669295 9.524999
v 7.665891 3.669295 9.524999
v 7.713093 3.624509 9.461814
v 7.738649 3.536283 9.426771
v 7.746654 3.479101 9.411638
v 7.746654 3.412151 9.393044
v 7.725680 3.353577 9.414630
v 7.560475 3.353577 9.414630
v 7.539502 3.412151 9.393044
v 7.539502 3.479101 9.411638
v 7.547506 3.536283 9.426771
v 7.573062 3.624509 9.461814
v 7.718508 3.119367 9.482229
v 7.567647 3.119367 9.482229
v 7.573676 2.509323 9.485812
v 7.573676 2.509323 9.404321
v 7.712479 2.509323 9.404321
v 7.712479 2.509323 9.485812
v 7.786157 2.879613 9.304505
v 7.499999 2.879613 9.304505
v 7.792156 2.875787 9.484650
v 7.493999 2.875787 9.484650
v 7.663452 3.504591 9.747631
v 7.719351 3.121954 9.560433
v 7.566804 3.121954 9.560433
v 7.775393 3.624509 9.558185
v 7.823691 3.536902 9.554323
v 7.663452 3.404238 9.747631
v 7.838818 3.478481 9.552655
v 7.677158 3.495008 9.773746
v 7.685628 3.469920 9.789886
v 7.685628 3.438909 9.789886
v 7.677158 3.413821 9.773746
v 7.838818 3.412151 9.550607
v 7.799182 3.353577 9.552985
v 7.687724 3.495008 9.764385
v 7.702725 3.469920 9.774740
v 7.702725 3.438909 9.774740
v 7.687724 3.413821 9.764385
v 7.527965 3.624509 9.558185
v 7.473412 3.536902 9.554323
v 7.692729 3.495008 9.751186
v 7.710824 3.469920 9.753384
v 7.710824 3.438909 9.753384
v 7.692729 3.413821 9.751186
v 7.454754 3.467671 9.555333
v 7.447372 3.422948 9.553951
v 7.691028 3.495008 9.737173
v 7.708071 3.469920 9.730709
v 7.708071 3.438909 9.730709
v 7.691028 3.413821 9.737173
v 7.486974 3.353577 9.552985
v 7.686191 3.669295 9.565146
v 7.683009 3.495008 9.725555
v 7.695096 3.469920 9.711911
v 7.695096 3.438909 9.711911
v 7.683009 3.413821 9.725555
v 7.599964 3.669295 9.565146
v 7.675766 3.306111 9.566744
v 7.670510 3.495008 9.718995
v 7.674872 3.469920 9.701297
v 7.674872 3.438909 9.701297
v 7.670510 3.413821 9.718995
v 7.610389 3.306111 9.566744
v 7.508535 2.554834 9.561017
v 7.656394 3.495008 9.718995
v 7.652031 3.469920 9.701297
v 7.652031 3.438909 9.701297
v 7.656394 3.413821 9.718995
v 7.507154 2.641099 9.561395
v 7.806459 2.954398 9.559398
v 7.643894 3.495008 9.725555
v 7.631807 3.469920 9.711911
v 7.631807 3.438909 9.711911
v 7.643894 3.413821 9.725555
v 7.806819 3.094491 9.553959
v 7.530566 2.797176 9.562205
v 7.635875 3.495008 9.737173
v 7.618832 3.469920 9.730709
v 7.618832 3.438909 9.730709
v 7.635875 3.413821 9.737173
v 7.777620 2.554834 9.561017
v 7.779001 2.641099 9.561395
v 7.634173 3.495008 9.751186
v 7.616079 3.469920 9.753384
v 7.616079 3.438909 9.753384
v 7.634173 3.413821 9.751186
v 7.479696 2.954398 9.559398
v 7.740403 2.797176 9.562205
v 7.639179 3.495008 9.764385
v 7.624178 3.469920 9.774740
v 7.624178 3.438909 9.774740
v 7.639179 3.413821 9.764385
v 7.479336 3.094491 9.553959
v 7.539502 3.445626 9.402341
v 7.649745 3.495008 9.773746
v 7.641274 3.469920 9.789886
v 7.641274 3.438909 9.789886
v 7.649745 3.413821 9.773746
v 7.746654 3.445626 9.402341
v 7.663452 3.495008 9.777124
v 7.663452 3.469920 9.795352
v 7.663452 3.438909 9.795352
v 7.663452 3.413821 9.777124
v 7.792156 2.875787 9.560700
v 7.493999 2.875787 9.560700
v 7.451063 3.445310 9.554642
v 7.838818 3.445316 9.551631
v 7.406631 3.435479 9.546994
v 7.411751 3.466503 9.547952
v 7.409191 3.450991 9.547473
v 7.406672 1.066699 9.540342
v 7.406672 1.066699 9.403701
v 7.406672 0.942498 9.540342
v 7.406672 0.942498 9.403701
v 7.583445 2.797176 9.387049
v 7.565130 3.077923 9.257037
v 7.565301 2.955061 9.254926
v 7.575659 2.641099 9.398424
v 7.576344 2.554834 9.391805
v 7.576344 2.554834 9.487521
v 7.561862 3.088803 9.423468
v 7.629037 1.987793 9.448112
v 7.629037 1.987793 9.481352
v 7.662321 1.288027 9.451643
v 7.662321 1.288027 9.492400
v 7.662321 1.247936 9.451643
v 7.662321 1.247936 9.492400
v 7.612864 1.185751 9.435540
v 7.612864 1.185751 9.508503
v 7.580038 1.108979 9.402615
v 7.580038 1.108979 9.541429
v 7.562681 1.090310 9.388862
v 7.562681 1.090310 9.555182
v 7.584453 0.941636 9.388862
v 7.584453 0.941636 9.555182
v 7.612639 3.067637 8.971334
v 7.612639 2.995173 8.969965
v 7.628879 3.029696 8.584845
v 7.628879 3.001091 8.584206
v 7.634498 3.306111 9.539495
v 7.610448 3.050628 8.550688
v 7.610448 3.003381 8.549150
v 7.610448 3.053062 8.441648
v 7.610448 3.005816 8.440109
v 7.622353 3.042061 8.414148
v 7.622353 2.996356 8.413128
v 7.610448 3.051413 8.515543
v 7.610448 3.004166 8.514005
v 7.610448 3.052290 8.476223
v 7.610448 3.005044 8.474685
v 7.631762 3.669295 9.524999
v 7.602107 3.353577 9.414630
v 7.591704 3.412151 9.393044
v 7.591704 3.479101 9.411638
v 7.595674 3.536283 9.426771
v 7.608350 3.624509 9.461814
v 7.605664 3.119367 9.482229
v 7.608654 2.509323 9.485812
v 7.608654 2.509323 9.404321
v 7.572111 2.879613 9.304505
v 7.591704 3.445626 9.402341
v 7.576344 2.554834 9.561017
v 7.640191 2.797176 9.387049
v 7.649175 2.641099 9.398424
v 7.649113 2.554834 9.391805
v 7.650423 3.088803 9.423468
v 7.644348 1.987793 9.448112
v 7.673132 1.288027 9.451643
v 7.673132 1.247936 9.451643
v 7.655190 1.185751 9.435540
v 7.648863 1.107610 9.402615
v 7.644086 1.086203 9.388862
v 7.657986 0.941636 9.388862
v 7.643854 3.306111 9.539495
v 7.647184 3.051413 8.515543
v 7.647184 3.052290 8.476223
v 7.644101 3.669295 9.524999
v 7.646191 2.509323 9.404321
v 7.650127 3.077923 9.257037
v 7.650112 2.955061 9.254926
v 7.649113 2.554834 9.487521
v 7.644348 1.987793 9.481352
v 7.673132 1.288027 9.492400
v 7.673132 1.247936 9.492400
v 7.655190 1.185751 9.508503
v 7.648863 1.107610 9.541429
v 7.644086 1.086203 9.555182
v 7.657986 0.941636 9.555182
v 7.645831 3.065622 8.971334
v 7.645831 2.997187 8.969965
v 7.644362 3.029696 8.584845
v 7.644362 3.001091 8.584206
v 7.647184 3.050628 8.550688
v 7.647184 3.003381 8.549150
v 7.647184 3.053062 8.441648
v 7.647184 3.005816 8.440109
v 7.649197 3.042061 8.414148
v 7.649197 2.996356 8.413128
v 7.647184 3.004166 8.514005
v 7.647184 3.005044 8.474685
v 7.646783 3.353577 9.414630
v 7.647724 3.412151 9.393044
v 7.647724 3.479101 9.411638
v 7.647365 3.536283 9.426771
v 7.646219 3.624509 9.461814
v 7.646461 3.119367 9.482229
v 7.646191 2.509323 9.485812
v 7.649497 2.879613 9.304505
v 7.647724 3.445626 9.402341
v 7.649113 2.554834 9.561017
v 7.690297 2.797176 9.387049
v 7.714088 2.641099 9.398424
v 7.713367 2.554834 9.391805
v 7.728621 3.088803 9.423468
v 7.657866 1.987793 9.448112
v 7.682678 1.288027 9.451643
v 7.682678 1.247936 9.451643
v 7.692563 1.185751 9.435540
v 7.709635 1.106402 9.402615
v 7.715965 1.082577 9.388862
v 7.722915 0.941636 9.388862
v 7.652114 3.306111 9.539495
v 7.679621 3.051413 8.515543
v 7.679621 3.052290 8.476223
v 7.654996 3.669295 9.524999
v 7.679335 2.509323 9.404321
v 7.725179 3.077923 9.257037
v 7.724998 2.955061 9.254926
v 7.713367 2.554834 9.487521
v 7.657866 1.987793 9.481352
v 7.682678 1.288027 9.492400
v 7.682678 1.247936 9.492400
v 7.692563 1.185751 9.508503
v 7.709635 1.106402 9.541429
v 7.715965 1.082577 9.555182
v 7.722915 0.941636 9.555182
v 7.675138 3.063843 8.971334
v 7.675138 2.998966 8.969965
v 7.658034 3.029696 8.584845
v 7.658034 3.001091 8.584206
v 7.679621 3.050628 8.550688
v 7.679621 3.003381 8.549150
v 7.679621 3.053062 8.441648
v 7.679621 3.005816 8.440109
v 7.672900 3.042061 8.414148
v 7.672900 2.996356 8.413128
v 7.679621 3.004166 8.514005
v 7.679621 3.005044 8.474685
v 7.686232 3.353577 9.414630
v 7.697189 3.412151 9.393044
v 7.697189 3.479101 9.411638
v 7.693007 3.536283 9.426771
v 7.679656 3.624509 9.461814
v 7.682485 3.119367 9.482229
v 7.679335 2.509323 9.485812
v 7.717827 2.879613 9.304505
v 7.697189 3.445626 9.402341
v 7.713367 2.554834 9.561017
v 7.591927 2.999979 8.271609
v 7.591927 3.045683 8.272630
v 7.566913 3.045683 8.272630
v 7.566913 2.999979 8.271609
v 7.639187 2.999979 8.250880
v 7.639187 3.045683 8.251901
v 7.612343 3.045683 8.251901
v 7.612343 2.999979 8.250880
v 7.680065 2.999979 8.250880
v 7.680065 3.045683 8.251901
v 7.656362 3.045683 8.251901
v 7.656362 2.999979 8.250880
v 7.736563 2.999979 8.271609
v 7.736563 3.045683 8.272630
v 7.712860 3.045683 8.272630
v 7.712860 2.999979 8.271609
vn 0.9994 -0.0090 0.0340
vn -0.9482 0.0039 0.3175
vn 0.9708 0.2401 -0.0000
vn -0.0000 0.9979 0.0652
vn -1.0000 -0.0026 -0.0001
vn -0.9838 -0.1790 -0.0000
vn -0.0000 -0.5492 0.8357
vn 0.9809 -0.1917 0.0331
vn -0.0000 0.0765 0.9971
vn -0.0000 -0.0727 0.9974
vn -0.9889 0.1483 -0.0000
vn -0.9969 -0.0786 -0.0000
vn 0.9999 -0.0160 -0.0000
vn -0.9999 -0.0160 -0.0000
vn -0.0000 -1.0000 -0.0000
vn 0.9838 -0.1790 -0.0000
vn -0.9809 -0.1917 0.0331
vn -0.9994 -0.0090 0.0340
vn 0.9620 0.2258 0.1536
vn 1.0000 -0.0026 -0.0001
vn 0.9996 0.0298 -0.0000
vn 0.9969 -0.0786 -0.0000
vn -0.0000 -0.0837 0.9965
vn -0.0000 -0.0086 -1.0000
vn -0.0000 -0.0000 -1.0000
vn -0.9986 -0.0535 -0.0000
vn -0.0000 0.0158 -0.9999
vn -0.0000 -0.0050 1.0000
vn -0.0000 0.2507 -0.9681
vn -0.0000 -0.0000 1.0000
vn 1.0000 -0.0000 -0.0000
vn -1.0000 -0.0000 -0.0000
vn 0.0047 0.3822 -0.9241
vn -0.0000 0.2507 0.9681
vn 0.8551 0.5185 -0.0000
vn -0.6194 0.7851 -0.0000
vn 0.8329 0.5534 -0.0000
vn 0.0049 0.3945 0.9189
vn 0.8936 0.4489 -0.0000
vn -0.7954 0.6060 -0.0000
vn -0.4848 0.8746 -0.0000
vn 0.0178 0.4879 -0.8727
vn 0.0219 0.6019 0.7983
vn -0.1526 -0.0161 -0.9882
vn 0.9964 0.0019 0.0846
vn 0.0169 -0.9871 0.1595
vn 0.9482 0.0042 0.3175
vn 0.0170 0.9995 0.0284
vn -0.6744 -0.0212 -0.7380
vn -0.9964 0.0016 0.0846
vn 0.0414 -0.9991 0.0059
vn 0.0412 0.9944 0.0974
vn -0.9461 0.2856 0.1527
vn -0.0000 0.2932 0.9561
vn -0.0000 -0.9979 0.0652
vn -0.0000 0.8526 -0.5225
vn 0.6544 -0.0217 -0.7558
vn -0.0000 -0.9437 -0.3309
vn -0.0000 -0.9998 0.0223
vn -0.0000 0.9998 -0.0223
vn -0.0000 0.9285 0.3715
vn 0.8675 0.0137 0.4973
vn -0.7870 0.0170 0.6167
vn 0.0173 -0.9996 0.0223
vn -0.0173 0.9996 -0.0223
vn 0.6116 0.0258 0.7907
vn -0.6116 -0.0258 -0.7907
vn -0.0000 1.0000 -0.0000
vn 0.4166 0.8735 0.2520
vn -0.4915 0.8385 0.2354
vn -0.0000 0.8158 0.5783
vn -0.0000 -0.9347 0.3553
vn -0.0000 -0.3458 0.9383
vn -0.0000 0.2676 0.9635
vn -0.0000 0.2559 0.9667
vn -0.0000 0.3691 0.9294
vn -0.3339 -0.9254 0.1792
vn -0.7912 -0.4426 0.4219
vn -0.8565 0.1452 0.4954
vn -0.8434 0.2320 0.4846
vn -0.7871 0.4516 0.4202
vn 0.3358 -0.9245 0.1802
vn 0.7424 -0.5255 0.4156
vn 0.8442 0.0083 0.5360
vn 0.8134 0.2241 0.5367
vn 0.7508 0.4371 0.4952
vn -0.0000 0.8872 0.4614
vn -0.3002 0.9531 0.0390
vn 0.2963 0.9543 0.0390
vn -0.0000 -0.0375 -0.9993
vn -0.0000 -0.2652 0.9642
vn 0.5727 -0.8197 -0.0000
vn -0.5727 -0.8197 -0.0000
vn -0.9176 -0.3969 0.0241
vn 0.8352 -0.5499 -0.0000
vn 0.8486 -0.5284 0.0244
vn -0.0000 -0.7076 0.7067
vn -0.9067 -0.4218 -0.0000
vn 0.0759 -0.9483 -0.3081
vn 0.2393 -0.0000 -0.9709
vn 0.0759 0.9483 -0.3081
vn 0.1956 -0.5764 -0.7934
vn 0.1956 0.5764 -0.7934
vn 0.5419 -0.5764 -0.6116
vn 0.5419 0.5764 -0.6116
vn 0.2104 -0.9483 -0.2375
vn 0.6631 -0.0000 -0.7485
vn 0.2104 0.9483 -0.2375
vn 0.7640 -0.5764 -0.2898
vn 0.7640 0.5764 -0.2898
vn 0.2967 -0.9483 -0.1125
vn 0.9350 -0.0000 -0.3546
vn 0.2967 0.9483 -0.1125
vn 0.8112 -0.5764 0.0985
vn 0.8112 0.5764 0.0985
vn 0.3150 -0.9483 0.0382
vn 0.9927 -0.0000 0.1205
vn 0.3150 0.9483 0.0382
vn 0.6725 -0.5764 0.4642
vn 0.6725 0.5764 0.4642
vn 0.2612 -0.9483 0.1803
vn 0.8230 -0.0000 0.5681
vn 0.2612 0.9483 0.1803
vn 0.3797 -0.5764 0.7235
vn 0.3797 0.5764 0.7235
vn 0.1475 -0.9483 0.2810
vn 0.4647 -0.0000 0.8855
vn 0.1475 0.9483 0.2810
vn -0.0000 -0.5764 0.8171
vn -0.0000 0.5764 0.8171
vn -0.0000 -0.9483 0.3173
vn -0.0000 0.9483 0.3173
vn -0.3797 -0.5764 0.7235
vn -0.3797 0.5764 0.7235
vn -0.1475 -0.9483 0.2810
vn -0.4647 -0.0000 0.8855
vn -0.1475 0.9483 0.2810
vn -0.6725 -0.5764 0.4642
vn -0.6725 0.5764 0.4642
vn -0.2612 -0.9483 0.1803
vn -0.8230 -0.0000 0.5681
vn -0.2612 0.9483 0.1803
vn -0.8112 -0.5764 0.0985
vn -0.8112 0.5764 0.0985
vn -0.3150 -0.9483 0.0383
vn -0.9927 -0.0000 0.1205
vn -0.3150 0.9483 0.0382
vn -0.7640 -0.5764 -0.2898
vn -0.7640 0.5764 -0.2898
vn -0.2967 -0.9483 -0.1125
vn -0.9350 -0.0000 -0.3546
vn -0.2967 0.9483 -0.1125
vn -0.5419 -0.5764 -0.6116
vn -0.5419 0.5764 -0.6116
vn -0.2104 -0.9483 -0.2375
vn -0.6631 -0.0000 -0.7485
vn -0.2104 0.9483 -0.2375
vn -0.1956 -0.5764 -0.7934
vn -0.1956 0.5764 -0.7934
vn -0.0759 -0.9483 -0.3081
vn -0.2393 -0.0000 -0.9709
vn -0.0759 0.9483 -0.3081
vn 0.8572 0.0080 0.5149
vn -0.8550 0.1456 0.4978
vn -0.0271 0.9996 0.0061
vn 0.8546 0.0795 0.5132
vn 0.3002 0.9531 0.0390
vn -0.2963 0.9543 0.0390
vn 0.7548 0.4272 0.4978
vn 0.8103 0.2398 0.5347
vn 0.8414 0.0827 0.5340
vn 0.7641 -0.4828 0.4278
vn 0.3339 -0.9254 0.1792
vn -0.7637 0.5004 0.4079
vn -0.8658 0.2149 0.4519
vn -0.7994 -0.4454 0.4032
vn -0.3358 -0.9245 0.1802
vn -0.4970 0.8345 0.2381
vn 0.4322 0.8630 0.2615
vn -0.9620 0.2258 0.1536
vn 0.9461 0.2856 0.1527
vn -0.9608 0.1719 0.2174
vn -0.9627 0.1721 0.2087
vn 0.1691 0.0025 0.9856
vn -0.2928 -0.9512 0.0971
vn -0.3239 0.9461 -0.0000
vn -0.1526 -0.0161 0.9882
vn -0.0079 -1.0000 -0.0000
vn 0.0412 0.9947 0.0943
vn 0.0413 -0.9990 0.0151
vn 0.0170 0.9991 0.0382
vn 0.0169 -0.9911 0.1320
vn 0.0203 0.5581 0.8295
vn 0.0219 0.6019 -0.7983
vn 0.0048 0.3902 0.9207
vn 0.0049 0.3945 -0.9189
vn 0.0048 0.3860 0.9225
vn 0.0190 0.5200 0.8540
vn 0.0170 0.9987 0.0477
vn 0.0412 0.9950 0.0912
vn 0.0413 -0.9991 0.0119
vn 0.0169 -0.9898 0.1415
vn 0.0203 0.5581 -0.8295
vn 0.0048 0.3902 -0.9207
vn 0.0412 0.9952 0.0883
vn 0.0170 0.9982 0.0566
vn 0.0178 0.4879 0.8727
vn 0.0047 0.3822 0.9241
vn 0.0414 -0.9991 0.0088
vn 0.0169 -0.9884 0.1508
vn 0.0190 0.5200 -0.8540
vn 0.0048 0.3860 -0.9225
vn -0.0000 0.0223 0.9998
vn 0.9777 0.0047 0.2101
vn -0.0000 0.9997 -0.0256
vn -0.9777 -0.0047 -0.2101
vn -0.0000 -0.9997 0.0256
vn 0.9981 0.0014 0.0615
vn -0.9981 -0.0014 -0.0615
vn 0.9990 -0.0010 -0.0441
vn -0.9990 0.0010 0.0441
vn 0.9624 -0.0061 -0.2716
vn -0.9624 0.0061 0.2716
vn 0.9994 -0.0090 -0.0340
vn -0.9482 0.0039 -0.3175
vn -0.0000 0.9979 -0.0652
vn -1.0000 -0.0026 0.0001
vn -0.0000 -0.5492 -0.8357
vn 0.9809 -0.1917 -0.0331
vn -0.0000 0.0765 -0.9971
vn -0.0000 -0.0727 -0.9974
vn -0.9809 -0.1917 -0.0331
vn -0.9994 -0.0090 -0.0340
vn 0.9620 0.2258 -0.1536
vn 1.0000 -0.0026 0.0001
vn -0.0000 -0.0837 -0.9965
vn -0.0000 -0.0086 1.0000
vn -0.0000 0.0158 0.9999
vn -0.0000 -0.0050 -1.0000
vn 0.9964 0.0019 -0.0846
vn 0.0169 -0.9871 -0.1595
vn 0.9482 0.0042 -0.3175
vn 0.0170 0.9995 -0.0284
vn -0.6744 -0.0212 0.7380
vn -0.9964 0.0016 -0.0846
vn 0.0414 -0.9991 -0.0059
vn 0.0412 0.9944 -0.0974
vn -0.9461 0.2856 -0.1527
vn -0.0000 0.2932 -0.9561
vn -0.0000 -0.9979 -0.0652
vn -0.0000 0.8526 0.5225
vn 0.6544 -0.0217 0.7558
vn -0.0000 -0.9437 0.3309
vn -0.0000 -0.9998 -0.0223
vn -0.0000 0.9998 0.0223
vn -0.0000 0.9285 -0.3715
vn 0.8675 0.0137 -0.4973
vn -0.7870 0.0170 -0.6167
vn 0.0173 -0.9996 -0.0223
vn -0.0173 0.9996 0.0223
vn 0.6116 0.0258 -0.7907
vn -0.6116 -0.0258 0.7907
vn 0.4166 0.8735 -0.2520
vn -0.4915 0.8385 -0.2354
vn -0.0000 0.8158 -0.5783
vn -0.0000 -0.9347 -0.3553
vn -0.0000 -0.3458 -0.9383
vn -0.0000 0.2676 -0.9635
vn -0.0000 0.2559 -0.9667
vn -0.0000 0.3691 -0.9294
vn -0.3339 -0.9254 -0.1792
vn -0.7912 -0.4426 -0.4219
vn -0.8565 0.1452 -0.4954
vn -0.8434 0.2320 -0.4846
vn -0.7871 0.4516 -0.4202
vn 0.3358 -0.9245 -0.1802
vn 0.7424 -0.5255 -0.4156
vn 0.8442 0.0083 -0.5360
vn 0.8134 0.2241 -0.5367
vn 0.7508 0.4371 -0.4952
vn -0.0000 0.8872 -0.4614
vn -0.3002 0.9531 -0.0390
vn 0.2963 0.9543 -0.0390
vn -0.0000 -0.0375 0.9993
vn -0.0000 -0.2652 -0.9642
vn -0.9176 -0.3969 -0.0241
vn 0.8486 -0.5284 -0.0244
vn -0.0000 -0.7076 -0.7067
vn 0.0759 -0.9483 0.3081
vn 0.2393 -0.0000 0.9709
vn 0.0759 0.9483 0.3081
vn 0.1956 -0.5764 0.7934
vn 0.1956 0.5764 0.7934
vn 0.5419 -0.5764 0.6116
vn 0.5419 0.5764 0.6116
vn 0.2104 -0.9483 0.2375
vn 0.6631 -0.0000 0.7485
vn 0.2104 0.9483 0.2375
vn 0.7640 -0.5764 0.2898
vn 0.7640 0.5764 0.2898
vn 0.2967 -0.9483 0.1125
vn 0.9350 -0.0000 0.3546
vn 0.2967 0.9483 0.1125
vn 0.8112 -0.5764 -0.0985
vn 0.8112 0.5764 -0.0985
vn 0.3150 -0.9483 -0.0382
vn 0.9927 -0.0000 -0.1205
vn 0.3150 0.9483 -0.0382
vn 0.6725 -0.5764 -0.4642
vn 0.6725 0.5764 -0.4642
vn 0.2612 -0.9483 -0.1803
vn 0.8230 -0.0000 -0.5681
vn 0.2612 0.9483 -0.1803
vn 0.3797 -0.5764 -0.7235
vn 0.3797 0.5764 -0.7235
vn 0.1475 -0.9483 -0.2810
vn 0.4647 -0.0000 -0.8855
vn 0.1475 0.9483 -0.2810
vn -0.0000 -0.5764 -0.8171
vn -0.0000 0.5764 -0.8171
vn -0.0000 -0.9483 -0.3173
vn -0.0000 0.9483 -0.3173
vn -0.3797 -0.5764 -0.7235
vn -0.3797 0.5764 -0.7235
vn -0.1475 -0.9483 -0.2810
vn -0.4647 -0.0000 -0.8855
vn -0.1475 0.9483 -0.2810
vn -0.6725 -0.5764 -0.4642
vn -0.6725 0.5764 -0.4642
vn -0.2612 -0.9483 -0.1803
vn -0.8230 -0.0000 -0.5681
vn -0.2612 0.9483 -0.1803
vn -0.8112 -0.5764 -0.0985
vn -0.8112 0.5764 -0.0985
vn -0.3150 -0.9483 -0.0383
vn -0.9927 -0.0000 -0.1205
vn -0.3150 0.9483 -0.0382
vn -0.7640 -0.5764 0.2898
vn -0.7640 0.5764 0.2898
vn -0.2967 -0.9483 0.1125
vn -0.9350 -0.0000 0.3546
vn -0.2967 0.9483 0.1125
vn -0.5419 -0.5764 0.6116
vn -0.5419 0.5764 0.6116
vn -0.2104 -0.9483 0.2375
vn -0.6631 -0.0000 0.7485
vn -0.2104 0.9483 0.2375
vn -0.1956 -0.5764 0.7934
vn -0.1956 0.5764 0.7934
vn -0.0759 -0.9483 0.3081
vn -0.2393 -0.0000 0.9709
vn -0.0759 0.9483 0.3081
vn 0.8572 0.0080 -0.5149
vn -0.8550 0.1456 -0.4978
vn -0.0271 0.9996 -0.0061
vn 0.8546 0.0795 -0.5132
vn 0.3002 0.9531 -0.0390
vn -0.2963 0.9543 -0.0390
vn 0.7548 0.4272 -0.4978
vn 0.8103 0.2398 -0.5347
vn 0.8414 0.0827 -0.5340
vn 0.7641 -0.4828 -0.4278
vn 0.3339 -0.9254 -0.1792
vn -0.7637 0.5004 -0.4079
vn -0.8658 0.2149 -0.4519
vn -0.7994 -0.4454 -0.4032
vn -0.3358 -0.9245 -0.1802
vn -0.4970 0.8345 -0.2381
vn 0.4322 0.8630 -0.2615
vn -0.9620 0.2258 -0.1536
vn 0.9461 0.2856 -0.1527
vn -0.9608 0.1719 -0.2174
vn -0.9627 0.1721 -0.2087
vn 0.1691 0.0025 -0.9856
vn -0.2928 -0.9512 -0.0971
vn 0.0412 0.9947 -0.0943
vn 0.0413 -0.9990 -0.0151
vn 0.0170 0.9991 -0.0382
vn 0.0169 -0.9911 -0.1320
vn 0.0170 0.9987 -0.0477
vn 0.0412 0.9950 -0.0912
vn 0.0413 -0.9991 -0.0119
vn 0.0169 -0.9898 -0.1415
vn 0.0412 0.9952 -0.0883
vn 0.0170 0.9982 -0.0566
vn 0.0414 -0.9991 -0.0088
vn 0.0169 -0.9884 -0.1508
vn -0.0000 0.0223 -0.9998
vn 0.9777 0.0047 -0.2101
vn -0.0000 0.9997 0.0256
vn -0.9777 -0.0047 0.2101
vn -0.0000 -0.9997 -0.0256
vn 0.9981 0.0014 -0.0615
vn -0.9981 -0.0014 0.0615
vn 0.9990 -0.0010 0.0441
vn -0.9990 0.0010 -0.0441
vn 0.9624 -0.0061 0.2716
vn -0.9624 0.0061 -0.2716
vt 0.066617 0.424792
vt 0.002888 0.401462
vt 0.007975 0.322568
vt 0.066186 0.321569
vt 0.504586 0.320573
vt 0.446362 0.319572
vt 0.463631 0.183221
vt 0.499748 0.183866
vt 0.142047 0.434499
vt 0.141941 0.381914
vt 0.215359 0.388678
vt 0.215447 0.432409
vt 0.756327 0.069852
vt 0.795419 0.070439
vt 0.792238 0.142314
vt 0.754720 0.141750
vt 0.446035 0.463913
vt 0.512426 0.461336
vt 0.512756 0.468991
vt 0.446032 0.468991
vt 0.408645 0.464331
vt 0.408642 0.468792
vt 0.748194 0.469938
vt 0.751479 0.432841
vt 0.788937 0.432841
vt 0.782373 0.469938
vt 0.104070 0.429877
vt 0.102169 0.344521
vt 0.746411 0.585440
vt 0.778881 0.585440
vt 0.778241 0.626068
vt 0.746101 0.626068
vt 0.742724 0.511274
vt 0.767787 0.511274
vt 0.371040 0.464530
vt 0.371038 0.468279
vt 0.297303 0.468615
vt 0.297305 0.464482
vt 0.922878 -0.000000
vt 0.961485 0.000157
vt 0.957932 0.247681
vt 0.942185 0.247617
vt 0.256241 0.385508
vt 0.256332 0.430747
vt 0.256411 0.468599
vt 0.256413 0.464287
vt 0.297346 0.387273
vt 0.297323 0.431108
vt 0.256432 0.429467
vt 0.256456 0.384121
vt 0.215514 0.465703
vt 0.256402 0.465483
vt 0.747477 0.882937
vt 0.747477 0.913391
vt 0.712651 0.913390
vt 0.712651 0.882936
vt 0.371084 0.381548
vt 0.371056 0.434258
vt 0.104143 0.465822
vt 0.066699 0.465708
vt 0.410464 0.342870
vt 0.446057 0.422900
vt 0.408664 0.428300
vt 0.509764 0.399514
vt 0.361509 0.872979
vt 0.356927 0.872915
vt 0.356927 0.786387
vt 0.358589 0.786382
vt 0.142108 0.464700
vt 0.000318 0.463137
vt 0.966079 0.247878
vt 0.981788 0.247778
vt 0.980748 0.579025
vt 0.961485 0.579148
vt 0.961485 0.000244
vt 1.000000 0.000000
vt 0.592828 0.021887
vt 0.609406 0.021887
vt 0.589913 0.269875
vt 0.583151 0.269875
vt 0.876761 0.017655
vt 0.892461 0.017655
vt 0.877807 0.223869
vt 0.871404 0.223869
vt 0.889374 0.504952
vt 0.893896 0.504952
vt 0.894261 0.520892
vt 0.889739 0.520893
vt 0.961485 0.579661
vt 0.942176 0.579582
vt 0.572199 0.601054
vt 0.567424 0.601054
vt 0.640294 0.749783
vt 0.640294 0.754305
vt 0.611414 0.772508
vt 0.611414 0.754805
vt 0.572202 0.620022
vt 0.567427 0.620022
vt 0.980826 0.598019
vt 0.961564 0.598141
vt 0.961419 0.598659
vt 0.942110 0.598580
vt 0.570889 0.791950
vt 0.571370 0.763152
vt 0.826042 0.838152
vt 0.826137 0.833378
vt 0.855840 0.796576
vt 0.855469 0.815266
vt 0.858834 0.626110
vt 0.878097 0.626067
vt 0.884367 0.654988
vt 0.849882 0.655064
vt 0.768785 0.848706
vt 0.785416 0.845109
vt 0.785416 0.882244
vt 0.755644 0.888682
vt 0.832881 0.692701
vt 0.898489 0.692556
vt 0.904370 0.704732
vt 0.825761 0.704906
vt 0.891164 0.769961
vt 0.891164 0.800365
vt 0.537529 0.816271
vt 0.537529 0.850838
vt 0.502309 0.867270
vt 0.502309 0.801506
vt 0.558348 0.766175
vt 0.556907 0.800255
vt 0.502309 0.801506
vt 0.502309 0.770750
vt 0.815459 0.677189
vt 0.757508 0.677052
vt 0.755644 0.663544
vt 0.825078 0.663708
vt 0.815165 0.707589
vt 0.825250 0.699704
vt 0.483867 0.618884
vt 0.483867 0.649658
vt 0.405055 0.649656
vt 0.405055 0.618882
vt 0.244391 0.577493
vt 0.246203 0.613447
vt 0.174050 0.599668
vt 0.174048 0.567190
vt 0.904370 0.769787
vt 0.825761 0.769961
vt 0.562945 0.657531
vt 0.502309 0.672706
vt 0.506480 0.621153
vt 0.555864 0.620022
vt 0.045598 0.183488
vt 0.016548 0.184130
vt 0.031969 0.000299
vt 0.045521 0.000000
vt 0.369561 0.468991
vt 0.405055 0.468991
vt 0.359797 0.603545
vt 0.345907 0.603564
vt 0.746932 0.262792
vt 0.732251 0.262993
vt 0.492909 0.801044
vt 0.479358 0.801506
vt 0.479915 0.785380
vt 0.502309 0.784846
vt 0.467106 0.000000
vt 0.480661 0.000302
vt 0.344275 0.786337
vt 0.337795 0.786337
vt 0.731047 0.432841
vt 0.724213 0.432738
vt 0.114358 0.494529
vt 0.094250 0.470774
vt 0.130552 0.486099
vt 0.137590 0.494412
vt 0.658528 0.858947
vt 0.640294 0.858947
vt 0.658412 0.785852
vt 0.666670 0.785852
vt 0.352336 0.873169
vt 0.315267 0.874129
vt 0.342174 0.786394
vt 0.355301 0.786343
vt 0.806011 0.626067
vt 0.788937 0.626067
vt 0.816404 0.539332
vt 0.820319 0.539332
vt 0.487014 0.505698
vt 0.509353 0.504128
vt 0.510370 0.520443
vt 0.488031 0.522013
vt 0.731597 0.627884
vt 0.738052 0.628454
vt 0.755644 0.646659
vt 0.740329 0.645307
vt 0.548738 0.826162
vt 0.548738 0.819328
vt 0.565872 0.801506
vt 0.565872 0.817720
vt 0.537529 0.846717
vt 0.548738 0.846448
vt 0.565872 0.865850
vt 0.547484 0.866302
vt 0.735785 0.696751
vt 0.751100 0.698103
vt 0.742674 0.710293
vt 0.731483 0.709305
vt 0.116374 0.645622
vt 0.138712 0.647290
vt 0.137650 0.663641
vt 0.115311 0.661973
vt 0.737226 0.680439
vt 0.752541 0.681791
vt 0.051053 0.677524
vt 0.067214 0.676182
vt 0.068645 0.690371
vt 0.052484 0.691713
vt 0.059877 0.705096
vt 0.048067 0.706077
vt 0.505486 0.534184
vt 0.483867 0.535481
vt 0.141775 0.676906
vt 0.120157 0.675514
vt 0.047971 0.646965
vt 0.064133 0.645622
vt 0.065587 0.660045
vt 0.049426 0.661388
vt 0.754179 0.663240
vt 0.738865 0.661888
vt 0.479358 0.768735
vt 0.501752 0.768201
vt 0.484824 0.470561
vt 0.507163 0.468991
vt 0.508196 0.485575
vt 0.485857 0.487144
vt 0.690044 0.657578
vt 0.688405 0.676129
vt 0.640294 0.706981
vt 0.641932 0.688430
vt 0.251994 0.855355
vt 0.251994 0.877756
vt 0.233362 0.877935
vt 0.233362 0.855535
vt 0.113684 0.686956
vt 0.115311 0.703093
vt 0.882728 0.624277
vt 0.860441 0.623257
vt 0.860441 0.577904
vt 0.882728 0.578924
vt 0.474280 0.892242
vt 0.457573 0.899938
vt 0.457573 0.851861
vt 0.474280 0.844165
vt 0.087789 0.821111
vt 0.089865 0.810782
vt 0.106623 0.820118
vt 0.106623 0.825565
vt 0.102826 0.894423
vt 0.097845 0.898161
vt 0.087789 0.852856
vt 0.089865 0.851631
vt 0.102826 0.777206
vt 0.143053 0.797897
vt 0.143053 0.848395
vt 0.143053 0.864236
vt 0.106623 0.841734
vt 0.106623 0.836572
vt 0.463728 0.732265
vt 0.463728 0.736180
vt 0.405055 0.767111
vt 0.405055 0.748414
vt 0.176635 0.778287
vt 0.157937 0.778287
vt 0.148019 0.749964
vt 0.171464 0.749964
vt 0.171450 0.734389
vt 0.148005 0.734389
vt 0.147991 0.718813
vt 0.171436 0.718813
vt 0.151761 0.692187
vt 0.173394 0.692187
vt 0.163823 0.651434
vt 0.179671 0.651434
vt 0.476640 0.712488
vt 0.463728 0.719783
vt 0.405055 0.688808
vt 0.470616 0.653972
vt 0.224313 0.906271
vt 0.157725 0.906474
vt 0.147991 0.878439
vt 0.225563 0.873024
vt 0.225912 0.862465
vt 0.152507 0.862610
vt 0.157023 0.846781
vt 0.226262 0.851907
vt 0.164269 0.819816
vt 0.225749 0.819276
vt 0.180801 0.778380
vt 0.227096 0.778297
vt 0.476640 0.743476
vt 0.478239 0.744379
vt 0.478734 0.806264
vt 0.470616 0.801950
vt 0.010684 0.902653
vt 0.002262 0.902653
vt 0.000405 0.874341
vt 0.010033 0.874355
vt 0.009347 0.858651
vt 0.000202 0.858648
vt 0.000000 0.842955
vt 0.008660 0.842947
vt 0.000214 0.815422
vt 0.008055 0.815487
vt 0.001506 0.774643
vt 0.007422 0.774662
vt 0.031182 0.592213
vt 0.025846 0.585910
vt -0.000000 0.526165
vt 0.025482 0.556268
vt 0.008956 0.494053
vt 0.039808 0.532176
vt 0.048214 0.526687
vt 0.016872 0.489660
vt 0.024789 0.485266
vt 0.056620 0.521198
vt 0.050407 0.472847
vt 0.078941 0.506555
vt 0.677335 0.068665
vt 0.640294 0.068109
vt 0.682583 0.037350
vt 0.699647 0.037607
vt 0.795419 0.014687
vt 0.754045 0.038424
vt 0.754431 0.005201
vt 0.483867 0.639900
vt 0.483867 0.600809
vt 0.494634 0.641945
vt 0.494634 0.660179
vt 0.640294 0.012356
vt 0.640294 0.005452
vt 0.682119 -0.000000
vt 0.682171 0.004115
vt 0.892443 -0.000000
vt 0.922878 -0.000000
vt 0.608154 0.000000
vt 0.640294 0.000000
vt 0.457573 0.844166
vt 0.457573 0.889521
vt 0.426718 0.884066
vt 0.426718 0.845451
vt 0.792451 0.851906
vt 0.792451 0.806550
vt 0.823346 0.807834
vt 0.823346 0.846449
vt 0.270336 0.873686
vt 0.274469 0.860231
vt 0.280208 0.863671
vt 0.801134 0.886203
vt 0.806422 0.875061
vt 0.816509 0.878556
vt 0.811220 0.889698
vt 0.813042 0.861961
vt 0.818466 0.851906
vt 0.819276 0.864121
vt 0.277075 0.851722
vt 0.286360 0.857287
vt 0.291996 0.866529
vt 0.283691 0.869382
vt 0.824950 0.864272
vt 0.825689 0.878800
vt 0.820400 0.889942
vt 0.458626 0.808962
vt 0.453795 0.818934
vt 0.452934 0.806264
vt 0.865869 0.577879
vt 0.860441 0.565795
vt 0.870247 0.565661
vt 0.871929 0.577796
vt 0.860441 0.551104
vt 0.865869 0.539415
vt 0.871929 0.539332
vt 0.870247 0.550969
vt 0.284120 0.876058
vt 0.446985 0.806661
vt 0.881061 0.565675
vt 0.878613 0.577805
vt 0.878613 0.539341
vt 0.881061 0.550983
vt 0.281397 0.882168
vt 0.442142 0.810063
vt 0.890407 0.565836
vt 0.884389 0.577904
vt 0.430971 0.806264
vt 0.439513 0.815690
vt 0.426718 0.815368
vt 0.276146 0.886312
vt 0.890407 0.551144
vt 0.115311 0.749094
vt 0.127567 0.743381
vt 0.127867 0.752980
vt 0.115497 0.755027
vt 0.439702 0.822253
vt 0.427024 0.825988
vt 0.269570 0.887542
vt 0.142239 0.743378
vt 0.142539 0.752978
vt 0.127867 0.763806
vt 0.115497 0.761718
vt 0.442665 0.828249
vt 0.431818 0.835688
vt 0.263175 0.885576
vt 0.142539 0.763803
vt 0.127567 0.773378
vt 0.115311 0.767634
vt 0.447723 0.832303
vt 0.440002 0.842249
vt 0.258426 0.880863
vt 0.142239 0.773376
vt 0.761937 0.845109
vt 0.755644 0.833100
vt 0.764732 0.832980
vt 0.767554 0.845035
vt 0.453717 0.833488
vt 0.449701 0.844165
vt 0.256411 0.874484
vt 0.755644 0.818405
vt 0.764732 0.818285
vt 0.775513 0.832960
vt 0.774217 0.845023
vt 0.767554 0.806563
vt 0.774217 0.806550
vt 0.775513 0.818265
vt 0.257592 0.867900
vt 0.459275 0.831531
vt 0.785517 0.833045
vt 0.780400 0.845075
vt 0.780400 0.806602
vt 0.785517 0.818349
vt 0.261698 0.862619
vt 0.463123 0.826882
vt 0.256411 0.855586
vt 0.266266 0.851108
vt 0.267789 0.859852
vt 0.792451 0.862081
vt 0.804408 0.853939
vt 0.807677 0.858286
vt 0.797740 0.869115
vt 0.792451 0.818519
vt 0.792451 0.833214
vt 0.464379 0.820604
vt 0.792451 0.880257
vt 0.246204 0.470774
vt 0.252785 0.472846
vt 0.255661 0.492006
vt 0.246204 0.491455
vt 0.087790 0.874469
vt 0.083191 0.858677
vt 0.142116 0.468439
vt 0.104152 0.470273
vt 0.795419 0.007783
vt 0.754479 0.001087
vt 0.071378 0.816013
vt 0.055191 0.774811
vt 0.078593 0.842886
vt 0.078695 0.902653
vt 0.233362 0.819209
vt 0.232829 0.778287
vt 0.233362 0.851920
vt 0.000938 0.476870
vt 0.006430 0.473822
vt 0.232559 0.906246
vt 0.233331 0.873009
vt 0.478239 0.711585
vt 0.478734 0.649658
vt 0.097845 0.774643
vt 0.087789 0.809626
vt 0.087789 0.820520
vt 0.356927 0.873051
vt 0.356927 0.786337
vt 0.066710 0.470774
vt 0.000000 0.470774
vt 0.215523 0.469826
vt 0.398516 0.873499
vt 0.372017 0.786337
vt 0.751790 0.882937
vt 0.751790 0.913391
vt 0.256411 0.469785
vt 0.510370 0.615460
vt 0.499340 0.615460
vt 0.499560 0.608134
vt 0.510360 0.608145
vt 0.499781 0.600809
vt 0.510349 0.600830
vt 0.291996 0.872517
vt 0.291996 0.861813
vt 0.312056 0.862210
vt 0.312056 0.869636
vt 0.677692 0.861307
vt 0.685841 0.858947
vt 0.685841 0.878520
vt 0.674619 0.879244
vt 0.011921 0.470774
vt 0.291996 0.851108
vt 0.312056 0.854784
vt 0.315267 0.786337
vt 0.315267 0.851072
vt 0.256411 0.851108
vt 0.256411 0.786372
vt 0.768716 0.626068
vt 0.825761 0.626203
vt 0.232805 0.651421
vt 0.174042 0.651434
vt 0.483867 0.520779
vt 0.405055 0.520777
vt 0.412096 0.468991
vt 0.476845 0.468993
vt 0.751790 0.785852
vt 0.751790 0.817992
vt 0.747477 0.817992
vt 0.747477 0.785852
vt 0.246204 0.470774
vt 0.246204 0.749964
vt 0.221461 0.749964
vt 0.221447 0.734389
vt 0.246189 0.734388
vt 0.072917 0.573087
vt 0.081848 0.566422
vt 0.715828 0.511274
vt 0.711516 0.469938
vt 0.573664 0.000000
vt 0.575036 0.021887
vt 0.795419 -0.000000
vt 0.827539 -0.000000
vt 0.843282 0.017655
vt 0.826713 0.017655
vt 0.483867 0.681849
vt 0.494634 0.679747
vt 0.736037 0.038153
vt 0.109561 0.542729
vt 0.135936 0.520020
vt 0.090779 0.559758
vt 0.052827 0.588573
vt 0.036908 0.598978
vt 0.242357 0.692187
vt 0.219527 0.692187
vt 0.213468 0.651434
vt 0.230193 0.651434
vt 0.246175 0.718813
vt 0.221432 0.718813
vt 0.236240 0.778287
vt 0.216508 0.778287
vt 0.463728 0.723915
vt 0.405055 0.708540
vt 0.143053 0.814614
vt 0.087789 0.832157
vt 0.106623 0.831411
vt 0.706206 0.659005
vt 0.704567 0.677556
vt 0.032082 0.662828
vt 0.033709 0.678964
vt 0.691508 0.640997
vt 0.707670 0.642424
vt 0.030628 0.648405
vt 0.035140 0.693154
vt 0.035393 0.707130
vt 0.703127 0.693868
vt 0.686964 0.692441
vt 0.707618 0.707198
vt 0.695808 0.706156
vt 0.548738 0.833496
vt 0.565872 0.835121
vt 0.711020 0.626067
vt 0.717832 0.626669
vt 0.860441 0.626067
vt 0.842422 0.626067
vt 0.828669 0.539332
vt 0.832801 0.539332
vt 0.678095 0.858947
vt 0.675533 0.785852
vt 0.145142 0.503334
vt 0.716495 0.263209
vt 0.716879 0.432628
vt 0.301627 0.603623
vt 0.316286 0.603603
vt 0.323977 0.786337
vt 0.317138 0.786337
vt 0.714457 0.141145
vt 0.256411 0.468991
vt 0.293869 0.468991
vt 0.242445 0.538910
vt 0.174046 0.532337
vt 0.483867 0.553256
vt 0.405055 0.553255
vt 0.814849 0.740213
vt 0.825435 0.738333
vt 0.572902 0.671351
vt 0.572394 0.701742
vt 0.561423 0.693497
vt 0.502309 0.705164
vt 0.855070 0.835323
vt 0.891164 0.832993
vt 0.825940 0.843276
vt 0.611414 0.698371
vt 0.611414 0.717054
vt 0.562300 0.601054
vt 0.562303 0.620022
vt 0.640294 0.735368
vt 0.640294 0.740140
vt 0.575894 0.269875
vt 0.850990 0.223869
vt 0.857748 0.223869
vt 0.879731 0.504952
vt 0.874959 0.504952
vt 0.880096 0.520892
vt 0.875324 0.520893
vt 0.712651 0.817991
vt 0.712651 0.785852
vt 0.711567 0.585440
vt 0.711611 0.626068
vt 0.711281 0.432841
vt 0.714377 0.069222
vt 0.678906 0.140611
vt 0.679129 0.469938
vt 0.675787 0.432841
vt 0.680800 0.585440
vt 0.681157 0.626068
vt 0.692079 0.511274
vt 0.559327 0.021887
vt 0.569487 0.269875
vt 0.557775 0.601054
vt 0.557778 0.620022
vt 0.825851 0.847800
vt 0.854719 0.853033
vt 0.891164 0.861802
vt 0.814571 0.769019
vt 0.825598 0.772442
vt 0.240727 0.504842
vt 0.174044 0.501563
vt 0.702583 0.263399
vt 0.710403 0.432531
vt 0.154989 0.542529
vt 0.151811 0.511212
vt 0.695373 0.858947
vt 0.683359 0.785852
vt 0.548738 0.839972
vt 0.565872 0.850486
vt 0.018395 0.680236
vt 0.019826 0.694426
vt 0.024203 0.708059
vt 0.015314 0.649677
vt 0.016768 0.664100
vt 0.087789 0.841911
vt 0.041964 0.604951
vt 0.076972 0.617098
vt 0.102152 0.609210
vt 0.111547 0.601508
vt 0.120941 0.593806
vt 0.136598 0.574670
vt 0.483867 0.718890
vt 0.494634 0.697024
vt 0.543210 0.000000
vt 0.751790 0.852482
vt 0.747477 0.852482
vt 0.194909 0.749964
vt 0.194895 0.734389
vt 0.862007 -0.000000
vt 0.861062 0.017655
vt 0.716711 0.037863
vt 0.195027 0.692187
vt 0.195519 0.651434
vt 0.194880 0.718813
vt 0.195332 0.778287
vt 0.463728 0.728350
vt 0.405055 0.729716
vt 0.143053 0.832554
vt 0.723550 0.660536
vt 0.721912 0.679087
vt 0.725015 0.643955
vt 0.720471 0.695399
vt 0.720292 0.708317
vt 0.725142 0.627314
vt 0.823085 0.626067
vt 0.824234 0.539332
vt 0.332017 0.603582
vt 0.331315 0.786337
vt 0.334067 0.468991
vt 0.483867 0.588109
vt 0.405055 0.588108
vt 0.571850 0.734355
vt 0.559790 0.732094
vt 0.502309 0.739995
vt 0.611414 0.737103
vt 0.640294 0.745261
vt 0.865000 0.223869
vt 0.884852 0.504952
vt 0.885217 0.520893
vt 0.712651 0.852482
vt 0.087789 0.842534
vt 0.131387 0.645334
vt 0.141245 0.636594
vt 0.668330 0.511274
vt 0.646743 0.469938
vt 0.512756 0.000000
vt 0.543618 0.021887
vt 0.483867 0.755930
vt 0.494634 0.714302
vt 0.163636 0.606611
vt 0.174042 0.565038
vt 0.151104 0.627853
vt 0.101118 0.645622
vt 0.047020 0.610924
vt 0.001454 0.665372
vt 0.003082 0.681508
vt 0.000000 0.650949
vt 0.004512 0.695697
vt 0.013012 0.708988
vt 0.712651 0.858947
vt 0.691185 0.785852
vt 0.158479 0.519090
vt 0.688672 0.263590
vt 0.703927 0.432433
vt 0.643355 0.140077
vt 0.239010 0.470774
vt 0.174042 0.470789
vt 0.814292 0.797824
vt 0.825761 0.806550
vt 0.854367 0.870744
vt 0.891164 0.890612
vt 0.825761 0.852323
vt 0.553251 0.601054
vt 0.553254 0.620022
vt 0.563079 0.269875
vt 0.650033 0.585440
vt 0.650703 0.626068
vt 0.640294 0.432841
vt 0.640294 0.880542
vt 0.640294 0.858947
vt 0.652150 0.858949
vt 0.652150 0.880545
vt 0.609193 0.869513
vt 0.609193 0.801529
vt 0.630851 0.801506
vt 0.630851 0.869490
vt 0.080095 0.761877
vt 0.068285 0.762858
vt 0.136930 0.743378
vt 0.115311 0.741986
vt 0.687356 0.772692
vt 0.675546 0.771649
vt 0.466011 0.827859
vt 0.466011 0.806264
vt 0.478734 0.806267
vt 0.478734 0.827862
vt 0.233362 0.855347
vt 0.233362 0.778287
vt 0.255020 0.778295
vt 0.255020 0.855355
vt 0.059507 0.772269
vt 0.046833 0.773322
vt 0.565872 0.878295
vt 0.565872 0.801547
vt 0.587536 0.801506
vt 0.587536 0.878254
vt 0.708805 0.784447
vt 0.696131 0.783328
vt 0.663384 0.880542
vt 0.663384 0.858947
vt 0.674619 0.858949
vt 0.674619 0.880545
vt 0.587536 0.878213
vt 0.587536 0.801505
vt 0.609193 0.801556
vt 0.609193 0.878263
vt 0.042107 0.773714
vt 0.030917 0.774643
vt 0.480646 0.878406
vt 0.480646 0.801519
vt 0.502309 0.801506
vt 0.502309 0.878393
vt 0.724722 0.785852
vt 0.713531 0.784864
vt 0.652150 0.880542
vt 0.652150 0.858947
vt 0.663384 0.858949
vt 0.663384 0.880545
vt 0.510370 0.599512
vt 0.488752 0.600809
vt 0.011191 0.767599
vt 0.000000 0.768529
vt 0.405055 0.873888
vt 0.405055 0.806264
vt 0.426718 0.806308
vt 0.426718 0.873932
vt 0.755644 0.778721
vt 0.744453 0.777733
s 0
f 26/1/1 22/2/1 4/3/1 10/4/1
f 2/5/2 9/6/2 59/7/2 60/8/2
f 24/9/3 3/10/3 15/11/3 28/12/3
f 239/13/4 23/14/4 2/15/4 232/16/4
f 198/17/5 204/18/5 6/19/5 12/20/5
f 218/21/6 198/17/6 12/20/6 129/22/6
f 286/23/7 234/24/7 9/25/7 130/26/7
f 131/27/8 26/1/8 10/4/8 127/28/8
f 235/29/9 14/30/9 18/31/9 236/32/9
f 231/33/10 1/34/10 14/30/10 235/29/10
f 187/35/11 5/36/11 13/37/11 180/38/11
f 124/39/12 123/40/12 31/41/12 32/42/12
f 28/12/13 15/11/13 19/43/13 30/44/13
f 180/38/14 13/37/14 17/45/14 175/46/14
f 14/47/14 27/48/14 29/49/14 18/50/14
f 193/51/13 28/12/13 30/44/13 192/52/13
f 410/53/15 192/54/15 30/55/15 381/56/15
f 1/57/11 21/58/11 27/48/11 14/47/11
f 217/59/16 181/60/16 26/1/16 131/27/16
f 130/61/17 9/6/17 25/62/17 132/63/17
f 9/6/18 2/5/18 23/64/18 25/62/18
f 134/65/19 119/66/19 69/67/19 169/68/19
f 199/69/3 24/9/3 28/12/3 193/51/3
f 181/60/20 186/70/20 22/2/20 26/1/20
f 34/71/21 33/72/21 37/73/21 38/74/21
f 126/75/22 125/76/22 33/72/22 34/71/22
f 285/77/23 124/78/23 32/79/23 240/80/23
f 407/81/24 126/82/24 34/83/24 382/84/24
f 383/85/25 38/86/25 42/87/25 384/88/25
f 32/42/26 31/41/26 35/89/26 36/90/26
f 382/84/27 34/83/27 38/86/27 383/85/27
f 240/80/28 32/79/28 36/91/28 242/92/28
f 384/93/29 42/94/29 46/95/29 385/96/29
f 242/92/30 36/91/30 40/97/30 244/98/30
f 38/74/31 37/73/31 41/99/31 42/100/31
f 36/90/32 35/89/32 39/101/32 40/102/32
f 385/96/33 46/95/33 50/103/33 386/104/33
f 244/105/34 40/106/34 44/107/34 246/108/34
f 42/109/35 41/110/35 45/111/35 46/112/35
f 40/113/36 39/114/36 43/115/36 44/116/36
f 50/117/37 49/118/37 53/119/37 54/120/37
f 246/108/38 44/107/38 48/121/38 248/122/38
f 46/112/39 45/111/39 49/118/39 50/117/39
f 44/123/40 43/124/40 47/125/40 48/126/40
f 387/127/25 54/128/25 58/129/25 388/130/25
f 48/131/41 47/132/41 51/133/41 52/134/41
f 386/104/42 50/103/42 54/128/42 387/127/42
f 248/135/43 48/131/43 52/134/43 250/136/43
f 388/137/15 58/138/15 57/139/15 362/140/15
f 250/141/30 52/142/30 56/143/30 252/144/30
f 54/120/31 53/119/31 57/145/31 58/146/31
f 51/147/44 55/148/44 229/149/44 227/150/44
f 62/151/45 61/152/45 65/153/45 66/154/45
f 379/155/46 10/156/46 62/157/46 390/158/46
f 10/4/47 4/3/47 61/152/47 62/151/47
f 232/16/48 2/15/48 60/159/48 254/160/48
f 64/161/49 63/162/49 71/163/49 72/164/49
f 60/8/50 59/7/50 63/165/50 64/166/50
f 390/158/51 62/157/51 66/167/51 392/168/51
f 254/160/52 60/159/52 64/169/52 256/170/52
f 281/171/25 103/172/25 96/173/25 270/174/25
f 283/175/25 121/176/25 68/177/25 258/178/25
f 135/179/53 122/180/53 67/181/53 174/182/53
f 406/183/54 120/184/54 70/185/54 364/186/54
f 89/187/31 87/188/31 77/189/31 78/190/31
f 392/191/55 66/192/55 74/193/55 394/194/55
f 256/195/56 64/196/56 72/197/56 260/198/56
f 66/199/57 65/200/57 73/201/57 74/202/57
f 396/203/58 78/204/58 82/205/58 398/206/58
f 90/207/32 88/208/32 75/209/32 76/210/32
f 400/211/59 89/212/59 78/204/59 396/203/59
f 268/213/60 90/214/60 76/215/60 262/216/60
f 262/216/61 76/215/61 80/217/61 264/218/61
f 78/190/62 77/189/62 81/219/62 82/220/62
f 76/210/63 75/209/63 79/221/63 80/222/63
f 260/223/60 72/224/60 86/225/60 266/226/60
f 394/194/59 74/193/59 84/227/59 399/228/59
f 72/164/32 71/163/32 85/229/32 86/230/32
f 74/231/31 73/232/31 83/233/31 84/234/31
f 266/226/60 86/225/60 90/214/60 268/213/60
f 399/228/59 84/227/59 89/212/59 400/211/59
f 85/235/64 88/236/64 94/237/64 93/238/64
f 84/234/31 83/233/31 87/188/31 89/187/31
f 92/239/32 93/240/32 94/241/32 91/242/32
f 90/214/65 86/225/65 92/243/65 91/244/65
f 88/245/66 90/246/66 91/247/66 94/248/66
f 86/249/67 85/250/67 93/251/67 92/252/67
f 287/253/68 168/254/68 95/255/68 271/256/68
f 136/257/69 104/258/69 97/259/69 163/260/69
f 150/261/70 118/262/70 95/255/70 168/254/70
f 405/263/71 109/264/71 98/265/71 368/266/71
f 364/267/72 70/268/72 113/269/72 401/270/72
f 401/271/73 113/272/73 112/273/73 402/274/73
f 409/275/74 210/276/74 111/277/74 403/278/74
f 403/278/75 111/277/75 110/279/75 404/280/75
f 404/280/76 110/279/76 109/281/76 405/282/76
f 174/283/77 67/284/77 114/285/77 162/286/77
f 162/287/78 114/288/78 115/289/78 157/290/78
f 219/291/79 205/292/79 116/293/79 156/294/79
f 156/294/80 116/293/80 117/295/80 151/296/80
f 151/296/81 117/295/81 118/297/81 150/298/81
f 169/299/82 69/300/82 108/301/82 145/302/82
f 145/303/83 108/304/83 107/305/83 144/306/83
f 220/307/84 211/308/84 106/309/84 139/310/84
f 139/310/85 106/309/85 105/311/85 137/312/85
f 137/312/86 105/311/86 104/313/86 136/314/86
f 258/315/25 68/316/25 99/317/25 277/318/25
f 277/318/25 99/317/25 100/319/25 278/320/25
f 289/321/25 216/322/25 101/323/25 279/324/25
f 279/324/25 101/323/25 102/325/25 280/326/25
f 280/326/25 102/325/25 103/172/25 281/171/25
f 355/327/87 22/328/87 120/329/87 406/330/87
f 204/331/88 23/14/88 122/332/88 135/333/88
f 233/334/25 6/335/25 121/336/25 283/337/25
f 186/338/89 8/339/89 119/340/89 134/341/89
f 381/342/90 30/343/90 126/82/90 407/81/90
f 236/344/91 18/345/91 124/78/91 285/77/91
f 30/346/92 19/347/92 125/348/92 126/349/92
f 18/350/93 29/351/93 123/352/93 124/353/93
f 1/57/94 130/61/94 132/63/94 21/58/94
f 199/69/95 217/59/95 131/27/95 24/9/95
f 24/9/96 131/27/96 127/28/96 3/10/96
f 231/33/97 286/23/97 130/26/97 1/34/97
f 187/35/98 218/21/98 129/22/98 5/36/98
f 138/354/99 215/355/99 143/356/99
f 214/357/100 213/358/100 141/359/100 142/360/100
f 212/361/101 133/362/101 140/363/101
f 215/355/102 214/364/102 142/365/102 143/356/102
f 213/358/103 212/361/103 140/363/103 141/359/103
f 143/356/104 142/365/104 148/366/104 149/367/104
f 141/359/105 140/363/105 146/368/105 147/369/105
f 138/354/106 143/356/106 149/367/106
f 142/360/107 141/359/107 147/369/107 148/370/107
f 140/371/108 133/372/108 146/373/108
f 149/374/109 148/375/109 154/376/109 155/377/109
f 147/378/110 146/379/110 152/380/110 153/381/110
f 138/354/111 149/367/111 155/382/111
f 148/375/112 147/378/112 153/381/112 154/376/112
f 146/373/113 133/372/113 152/383/113
f 155/377/114 154/376/114 160/384/114 161/385/114
f 153/381/115 152/380/115 158/386/115 159/387/115
f 138/354/116 155/382/116 161/388/116
f 154/376/117 153/381/117 159/387/117 160/384/117
f 152/383/118 133/372/118 158/389/118
f 161/385/119 160/384/119 166/390/119 167/391/119
f 159/392/120 158/389/120 164/393/120 165/394/120
f 138/354/121 161/388/121 167/395/121
f 160/384/122 159/387/122 165/396/122 166/390/122
f 158/389/123 133/372/123 164/393/123
f 167/397/124 166/398/124 172/399/124 173/400/124
f 165/394/125 164/393/125 170/401/125 171/402/125
f 138/354/126 167/395/126 173/403/126
f 166/398/127 165/404/127 171/405/127 172/399/127
f 164/393/128 133/372/128 170/401/128
f 173/400/129 172/399/129 178/406/129 179/407/129
f 171/402/130 170/401/130 176/408/130 177/409/130
f 138/354/131 173/403/131 179/410/131
f 172/399/30 171/405/30 177/411/30 178/406/30
f 170/401/132 133/372/132 176/408/132
f 179/407/133 178/406/133 184/412/133 185/413/133
f 177/409/134 176/408/134 182/414/134 183/415/134
f 138/354/135 179/410/135 185/416/135
f 178/406/136 177/411/136 183/417/136 184/412/136
f 176/408/137 133/372/137 182/414/137
f 185/418/138 184/419/138 190/420/138 191/421/138
f 183/415/139 182/414/139 188/422/139 189/423/139
f 138/354/140 185/416/140 191/424/140
f 184/419/141 183/425/141 189/426/141 190/420/141
f 182/414/142 133/372/142 188/422/142
f 191/421/143 190/420/143 196/427/143 197/428/143
f 189/426/144 188/429/144 194/430/144 195/431/144
f 138/354/145 191/424/145 197/432/145
f 190/420/146 189/426/146 195/431/146 196/427/146
f 188/422/147 133/372/147 194/433/147
f 197/428/148 196/427/148 202/434/148 203/435/148
f 195/431/149 194/430/149 200/436/149 201/437/149
f 138/354/150 197/432/150 203/438/150
f 196/427/151 195/431/151 201/437/151 202/434/151
f 194/433/152 133/372/152 200/439/152
f 203/438/153 202/440/153 208/441/153 209/442/153
f 201/443/154 200/444/154 206/445/154 207/446/154
f 138/354/155 203/438/155 209/442/155
f 202/434/156 201/437/156 207/447/156 208/448/156
f 200/439/157 133/372/157 206/449/157
f 209/442/158 208/441/158 214/364/158 215/355/158
f 207/446/159 206/445/159 212/361/159 213/358/159
f 138/354/160 209/442/160 215/355/160
f 208/450/161 207/446/161 213/358/161 214/357/161
f 206/445/162 133/362/162 212/361/162
f 278/320/25 100/319/25 216/322/25 289/321/25
f 144/306/163 107/305/163 211/308/163 220/307/163
f 157/290/164 115/289/164 205/292/164 219/291/164
f 402/274/74 112/273/74 210/276/74 409/275/74
f 156/451/165 101/452/165 222/453/165 225/454/165
f 112/455/166 144/306/166 220/307/166 210/456/166
f 21/58/98 132/63/98 218/21/98 187/35/98
f 7/457/95 128/458/95 217/59/95 199/69/95
f 22/328/167 186/338/167 134/341/167 120/329/167
f 6/459/168 204/331/168 135/333/168 121/460/168
f 110/461/169 137/312/169 136/314/169 109/462/169
f 111/463/170 139/310/170 137/312/170 110/461/170
f 210/456/171 220/307/171 139/310/171 111/463/171
f 113/464/172 145/303/172 144/306/172 112/455/172
f 70/268/173 169/299/173 145/302/173 113/269/173
f 102/465/174 151/296/174 150/298/174 103/466/174
f 101/467/175 156/294/175 151/296/175 102/465/175
f 216/322/25 100/319/25 224/468/25 221/469/25
f 99/470/176 162/287/176 157/290/176 100/471/176
f 68/472/177 174/283/177 162/286/177 99/473/177
f 103/474/178 150/261/178 168/254/178 96/475/178
f 109/264/179 136/257/179 163/260/179 98/265/179
f 270/476/68 96/475/68 168/254/68 287/253/68
f 121/477/180 135/179/180 174/182/180 68/478/180
f 11/479/20 8/480/20 186/70/20 181/60/20
f 7/457/3 199/69/3 193/51/3 16/481/3
f 120/482/181 134/65/181 169/68/181 70/483/181
f 128/458/16 11/479/16 181/60/16 217/59/16
f 380/484/15 20/485/15 192/54/15 410/53/15
f 16/481/13 193/51/13 192/52/13 20/486/13
f 27/48/14 180/38/14 175/46/14 29/49/14
f 21/58/11 187/35/11 180/38/11 27/48/11
f 132/63/6 25/62/6 198/17/6 218/21/6
f 25/62/5 23/64/5 204/18/5 198/17/5
f 224/487/182 223/488/182 226/489/182 221/490/182
f 221/490/183 226/489/183 225/491/183 222/492/183
f 157/493/184 219/494/184 226/495/184 223/496/184
f 100/497/185 157/498/185 223/499/185 224/500/185
f 101/323/25 216/322/25 221/469/25 222/501/25
f 219/494/184 156/502/184 225/503/184 226/495/184
f 228/504/32 227/505/32 229/506/32 230/507/32
f 52/134/186 51/133/186 227/508/186 228/509/186
f 56/143/187 52/142/187 228/510/187 230/511/187
f 55/512/188 56/513/188 230/514/188 229/515/188
f 17/516/15 237/517/15 290/518/15 175/519/15
f 307/520/68 270/520/68 287/520/68 316/520/68
f 115/521/74 273/522/74 288/523/74 205/524/74
f 310/525/25 278/320/25 289/321/25 317/526/25
f 291/527/97 348/528/97 286/23/97 231/33/97
f 294/529/91 236/344/91 285/77/91 315/530/91
f 29/531/90 238/532/90 284/533/90 123/534/90
f 292/535/25 233/334/25 283/337/25 314/536/25
f 23/14/87 239/13/87 282/537/87 122/332/87
f 312/538/25 280/326/25 281/171/25 313/539/25
f 311/540/25 279/324/25 280/326/25 312/538/25
f 317/526/25 289/321/25 279/324/25 311/540/25
f 309/541/25 277/318/25 278/320/25 310/525/25
f 303/542/25 258/315/25 277/318/25 309/541/25
f 117/543/76 275/544/76 276/545/76 118/546/76
f 116/547/75 274/548/75 275/544/75 117/543/75
f 205/524/74 288/523/74 274/548/74 116/547/74
f 114/549/73 272/550/73 273/522/73 115/521/73
f 67/284/72 259/551/72 272/552/72 114/285/72
f 118/262/71 276/553/71 271/256/71 95/255/71
f 316/554/68 287/253/68 271/256/68 308/555/68
f 85/235/59 267/556/59 269/557/59 88/236/59
f 305/558/60 266/226/60 268/213/60 306/559/60
f 71/560/59 261/561/59 267/556/59 85/235/59
f 333/562/60 260/223/60 266/226/60 305/558/60
f 335/563/61 262/216/61 264/218/61 337/564/61
f 306/559/60 268/213/60 262/216/60 335/563/60
f 88/236/59 269/557/59 263/565/59 75/566/59
f 75/566/58 263/565/58 265/567/58 79/568/58
f 331/569/56 256/195/56 260/198/56 333/570/56
f 63/571/55 257/572/55 261/561/55 71/560/55
f 122/573/54 282/574/54 259/575/54 67/576/54
f 314/577/25 283/175/25 258/178/25 303/578/25
f 313/539/25 281/171/25 270/174/25 307/579/25
f 329/580/189 254/160/189 256/170/189 331/581/189
f 59/582/190 255/583/190 257/584/190 63/585/190
f 318/586/191 232/16/191 254/160/191 329/580/191
f 9/587/192 234/588/192 255/583/192 59/582/192
f 301/589/30 250/141/30 252/144/30 302/590/30
f 55/512/15 253/591/15 252/592/15 56/513/15
f 300/593/193 248/135/193 250/136/193 301/594/193
f 47/595/194 249/596/194 251/597/194 51/147/194
f 51/147/25 251/597/25 253/598/25 55/148/25
f 299/599/195 246/108/195 248/122/195 300/600/195
f 298/601/34 244/105/34 246/108/34 299/599/34
f 43/602/196 247/603/196 249/596/196 47/595/196
f 297/604/30 242/92/30 244/98/30 298/605/30
f 39/606/29 245/607/29 247/603/29 43/602/29
f 296/608/28 240/80/28 242/92/28 297/604/28
f 31/609/27 241/610/27 243/611/27 35/612/27
f 35/612/25 243/611/25 245/613/25 39/614/25
f 123/534/24 284/533/24 241/610/24 31/609/24
f 315/530/23 285/77/23 240/80/23 296/608/23
f 175/519/15 290/518/15 238/615/15 29/616/15
f 291/527/10 231/33/10 235/29/10 293/617/10
f 293/617/9 235/29/9 236/32/9 294/618/9
f 348/528/7 319/619/7 234/24/7 286/23/7
f 295/620/4 239/13/4 232/16/4 318/586/4
f 355/327/4 295/620/4 318/586/4 378/621/4
f 408/622/7 379/623/7 319/619/7 348/528/7
f 353/624/9 293/617/9 294/618/9 354/625/9
f 351/626/10 291/527/10 293/617/10 353/624/10
f 375/627/23 315/530/23 296/608/23 356/628/23
f 356/628/28 296/608/28 297/604/28 357/629/28
f 357/629/30 297/604/30 298/605/30 358/630/30
f 358/631/34 298/601/34 299/599/34 359/632/34
f 359/632/197 299/599/197 300/600/197 360/633/197
f 360/634/198 300/593/198 301/594/198 361/635/198
f 361/636/30 301/589/30 302/590/30 362/637/30
f 378/621/199 318/586/199 329/580/199 389/638/199
f 389/638/200 329/580/200 331/581/200 391/639/200
f 373/640/25 313/539/25 307/579/25 367/641/25
f 374/642/25 314/577/25 303/578/25 363/643/25
f 391/644/56 331/569/56 333/570/56 393/645/56
f 366/646/60 306/559/60 335/563/60 395/647/60
f 395/647/61 335/563/61 337/564/61 397/648/61
f 393/649/60 333/562/60 305/558/60 365/650/60
f 365/650/60 305/558/60 306/559/60 366/646/60
f 376/651/68 316/554/68 308/555/68 368/266/68
f 363/652/25 303/542/25 309/541/25 369/653/25
f 369/653/25 309/541/25 310/525/25 370/654/25
f 377/655/25 317/526/25 311/540/25 371/656/25
f 371/656/25 311/540/25 312/538/25 372/657/25
f 372/657/25 312/538/25 313/539/25 373/640/25
f 352/658/25 292/535/25 314/536/25 374/659/25
f 354/660/91 294/529/91 315/530/91 375/627/91
f 351/626/97 408/622/97 348/528/97 291/527/97
f 370/654/25 310/525/25 317/526/25 377/655/25
f 367/520/68 307/520/68 316/520/68 376/520/68
f 237/517/15 320/661/15 350/662/15 290/518/15
f 273/522/74 342/663/74 349/664/74 288/523/74
f 238/532/90 321/665/90 347/666/90 284/533/90
f 239/13/87 295/620/87 346/667/87 282/537/87
f 275/544/76 344/668/76 345/669/76 276/545/76
f 274/548/75 343/670/75 344/668/75 275/544/75
f 288/523/74 349/664/74 343/670/74 274/548/74
f 272/550/73 341/671/73 342/663/73 273/522/73
f 259/551/72 304/672/72 341/673/72 272/552/72
f 276/553/71 345/674/71 308/555/71 271/256/71
f 267/556/59 339/675/59 340/676/59 269/557/59
f 261/561/59 334/677/59 339/675/59 267/556/59
f 269/557/59 340/676/59 336/678/59 263/565/59
f 263/565/58 336/678/58 338/679/58 265/567/58
f 257/572/55 332/680/55 334/677/55 261/561/55
f 282/574/54 346/681/54 304/682/54 259/575/54
f 255/583/201 330/683/201 332/684/201 257/584/201
f 234/588/202 319/685/202 330/683/202 255/583/202
f 253/591/15 328/686/15 302/687/15 252/592/15
f 249/596/203 326/688/203 327/689/203 251/597/203
f 251/597/25 327/689/25 328/690/25 253/598/25
f 247/603/204 325/691/204 326/688/204 249/596/204
f 245/607/29 324/692/29 325/691/29 247/603/29
f 241/610/27 322/693/27 323/694/27 243/611/27
f 243/611/25 323/694/25 324/695/25 245/613/25
f 284/533/24 347/666/24 322/693/24 241/610/24
f 290/518/15 350/662/15 321/696/15 238/615/15
f 97/259/68 367/697/68 376/651/68 163/260/68
f 107/698/25 370/654/25 377/655/25 211/699/25
f 3/700/97 127/701/97 408/622/97 351/626/97
f 19/702/91 354/660/91 375/627/91 125/703/91
f 8/704/25 352/658/25 374/659/25 119/705/25
f 105/706/25 372/657/25 373/640/25 104/707/25
f 106/708/25 371/656/25 372/657/25 105/706/25
f 211/699/25 377/655/25 371/656/25 106/708/25
f 108/709/25 369/653/25 370/654/25 107/698/25
f 69/710/25 363/652/25 369/653/25 108/709/25
f 163/260/68 376/651/68 368/266/68 98/265/68
f 83/711/60 365/650/60 366/646/60 87/712/60
f 73/713/60 393/649/60 365/650/60 83/711/60
f 77/714/61 395/647/61 397/648/61 81/715/61
f 87/712/60 366/646/60 395/647/60 77/714/60
f 65/200/56 391/644/56 393/645/56 73/201/56
f 119/716/25 374/642/25 363/643/25 69/717/25
f 104/707/25 373/640/25 367/641/25 97/718/25
f 61/719/205 389/638/205 391/639/205 65/720/205
f 4/721/206 378/621/206 389/638/206 61/719/206
f 53/722/30 361/636/30 362/637/30 57/723/30
f 49/724/207 360/634/207 361/635/207 53/725/207
f 45/726/208 359/632/208 360/633/208 49/727/208
f 41/728/34 358/631/34 359/632/34 45/726/34
f 37/729/30 357/629/30 358/630/30 41/730/30
f 33/731/28 356/628/28 357/629/28 37/729/28
f 125/703/23 375/627/23 356/628/23 33/731/23
f 3/700/10 351/626/10 353/624/10 15/732/10
f 15/732/9 353/624/9 354/625/9 19/733/9
f 127/701/7 10/734/7 379/623/7 408/622/7
f 22/328/4 355/327/4 378/621/4 4/721/4
f 320/661/15 380/484/15 410/53/15 350/662/15
f 342/663/74 402/274/74 409/275/74 349/664/74
f 321/665/90 381/342/90 407/81/90 347/666/90
f 295/620/87 355/327/87 406/330/87 346/667/87
f 344/668/76 404/280/76 405/282/76 345/669/76
f 343/670/75 403/278/75 404/280/75 344/668/75
f 349/664/74 409/275/74 403/278/74 343/670/74
f 341/671/73 401/271/73 402/274/73 342/663/73
f 304/672/72 364/267/72 401/270/72 341/673/72
f 345/674/71 405/263/71 368/266/71 308/555/71
f 339/675/59 399/228/59 400/211/59 340/676/59
f 334/677/59 394/194/59 399/228/59 339/675/59
f 340/676/59 400/211/59 396/203/59 336/678/59
f 336/678/58 396/203/58 398/206/58 338/679/58
f 332/680/55 392/191/55 394/194/55 334/677/55
f 346/681/54 406/183/54 364/186/54 304/682/54
f 330/683/209 390/158/209 392/168/209 332/684/209
f 319/685/210 379/155/210 390/158/210 330/683/210
f 328/686/15 388/137/15 362/140/15 302/687/15
f 326/688/211 386/104/211 387/127/211 327/689/211
f 327/689/25 387/127/25 388/130/25 328/690/25
f 325/691/212 385/96/212 386/104/212 326/688/212
f 324/692/29 384/93/29 385/96/29 325/691/29
f 322/693/27 382/84/27 383/85/27 323/694/27
f 323/694/25 383/85/25 384/88/25 324/695/25
f 347/666/24 407/81/24 382/84/24 322/693/24
f 350/662/15 410/53/15 381/56/15 321/696/15
f 411/735/213 412/736/213 413/737/213 414/738/213
f 264/739/214 412/740/214 411/741/214 265/742/214
f 80/217/215 413/743/215 412/744/215 264/218/215
f 79/221/216 414/745/216 413/746/216 80/222/216
f 265/567/217 411/747/217 414/748/217 79/568/217
f 415/749/213 416/750/213 417/751/213 418/752/213
f 337/753/218 416/754/218 415/755/218 338/756/218
f 264/218/60 417/757/60 416/758/60 337/564/60
f 265/759/219 418/760/219 417/761/219 264/762/219
f 338/679/59 415/763/59 418/764/59 265/567/59
f 419/765/213 420/766/213 421/767/213 422/768/213
f 397/769/220 420/770/220 419/771/220 398/772/220
f 337/564/60 421/773/60 420/774/60 397/648/60
f 338/775/221 422/776/221 421/777/221 337/778/221
f 398/206/59 419/779/59 422/780/59 338/679/59
f 423/781/213 424/782/213 425/783/213 426/784/213
f 81/219/222 424/785/222 423/786/222 82/220/222
f 397/648/215 425/787/215 424/788/215 81/715/215
f 398/789/223 426/790/223 425/791/223 397/792/223
f 82/205/217 423/793/217 426/794/217 398/206/217
f 442/1/224 432/4/224 430/3/224 438/2/224
f 428/5/225 476/8/225 475/7/225 431/6/225
f 440/9/3 444/12/3 434/11/3 429/10/3
f 630/13/226 625/16/226 428/15/226 439/14/226
f 596/17/227 12/20/227 6/19/227 602/18/227
f 614/21/6 129/22/6 12/20/6 596/17/6
f 669/23/228 528/26/228 431/25/228 626/24/228
f 529/27/229 527/28/229 432/4/229 442/1/229
f 627/29/230 628/32/230 435/31/230 433/30/230
f 624/33/231 627/29/231 433/30/231 427/34/231
f 585/35/11 578/38/11 13/37/11 5/36/11
f 524/39/12 448/42/12 447/41/12 523/40/12
f 444/12/13 446/44/13 436/43/13 434/11/13
f 578/38/14 573/46/14 17/45/14 13/37/14
f 433/47/14 435/50/14 445/49/14 443/48/14
f 591/51/13 590/52/13 446/44/13 444/12/13
f 767/53/15 738/56/15 446/55/15 590/54/15
f 427/57/11 433/47/11 443/48/11 437/58/11
f 613/59/16 529/27/16 442/1/16 579/60/16
f 528/61/232 530/63/232 441/62/232 431/6/232
f 431/6/233 441/62/233 439/64/233 428/5/233
f 532/65/234 567/68/234 69/67/234 119/66/234
f 597/69/3 591/51/3 444/12/3 440/9/3
f 579/60/235 442/1/235 438/2/235 584/70/235
f 450/71/21 454/74/21 453/73/21 449/72/21
f 526/75/22 450/71/22 449/72/22 525/76/22
f 668/77/236 631/80/236 448/79/236 524/78/236
f 764/81/237 739/84/237 450/83/237 526/82/237
f 740/85/30 741/88/30 458/87/30 454/86/30
f 448/42/26 452/90/26 451/89/26 447/41/26
f 739/84/238 740/85/238 454/86/238 450/83/238
f 631/80/239 633/92/239 452/91/239 448/79/239
f 741/93/34 742/96/34 462/95/34 458/94/34
f 633/92/25 635/98/25 456/97/25 452/91/25
f 454/74/31 458/100/31 457/99/31 453/73/31
f 452/90/32 456/102/32 455/101/32 451/89/32
f 742/96/208 743/104/208 466/103/208 462/95/208
f 635/105/29 637/108/29 460/107/29 456/106/29
f 458/109/35 462/112/35 461/111/35 457/110/35
f 456/113/36 460/116/36 459/115/36 455/114/36
f 466/117/37 470/120/37 469/119/37 465/118/37
f 637/108/196 639/122/196 464/121/196 460/107/196
f 462/112/39 466/117/39 465/118/39 461/111/39
f 460/123/40 464/126/40 463/125/40 459/124/40
f 744/127/30 745/130/30 474/129/30 470/128/30
f 464/131/41 468/134/41 467/133/41 463/132/41
f 743/104/207 744/127/207 470/128/207 466/103/207
f 639/135/194 641/136/194 468/134/194 464/131/194
f 745/137/15 730/140/15 473/139/15 474/138/15
f 641/141/25 643/144/25 472/143/25 468/142/25
f 470/120/31 474/146/31 473/145/31 469/119/31
f 467/147/187 620/150/187 622/149/187 471/148/187
f 478/151/240 482/154/240 481/153/240 477/152/240
f 737/155/241 747/158/241 478/157/241 432/156/241
f 432/4/242 478/151/242 477/152/242 430/3/242
f 625/16/243 645/160/243 476/159/243 428/15/243
f 480/161/244 486/164/244 485/163/244 479/162/244
f 476/8/245 480/166/245 479/165/245 475/7/245
f 747/158/246 749/168/246 482/167/246 478/157/246
f 645/160/247 647/170/247 480/169/247 476/159/247
f 533/179/248 572/182/248 483/181/248 522/180/248
f 763/183/249 731/186/249 484/185/249 521/184/249
f 503/187/31 492/190/31 491/189/31 501/188/31
f 749/191/250 751/194/250 488/193/250 482/192/250
f 647/195/251 650/198/251 486/197/251 480/196/251
f 482/199/252 488/202/252 487/201/252 481/200/252
f 753/203/253 755/206/253 496/205/253 492/204/253
f 504/207/32 490/210/32 489/209/32 502/208/32
f 757/211/254 753/203/254 492/204/254 503/212/254
f 658/213/255 652/216/255 490/215/255 504/214/255
f 652/216/256 654/218/256 494/217/256 490/215/256
f 492/190/257 496/220/257 495/219/257 491/189/257
f 490/210/258 494/222/258 493/221/258 489/209/258
f 650/223/255 656/226/255 500/225/255 486/224/255
f 751/194/254 756/228/254 498/227/254 488/193/254
f 486/164/32 500/230/32 499/229/32 485/163/32
f 488/231/31 498/234/31 497/233/31 487/232/31
f 656/226/255 658/213/255 504/214/255 500/225/255
f 756/228/254 757/211/254 503/212/254 498/227/254
f 499/235/259 507/238/259 508/237/259 502/236/259
f 498/234/31 503/187/31 501/188/31 497/233/31
f 506/239/32 505/242/32 508/241/32 507/240/32
f 504/214/260 505/244/260 506/243/260 500/225/260
f 502/245/261 508/248/261 505/247/261 504/246/261
f 500/249/262 506/252/262 507/251/262 499/250/262
f 287/253/68 660/256/68 509/255/68 566/254/68
f 534/257/263 561/260/263 97/259/263 104/258/263
f 548/261/264 566/254/264 509/255/264 520/262/264
f 762/263/265 734/266/265 510/265/265 511/264/265
f 731/267/266 758/270/266 515/269/266 484/268/266
f 758/271/267 759/274/267 514/273/267 515/272/267
f 766/275/268 760/278/268 513/277/268 608/276/268
f 760/278/269 761/280/269 512/279/269 513/277/269
f 761/280/270 762/282/270 511/281/270 512/279/270
f 572/283/271 560/286/271 516/285/271 483/284/271
f 560/287/272 555/290/272 517/289/272 516/288/272
f 615/291/273 554/294/273 518/293/273 603/292/273
f 554/294/274 549/296/274 519/295/274 518/293/274
f 549/296/275 548/298/275 520/297/275 519/295/275
f 567/299/276 543/302/276 108/301/276 69/300/276
f 543/303/277 542/306/277 107/305/277 108/304/277
f 616/307/278 537/310/278 106/309/278 211/308/278
f 537/310/279 535/312/279 105/311/279 106/309/279
f 535/312/280 534/314/280 104/313/280 105/311/280
f 723/327/281 763/330/281 521/329/281 438/328/281
f 602/331/282 533/333/282 522/332/282 439/14/282
f 584/338/283 532/341/283 119/340/283 8/339/283
f 738/342/284 764/81/284 526/82/284 446/343/284
f 628/344/285 668/77/285 524/78/285 435/345/285
f 446/346/92 526/349/92 525/348/92 436/347/92
f 435/350/93 524/353/93 523/352/93 445/351/93
f 427/57/286 437/58/286 530/63/286 528/61/286
f 597/69/95 440/9/95 529/27/95 613/59/95
f 440/9/287 429/10/287 527/28/287 529/27/287
f 624/33/288 427/34/288 528/26/288 669/23/288
f 585/35/98 5/36/98 129/22/98 614/21/98
f 536/354/289 541/356/289 612/355/289
f 611/357/290 540/360/290 539/359/290 610/358/290
f 609/361/291 538/363/291 531/362/291
f 612/355/292 541/356/292 540/365/292 611/364/292
f 610/358/293 539/359/293 538/363/293 609/361/293
f 541/356/294 547/367/294 546/366/294 540/365/294
f 539/359/295 545/369/295 544/368/295 538/363/295
f 536/354/296 547/367/296 541/356/296
f 540/360/297 546/370/297 545/369/297 539/359/297
f 538/371/298 544/373/298 531/372/298
f 547/374/299 553/377/299 552/376/299 546/375/299
f 545/378/300 551/381/300 550/380/300 544/379/300
f 536/354/301 553/382/301 547/367/301
f 546/375/302 552/376/302 551/381/302 545/378/302
f 544/373/303 550/383/303 531/372/303
f 553/377/304 559/385/304 558/384/304 552/376/304
f 551/381/305 557/387/305 556/386/305 550/380/305
f 536/354/306 559/388/306 553/382/306
f 552/376/307 558/384/307 557/387/307 551/381/307
f 550/383/308 556/389/308 531/372/308
f 559/385/309 565/391/309 564/390/309 558/384/309
f 557/392/310 563/394/310 562/393/310 556/389/310
f 536/354/311 565/395/311 559/388/311
f 558/384/312 564/390/312 563/396/312 557/387/312
f 556/389/313 562/393/313 531/372/313
f 565/397/314 571/400/314 570/399/314 564/398/314
f 563/394/315 569/402/315 568/401/315 562/393/315
f 536/354/316 571/403/316 565/395/316
f 564/398/317 570/399/317 569/405/317 563/404/317
f 562/393/318 568/401/318 531/372/318
f 571/400/319 577/407/319 576/406/319 570/399/319
f 569/402/320 575/409/320 574/408/320 568/401/320
f 536/354/321 577/410/321 571/403/321
f 570/399/25 576/406/25 575/411/25 569/405/25
f 568/401/322 574/408/322 531/372/322
f 577/407/323 583/413/323 582/412/323 576/406/323
f 575/409/324 581/415/324 580/414/324 574/408/324
f 536/354/325 583/416/325 577/410/325
f 576/406/326 582/412/326 581/417/326 575/411/326
f 574/408/327 580/414/327 531/372/327
f 583/418/328 589/421/328 588/420/328 582/419/328
f 581/415/329 587/423/329 586/422/329 580/414/329
f 536/354/330 589/424/330 583/416/330
f 582/419/331 588/420/331 587/426/331 581/425/331
f 580/414/332 586/422/332 531/372/332
f 589/421/333 595/428/333 594/427/333 588/420/333
f 587/426/334 593/431/334 592/430/334 586/429/334
f 536/354/335 595/432/335 589/424/335
f 588/420/336 594/427/336 593/431/336 587/426/336
f 586/422/337 592/433/337 531/372/337
f 595/428/338 601/435/338 600/434/338 594/427/338
f 593/431/339 599/437/339 598/436/339 592/430/339
f 536/354/340 601/438/340 595/432/340
f 594/427/341 600/434/341 599/437/341 593/431/341
f 592/433/342 598/439/342 531/372/342
f 601/438/343 607/442/343 606/441/343 600/440/343
f 599/443/344 605/446/344 604/445/344 598/444/344
f 536/354/345 607/442/345 601/438/345
f 600/434/346 606/448/346 605/447/346 599/437/346
f 598/439/347 604/449/347 531/372/347
f 607/442/348 612/355/348 611/364/348 606/441/348
f 605/446/349 610/358/349 609/361/349 604/445/349
f 536/354/350 612/355/350 607/442/350
f 606/450/351 611/357/351 610/358/351 605/446/351
f 604/445/352 609/361/352 531/362/352
f 542/306/353 616/307/353 211/308/353 107/305/353
f 555/290/354 615/291/354 603/292/354 517/289/354
f 759/274/268 766/275/268 608/276/268 514/273/268
f 554/451/355 618/454/355 222/453/355 101/452/355
f 514/455/356 608/456/356 616/307/356 542/306/356
f 437/58/98 585/35/98 614/21/98 530/63/98
f 7/457/95 597/69/95 613/59/95 128/458/95
f 438/328/357 521/329/357 532/341/357 584/338/357
f 6/459/358 121/460/358 533/333/358 602/331/358
f 512/461/359 511/462/359 534/314/359 535/312/359
f 513/463/360 512/461/360 535/312/360 537/310/360
f 608/456/361 513/463/361 537/310/361 616/307/361
f 515/464/362 514/455/362 542/306/362 543/303/362
f 484/268/363 515/269/363 543/302/363 567/299/363
f 102/465/364 103/466/364 548/298/364 549/296/364
f 101/467/365 102/465/365 549/296/365 554/294/365
f 99/470/366 100/471/366 555/290/366 560/287/366
f 68/472/367 99/473/367 560/286/367 572/283/367
f 103/474/368 96/475/368 566/254/368 548/261/368
f 511/264/369 510/265/369 561/260/369 534/257/369
f 270/476/68 287/253/68 566/254/68 96/475/68
f 121/477/370 68/478/370 572/182/370 533/179/370
f 11/479/235 579/60/235 584/70/235 8/480/235
f 7/457/3 16/481/3 591/51/3 597/69/3
f 521/482/371 484/483/371 567/68/371 532/65/371
f 128/458/16 613/59/16 579/60/16 11/479/16
f 380/484/15 767/53/15 590/54/15 20/485/15
f 16/481/13 20/486/13 590/52/13 591/51/13
f 443/48/14 445/49/14 573/46/14 578/38/14
f 437/58/11 443/48/11 578/38/11 585/35/11
f 530/63/6 614/21/6 596/17/6 441/62/6
f 441/62/227 596/17/227 602/18/227 439/64/227
f 224/487/372 221/490/372 619/489/372 617/488/372
f 221/490/373 222/492/373 618/491/373 619/489/373
f 555/493/374 617/496/374 619/495/374 615/494/374
f 100/497/375 224/500/375 617/499/375 555/498/375
f 615/494/374 619/495/374 618/503/374 554/502/374
f 621/504/32 623/507/32 622/506/32 620/505/32
f 468/134/186 621/509/186 620/508/186 467/133/186
f 472/143/44 623/511/44 621/510/44 468/142/44
f 471/512/188 622/515/188 623/514/188 472/513/188
f 17/516/15 573/519/15 671/518/15 237/517/15
f 517/521/268 603/524/268 670/523/268 662/522/268
f 672/527/288 624/33/288 669/23/288 717/528/288
f 674/529/285 687/530/285 668/77/285 628/344/285
f 445/531/284 523/534/284 667/533/284 629/532/284
f 439/14/281 522/332/281 666/537/281 630/13/281
f 519/543/270 520/546/270 665/545/270 664/544/270
f 518/547/269 519/543/269 664/544/269 663/548/269
f 603/524/268 518/547/268 663/548/268 670/523/268
f 516/549/267 517/521/267 662/522/267 661/550/267
f 483/284/266 516/285/266 661/552/266 649/551/266
f 520/262/265 509/255/265 660/256/265 665/553/265
f 316/554/68 686/555/68 660/256/68 287/253/68
f 499/235/254 502/236/254 659/557/254 657/556/254
f 684/558/255 685/559/255 658/213/255 656/226/255
f 485/560/254 499/235/254 657/556/254 651/561/254
f 702/562/255 684/558/255 656/226/255 650/223/255
f 704/563/256 706/564/256 654/218/256 652/216/256
f 685/559/255 704/563/255 652/216/255 658/213/255
f 502/236/254 489/566/254 653/565/254 659/557/254
f 489/566/253 493/568/253 655/567/253 653/565/253
f 700/569/251 702/570/251 650/198/251 647/195/251
f 479/571/250 485/560/250 651/561/250 648/572/250
f 522/573/249 483/576/249 649/575/249 666/574/249
f 698/580/376 700/581/376 647/170/376 645/160/376
f 475/582/377 479/585/377 648/584/377 646/583/377
f 688/586/378 698/580/378 645/160/378 625/16/378
f 431/587/379 475/582/379 646/583/379 626/588/379
f 681/589/25 682/590/25 643/144/25 641/141/25
f 471/512/15 472/513/15 643/592/15 644/591/15
f 680/593/203 681/594/203 641/136/203 639/135/203
f 463/595/43 467/147/43 642/597/43 640/596/43
f 467/147/30 471/148/30 644/598/30 642/597/30
f 679/599/204 680/600/204 639/122/204 637/108/204
f 678/601/29 679/599/29 637/108/29 635/105/29
f 459/602/38 463/595/38 640/596/38 638/603/38
f 677/604/25 678/605/25 635/98/25 633/92/25
f 455/606/34 459/602/34 638/603/34 636/607/34
f 676/608/239 677/604/239 633/92/239 631/80/239
f 447/609/238 451/612/238 634/611/238 632/610/238
f 451/612/30 455/614/30 636/613/30 634/611/30
f 523/534/237 447/609/237 632/610/237 667/533/237
f 687/530/236 676/608/236 631/80/236 668/77/236
f 573/519/15 445/616/15 629/615/15 671/518/15
f 672/527/231 673/617/231 627/29/231 624/33/231
f 673/617/230 674/618/230 628/32/230 627/29/230
f 717/528/228 669/23/228 626/24/228 689/619/228
f 675/620/226 688/586/226 625/16/226 630/13/226
f 723/327/226 736/621/226 688/586/226 675/620/226
f 765/622/228 717/528/228 689/619/228 737/623/228
f 721/624/230 722/625/230 674/618/230 673/617/230
f 720/626/231 721/624/231 673/617/231 672/527/231
f 735/627/236 724/628/236 676/608/236 687/530/236
f 724/628/239 725/629/239 677/604/239 676/608/239
f 725/629/25 726/630/25 678/605/25 677/604/25
f 726/631/29 727/632/29 679/599/29 678/601/29
f 727/632/212 728/633/212 680/600/212 679/599/212
f 728/634/211 729/635/211 681/594/211 680/593/211
f 729/636/25 730/637/25 682/590/25 681/589/25
f 736/621/380 746/638/380 698/580/380 688/586/380
f 746/638/381 748/639/381 700/581/381 698/580/381
f 748/644/251 750/645/251 702/570/251 700/569/251
f 733/646/255 752/647/255 704/563/255 685/559/255
f 752/647/256 754/648/256 706/564/256 704/563/256
f 750/649/255 732/650/255 684/558/255 702/562/255
f 732/650/255 733/646/255 685/559/255 684/558/255
f 376/651/68 734/266/68 686/555/68 316/554/68
f 722/660/285 735/627/285 687/530/285 674/529/285
f 720/626/288 672/527/288 717/528/288 765/622/288
f 237/517/15 671/518/15 719/662/15 320/661/15
f 662/522/268 670/523/268 718/664/268 711/663/268
f 629/532/284 667/533/284 716/666/284 690/665/284
f 630/13/281 666/537/281 715/667/281 675/620/281
f 664/544/270 665/545/270 714/669/270 713/668/270
f 663/548/269 664/544/269 713/668/269 712/670/269
f 670/523/268 663/548/268 712/670/268 718/664/268
f 661/550/267 662/522/267 711/663/267 710/671/267
f 649/551/266 661/552/266 710/673/266 683/672/266
f 665/553/265 660/256/265 686/555/265 714/674/265
f 657/556/254 659/557/254 709/676/254 708/675/254
f 651/561/254 657/556/254 708/675/254 703/677/254
f 659/557/254 653/565/254 705/678/254 709/676/254
f 653/565/253 655/567/253 707/679/253 705/678/253
f 648/572/250 651/561/250 703/677/250 701/680/250
f 666/574/249 649/575/249 683/682/249 715/681/249
f 646/583/382 648/584/382 701/684/382 699/683/382
f 626/588/383 646/583/383 699/683/383 689/685/383
f 644/591/15 643/592/15 682/687/15 697/686/15
f 640/596/193 642/597/193 696/689/193 695/688/193
f 642/597/30 644/598/30 697/690/30 696/689/30
f 638/603/195 640/596/195 695/688/195 694/691/195
f 636/607/34 638/603/34 694/691/34 693/692/34
f 632/610/238 634/611/238 692/694/238 691/693/238
f 634/611/30 636/613/30 693/695/30 692/694/30
f 667/533/237 632/610/237 691/693/237 716/666/237
f 671/518/15 629/615/15 690/696/15 719/662/15
f 97/259/68 561/260/68 376/651/68 367/697/68
f 429/700/288 720/626/288 765/622/288 527/701/288
f 436/702/285 525/703/285 735/627/285 722/660/285
f 561/260/68 510/265/68 734/266/68 376/651/68
f 497/711/255 501/712/255 733/646/255 732/650/255
f 487/713/255 497/711/255 732/650/255 750/649/255
f 491/714/256 495/715/256 754/648/256 752/647/256
f 501/712/255 491/714/255 752/647/255 733/646/255
f 481/200/251 487/201/251 750/645/251 748/644/251
f 477/719/384 481/720/384 748/639/384 746/638/384
f 430/721/385 477/719/385 746/638/385 736/621/385
f 469/722/25 473/723/25 730/637/25 729/636/25
f 465/724/42 469/725/42 729/635/42 728/634/42
f 461/726/33 465/727/33 728/633/33 727/632/33
f 457/728/29 461/726/29 727/632/29 726/631/29
f 453/729/25 457/730/25 726/630/25 725/629/25
f 449/731/239 453/729/239 725/629/239 724/628/239
f 525/703/236 449/731/236 724/628/236 735/627/236
f 429/700/231 434/732/231 721/624/231 720/626/231
f 434/732/230 436/733/230 722/625/230 721/624/230
f 527/701/228 765/622/228 737/623/228 432/734/228
f 438/328/226 430/721/226 736/621/226 723/327/226
f 320/661/15 719/662/15 767/53/15 380/484/15
f 711/663/268 718/664/268 766/275/268 759/274/268
f 690/665/284 716/666/284 764/81/284 738/342/284
f 675/620/281 715/667/281 763/330/281 723/327/281
f 713/668/270 714/669/270 762/282/270 761/280/270
f 712/670/269 713/668/269 761/280/269 760/278/269
f 718/664/268 712/670/268 760/278/268 766/275/268
f 710/671/267 711/663/267 759/274/267 758/271/267
f 683/672/266 710/673/266 758/270/266 731/267/266
f 714/674/265 686/555/265 734/266/265 762/263/265
f 708/675/254 709/676/254 757/211/254 756/228/254
f 703/677/254 708/675/254 756/228/254 751/194/254
f 709/676/254 705/678/254 753/203/254 757/211/254
f 705/678/253 707/679/253 755/206/253 753/203/253
f 701/680/250 703/677/250 751/194/250 749/191/250
f 715/681/249 683/682/249 731/186/249 763/183/249
f 699/683/386 701/684/386 749/168/386 747/158/386
f 689/685/387 699/683/387 747/158/387 737/155/387
f 697/686/15 682/687/15 730/140/15 745/137/15
f 695/688/198 696/689/198 744/127/198 743/104/198
f 696/689/30 697/690/30 745/130/30 744/127/30
f 694/691/197 695/688/197 743/104/197 742/96/197
f 693/692/34 694/691/34 742/96/34 741/93/34
f 691/693/238 692/694/238 740/85/238 739/84/238
f 692/694/30 693/695/30 741/88/30 740/85/30
f 716/666/237 691/693/237 739/84/237 764/81/237
f 719/662/15 690/696/15 738/56/15 767/53/15
f 768/735/388 771/738/388 770/737/388 769/736/388
f 654/739/389 655/742/389 768/741/389 769/740/389
f 494/217/390 654/218/390 769/744/390 770/743/390
f 493/221/391 494/222/391 770/746/391 771/745/391
f 655/567/392 493/568/392 771/748/392 768/747/392
f 772/749/388 775/752/388 774/751/388 773/750/388
f 706/753/393 707/756/393 772/755/393 773/754/393
f 654/218/255 706/564/255 773/758/255 774/757/255
f 655/759/394 654/762/394 774/761/394 775/760/394
f 707/679/254 655/567/254 775/764/254 772/763/254
f 776/765/388 779/768/388 778/767/388 777/766/388
f 754/769/395 755/772/395 776/771/395 777/770/395
f 706/564/255 754/648/255 777/774/255 778/773/255
f 707/775/396 706/778/396 778/777/396 779/776/396
f 755/206/254 707/679/254 779/780/254 776/779/254
f 780/781/388 783/784/388 782/783/388 781/782/388
f 495/219/397 496/220/397 780/786/397 781/785/397
f 754/648/390 495/715/390 781/788/390 782/787/390
f 755/789/398 754/792/398 782/791/398 783/790/398
f 496/205/392 755/206/392 783/794/392 780/793/392
