# Blender 5.0.1
# www.blender.org
mtllib new chars.mtl
o Plane.001
v 1.722703 3.357876 -0.556778
v 1.968042 3.357876 -0.556778
v 1.722703 3.303576 -0.796032
v 1.968042 3.303576 -0.796032
v 1.747970 3.103023 -0.701113
v 1.747970 3.132246 -0.531255
v 1.942703 3.132246 -0.531255
v 1.942703 3.103023 -0.701113
v 1.722703 3.330726 -0.676405
v 1.968042 3.330726 -0.676405
v 1.747970 3.110696 -0.626206
v 1.942703 3.110696 -0.626206
v 1.968042 3.317151 -0.736219
v 1.942703 3.099921 -0.673682
v 1.722703 3.317151 -0.736219
v 1.747970 3.099921 -0.673682
v 1.800553 2.953932 -0.663980
v 1.795845 2.947178 -0.624705
v 1.892055 2.945252 -0.613503
v 1.896764 2.952006 -0.652778
v 1.874861 3.077019 -0.656013
v 1.875614 3.078832 -0.631889
v 1.816455 3.077155 -0.654199
v 1.817209 3.078968 -0.630075
v 1.835660 3.389369 -0.556778
v 1.835660 3.335068 -0.796032
v 1.820538 3.132246 -0.531255
v 1.820538 3.103023 -0.701113
v 1.821275 3.114017 -0.589199
v 1.835660 3.362218 -0.676405
v 1.821275 3.103547 -0.688983
v 1.835660 3.348644 -0.736219
v 1.820695 2.941838 -0.593653
v 1.832062 2.958144 -0.688471
v 1.834848 3.080210 -0.613548
v 1.833029 3.075833 -0.671789
v 1.864923 3.389369 -0.556778
v 1.877943 3.132246 -0.531255
v 1.864923 3.362218 -0.676405
v 1.864923 3.348644 -0.736219
v 1.857221 3.075777 -0.672541
v 1.864923 3.335068 -0.796032
v 1.877943 3.103023 -0.701113
v 1.877058 3.114017 -0.589199
v 1.877058 3.103547 -0.688983
v 1.860547 2.941040 -0.589012
v 1.871914 2.957346 -0.683831
v 1.859040 3.080154 -0.614299
v 1.614028 2.899467 -0.760916
v 1.590124 2.892530 -0.573593
v 2.078580 2.890551 -0.520163
v 2.102484 2.897488 -0.707486
v 1.716287 2.887045 -0.425487
v 1.773997 2.903793 -0.877724
v 1.918612 2.886225 -0.403355
v 1.976322 2.902973 -0.855593
v 1.889696 2.446399 -0.687871
v 1.870436 2.440366 -0.555821
v 1.822172 2.446694 -0.694333
v 1.802912 2.440661 -0.562283
v 1.931802 2.444423 -0.644625
v 1.923824 2.441925 -0.589928
v 1.760807 2.442637 -0.605529
v 1.768785 2.445136 -0.660226
v 1.771158 2.351828 -0.660004
v 1.763425 2.349405 -0.606982
v 1.921450 2.348714 -0.591858
v 1.929184 2.351137 -0.644880
v 1.804241 2.347490 -0.565060
v 1.822911 2.353338 -0.693066
v 1.869697 2.347204 -0.558796
v 1.888368 2.353052 -0.686802
v 1.610634 2.154555 -0.728523
v 1.610634 2.154555 -0.563911
v 2.082918 2.154555 -0.563911
v 2.082918 2.154555 -0.728523
v 1.775246 2.154555 -0.563911
v 1.775246 2.154555 -0.762397
v 1.918306 2.154555 -0.563911
v 1.918306 2.154555 -0.762397
v 2.032464 2.769181 -0.584081
v 2.032464 2.875899 -0.584081
v 2.032464 2.769181 -0.693297
v 2.032464 2.875899 -0.693297
v 2.547389 2.769181 -0.584081
v 2.547389 2.847305 -0.584081
v 2.547389 2.769181 -0.693297
v 2.547389 2.847305 -0.693297
v 2.623446 2.842375 -0.693297
v 2.623446 2.769181 -0.693297
v 2.623446 2.769181 -0.584081
v 2.623446 2.842375 -0.584081
v 2.931767 2.827554 -0.693297
v 2.931767 2.768076 -0.693297
v 2.928676 2.768076 -0.584081
v 2.928676 2.827554 -0.584081
v 2.987978 2.840554 -0.705575
v 2.997838 2.810313 -0.705575
v 2.997838 2.810313 -0.562334
v 2.987978 2.840554 -0.562334
v 2.032464 2.769181 -0.620614
v 2.032464 2.875899 -0.620614
v 2.547389 2.769181 -0.620614
v 2.547389 2.847305 -0.620614
v 2.623446 2.769181 -0.620614
v 2.623446 2.842375 -0.620614
v 2.894441 2.768076 -0.620614
v 2.914242 2.827554 -0.620614
v 2.997838 2.810313 -0.609814
v 2.987978 2.840554 -0.609814
v 3.133212 2.840964 -0.551585
v 3.133212 2.840964 -0.515051
v 3.133729 2.802500 -0.515051
v 3.133729 2.802500 -0.551585
v 3.099439 2.849339 -0.717921
v 3.106050 2.799817 -0.717921
v 3.106050 2.799817 -0.595946
v 3.099439 2.849339 -0.595946
v 2.032464 2.875899 -0.639006
v 2.547389 2.769181 -0.639006
v 2.623446 2.769181 -0.639006
v 2.894441 2.768076 -0.639006
v 2.997838 2.810313 -0.637660
v 2.032464 2.769181 -0.639006
v 2.547389 2.847305 -0.639006
v 2.623446 2.842375 -0.639006
v 2.914242 2.827554 -0.639006
v 2.987978 2.840554 -0.636463
v 3.106050 2.799817 -0.626812
v 3.099439 2.849339 -0.626812
v 2.032464 2.875899 -0.659893
v 2.547389 2.769181 -0.659893
v 2.623446 2.769181 -0.659893
v 2.894441 2.768076 -0.659893
v 2.997838 2.810313 -0.660113
v 3.106050 2.799817 -0.661863
v 2.032464 2.769181 -0.659893
v 2.547389 2.847305 -0.659893
v 2.623446 2.842375 -0.659893
v 2.914242 2.827554 -0.659893
v 2.987978 2.840554 -0.666726
v 3.099439 2.849339 -0.661863
v 2.032464 2.875899 -0.676595
v 2.547389 2.769181 -0.676595
v 2.623446 2.769181 -0.676595
v 2.914242 2.768076 -0.676595
v 2.997838 2.810313 -0.678069
v 3.106050 2.799817 -0.689892
v 2.032464 2.769181 -0.676595
v 2.547389 2.847305 -0.676595
v 2.623446 2.842375 -0.676595
v 2.914242 2.827554 -0.676595
v 2.987978 2.840554 -0.690926
v 3.099439 2.849339 -0.689892
v 3.258596 2.807802 -0.589054
v 3.258406 2.842427 -0.589054
v 3.258406 2.842427 -0.558628
v 3.258596 2.807802 -0.558628
v 3.258596 2.807802 -0.651593
v 3.258406 2.842427 -0.651593
v 3.258406 2.842427 -0.617041
v 3.258596 2.807802 -0.617041
v 3.258596 2.807802 -0.689445
v 3.258406 2.842427 -0.689445
v 3.258406 2.842427 -0.661815
v 3.258596 2.807802 -0.661815
v 3.229645 2.807802 -0.753429
v 3.229455 2.842427 -0.753429
v 3.229455 2.842427 -0.725799
v 3.229645 2.807802 -0.725799
v 1.942132 1.529811 -0.587736
v 1.942132 1.529811 -0.704697
v 2.059093 1.529811 -0.587736
v 2.059093 1.529811 -0.704697
v 1.942132 1.438696 -0.704697
v 1.942132 1.438696 -0.587736
v 2.059093 1.438696 -0.704697
v 2.059093 1.438696 -0.587736
v 2.003353 0.835817 -0.698144
v 2.003353 0.835817 -0.582140
v 2.064688 0.835817 -0.698144
v 2.064688 0.835817 -0.582140
v 2.003353 0.752295 -0.698144
v 2.003353 0.752295 -0.582140
v 2.064688 0.752295 -0.698144
v 2.064688 0.752295 -0.582140
v 1.995428 0.635364 -0.709107
v 1.995428 0.635364 -0.583326
v 2.121208 0.635364 -0.709107
v 2.121208 0.635364 -0.583326
v 2.012517 0.727966 -0.488902
v 2.060725 0.727966 -0.488902
v 2.006288 0.636060 -0.484927
v 2.105149 0.636060 -0.484927
v 2.012517 0.685638 -0.375810
v 2.060725 0.685638 -0.375810
v 2.006288 0.639576 -0.371835
v 2.105149 0.639576 -0.371835
v 1.984629 0.685257 -0.752111
v 1.984629 0.685257 -0.595847
v 2.112411 0.685257 -0.595847
v 2.112411 0.685257 -0.752111
v 1.997676 0.673113 -0.472305
v 2.098111 0.673113 -0.472305
v 1.997676 0.653740 -0.327227
v 2.098111 0.653740 -0.327227
v 1.930433 1.529811 -0.646217
v 1.889490 2.104911 -0.663154
v 2.066439 1.529811 -0.646217
v 2.094144 2.154555 -0.646217
v 1.930433 1.438696 -0.646217
v 2.066439 1.438696 -0.646217
v 2.001624 0.835817 -0.640142
v 2.072946 0.835817 -0.640142
v 2.001624 0.752295 -0.640142
v 2.072946 0.752295 -0.640142
v 1.995428 0.635364 -0.646217
v 2.121208 0.635364 -0.646217
v 2.112411 0.685258 -0.673979
v 1.984629 0.685258 -0.673979
v 1.661088 2.769181 -0.584081
v 1.661088 2.875899 -0.584081
v 1.661088 2.769181 -0.693297
v 1.661088 2.875899 -0.693297
v 1.146163 2.769181 -0.584081
v 1.146163 2.847305 -0.584081
v 1.146163 2.769181 -0.693297
v 1.146163 2.847305 -0.693297
v 1.070107 2.842375 -0.693297
v 1.070107 2.769181 -0.693297
v 1.070107 2.769181 -0.584081
v 1.070107 2.842375 -0.584081
v 0.761785 2.827554 -0.693297
v 0.761785 2.768076 -0.693297
v 0.764876 2.768076 -0.584081
v 0.764876 2.827554 -0.584081
v 0.705574 2.840554 -0.705575
v 0.695714 2.810313 -0.705575
v 0.695714 2.810313 -0.562334
v 0.705574 2.840554 -0.562334
v 1.661088 2.769181 -0.620614
v 1.661088 2.875899 -0.620614
v 1.146163 2.769181 -0.620614
v 1.146163 2.847305 -0.620614
v 1.070107 2.769181 -0.620614
v 1.070107 2.842375 -0.620614
v 0.799111 2.768076 -0.620614
v 0.779310 2.827554 -0.620614
v 0.695714 2.810313 -0.609814
v 0.705574 2.840554 -0.609814
v 0.560340 2.840964 -0.551585
v 0.560340 2.840964 -0.515051
v 0.559823 2.802500 -0.515051
v 0.559823 2.802500 -0.551585
v 0.594113 2.849339 -0.717921
v 0.587502 2.799817 -0.717921
v 0.587502 2.799817 -0.595946
v 0.594113 2.849339 -0.595946
v 1.661088 2.875899 -0.639006
v 1.146163 2.769181 -0.639006
v 1.070107 2.769181 -0.639006
v 0.799111 2.768076 -0.639006
v 0.695714 2.810313 -0.637660
v 1.661088 2.769181 -0.639006
v 1.146163 2.847305 -0.639006
v 1.070107 2.842375 -0.639006
v 0.779310 2.827554 -0.639006
v 0.705574 2.840554 -0.636463
v 0.587502 2.799817 -0.626812
v 0.594113 2.849339 -0.626812
v 1.661088 2.875899 -0.659893
v 1.146163 2.769181 -0.659893
v 1.070107 2.769181 -0.659893
v 0.799111 2.768076 -0.659893
v 0.695714 2.810313 -0.660113
v 0.587502 2.799817 -0.661863
v 1.661088 2.769181 -0.659893
v 1.146163 2.847305 -0.659893
v 1.070107 2.842375 -0.659893
v 0.779310 2.827554 -0.659893
v 0.705574 2.840554 -0.666726
v 0.594113 2.849339 -0.661863
v 1.661088 2.875899 -0.676595
v 1.146163 2.769181 -0.676595
v 1.070107 2.769181 -0.676595
v 0.779310 2.768076 -0.676595
v 0.695714 2.810313 -0.678069
v 0.587502 2.799817 -0.689892
v 1.661088 2.769181 -0.676595
v 1.146163 2.847305 -0.676595
v 1.070107 2.842375 -0.676595
v 0.779310 2.827554 -0.676595
v 0.705574 2.840554 -0.690926
v 0.594113 2.849339 -0.689892
v 0.434956 2.807802 -0.589054
v 0.435146 2.842427 -0.589054
v 0.435146 2.842427 -0.558628
v 0.434956 2.807802 -0.558628
v 0.434956 2.807802 -0.651593
v 0.435146 2.842427 -0.651593
v 0.435146 2.842427 -0.617041
v 0.434956 2.807802 -0.617041
v 0.434956 2.807802 -0.689445
v 0.435146 2.842427 -0.689445
v 0.435146 2.842427 -0.661815
v 0.434956 2.807802 -0.661815
v 0.463907 2.807802 -0.753429
v 0.464097 2.842427 -0.753429
v 0.464097 2.842427 -0.725799
v 0.463907 2.807802 -0.725799
v 1.751420 1.529811 -0.587736
v 1.968042 3.323939 -0.706312
v 1.751420 1.529811 -0.704697
v 1.634459 1.529811 -0.587736
v 1.747970 3.105308 -0.649944
v 1.634459 1.529811 -0.704697
v 1.722703 3.323939 -0.706312
v 1.751420 1.438696 -0.704697
v 1.751420 1.438696 -0.587736
v 1.634459 1.438696 -0.704697
v 1.634459 1.438696 -0.587736
v 1.690199 0.835817 -0.698144
v 1.690199 0.835817 -0.582140
v 1.628864 0.835817 -0.698144
v 1.628864 0.835817 -0.582140
v 1.690199 0.752295 -0.698144
v 1.690199 0.752295 -0.582140
v 1.628864 0.752295 -0.698144
v 1.628864 0.752295 -0.582140
v 1.698124 0.635364 -0.709107
v 1.698124 0.635364 -0.583326
v 1.572344 0.635364 -0.709107
v 1.572344 0.635364 -0.583326
v 1.681035 0.727966 -0.488902
v 1.632827 0.727966 -0.488902
v 1.687264 0.636060 -0.484927
v 1.588403 0.636060 -0.484927
v 1.681035 0.685638 -0.375810
v 1.632827 0.685638 -0.375810
v 1.687264 0.639576 -0.371835
v 1.588403 0.639576 -0.371835
v 1.708923 0.685257 -0.752111
v 1.708923 0.685257 -0.595847
v 1.581141 0.685257 -0.595847
v 1.581141 0.685257 -0.752111
v 1.695876 0.673113 -0.472305
v 1.595441 0.673113 -0.472305
v 1.695876 0.653740 -0.327227
v 1.595441 0.653740 -0.327227
v 1.763119 1.529811 -0.646217
v 1.804062 2.104911 -0.663154
v 1.627113 1.529811 -0.646217
v 1.599408 2.154555 -0.646217
v 1.763119 1.438696 -0.646217
v 1.627113 1.438696 -0.646217
v 1.691928 0.835817 -0.640142
v 1.620606 0.835817 -0.640142
v 1.691928 0.752295 -0.640142
v 1.620606 0.752295 -0.640142
v 1.698124 0.635364 -0.646217
v 1.572344 0.635364 -0.646217
v 1.581141 0.685258 -0.673979
v 1.708923 0.685258 -0.673979
v 1.942703 3.105308 -0.649944
v 1.798199 2.950555 -0.644343
v 1.894409 2.948629 -0.633140
v 1.816832 3.078062 -0.642137
v 1.875237 3.077925 -0.643951
v 1.835660 3.355431 -0.706312
v 1.864923 3.355431 -0.706312
v 1.602076 2.895998 -0.667255
v 2.090532 2.894020 -0.613824
v 1.927813 2.443174 -0.617276
v 1.764796 2.443887 -0.632877
v 1.767292 2.350616 -0.633493
v 1.925317 2.349926 -0.618369
v 1.930219 1.842183 -0.733547
v 2.071005 1.842183 -0.716610
v 2.080292 1.842183 -0.646217
v 1.931739 1.842183 -0.646217
v 2.071005 1.842183 -0.575823
v 1.930219 1.842183 -0.575823
v 1.956598 3.266938 -0.547874
v 1.734147 3.266938 -0.547874
v 1.956598 3.223205 -0.756862
v 1.734147 3.223205 -0.756862
v 1.734147 3.242321 -0.656341
v 1.956598 3.242321 -0.656341
v 1.734147 3.230012 -0.710575
v 1.956598 3.230012 -0.710575
v 1.817045 3.223205 -0.756862
v 1.834949 3.297465 -0.547874
v 1.882620 3.223205 -0.756862
v 1.864716 3.297465 -0.547874
v 1.956598 3.236166 -0.683458
v 1.734147 3.236166 -0.683458
v 1.958852 3.213206 -0.532737
v 1.958852 3.172864 -0.739922
v 1.731678 3.188066 -0.643507
v 1.958852 3.188066 -0.643507
v 1.731678 3.175496 -0.698892
v 1.958852 3.175496 -0.698892
v 1.816336 3.172864 -0.739922
v 1.816336 3.213206 -0.532737
v 1.883304 3.172864 -0.739922
v 1.883304 3.213206 -0.532737
v 1.958852 3.181781 -0.671200
v 1.731678 3.181781 -0.671200
v 1.731678 3.213206 -0.532737
v 1.731678 3.172864 -0.739922
v 1.866944 3.234470 -0.494671
v 1.832579 3.234470 -0.494671
v 1.833573 3.213246 -0.495696
v 1.865638 3.213246 -0.495696
vn -0.2854 -0.9346 0.2121
vn 0.0201 0.9977 0.0655
vn -0.0000 -0.0183 -0.9998
vn -0.9761 0.2175 0.0015
vn 0.9795 0.1963 -0.0446
vn -0.0000 0.4857 0.8741
vn -0.9799 0.1947 -0.0442
vn -0.0467 0.9668 -0.2513
vn 0.9757 0.2193 0.0015
vn -0.9838 -0.1630 -0.0741
vn 0.2605 -0.9651 -0.0254
vn 0.6575 -0.1276 0.7425
vn -0.6443 -0.1621 -0.7474
vn 0.9872 -0.1517 0.0498
vn 0.3914 0.9056 -0.1633
vn -0.3498 0.7287 -0.5888
vn 0.2034 0.7662 0.6095
vn -0.3681 0.9164 -0.1572
vn 0.0084 0.5175 0.8556
vn 0.3370 0.6979 -0.6320
vn 0.7297 -0.1581 -0.6652
vn -0.0618 -0.1210 0.9907
vn -0.2685 -0.9589 -0.0918
vn 0.2624 -0.9410 0.2136
vn 0.0418 0.9670 -0.2514
vn -0.0179 0.9977 0.0654
vn -0.7449 -0.1336 0.6537
vn -0.2090 0.7687 0.6045
vn -0.0072 0.5903 -0.8072
vn 0.0576 -0.1630 -0.9849
vn 0.0260 -0.9559 -0.2927
vn -0.0000 0.9539 -0.3001
vn -0.0000 0.9991 -0.0431
vn 0.9292 0.3438 0.1358
vn -0.9348 0.3376 -0.1100
vn 0.1014 0.3108 -0.9451
vn -0.1425 -0.9575 -0.2509
vn -0.0378 -0.9582 0.2837
vn 0.1915 -0.9606 0.2015
vn 0.1863 -0.9587 -0.2150
vn -0.2353 -0.9618 0.1402
vn -0.6951 0.3551 0.6251
vn 0.7171 0.3222 -0.6180
vn 0.5327 0.3577 0.7670
vn -0.0968 0.3606 0.9277
vn -0.5535 0.3169 -0.7702
vn -0.5388 0.0312 -0.8419
vn -0.0952 0.0128 0.9954
vn 0.5380 0.0157 0.8428
vn 0.7169 0.0310 -0.6965
vn -0.7160 0.0182 0.6979
vn 0.0954 0.0310 -0.9950
vn -0.9893 0.0282 -0.1430
vn 0.9890 0.0255 0.1454
vn -0.0287 -0.3414 0.9395
vn 0.2683 -0.4394 0.8573
vn 0.1941 -0.2005 -0.9603
vn -0.1487 -0.1385 -0.9791
vn 0.0300 0.0118 -0.9995
vn -0.7651 -0.6423 0.0446
vn 0.7695 -0.6359 -0.0591
vn -0.3084 -0.4755 0.8239
vn -0.0000 0.8943 -0.4474
vn -1.0000 -0.0000 -0.0000
vn -0.0000 -0.0000 -1.0000
vn 0.0647 0.9979 -0.0000
vn -0.0000 -0.0000 1.0000
vn -0.0000 -1.0000 -0.0000
vn 0.0554 0.9985 -0.0000
vn -0.1998 0.9792 0.0343
vn -0.0037 -1.0000 -0.0019
vn 0.0497 0.9987 -0.0098
vn 0.3834 0.0579 -0.9218
vn -0.1879 -0.0206 -0.9820
vn -0.3074 -0.0338 0.9510
vn 0.4956 -0.8461 0.1965
vn 0.4602 -0.8678 -0.1875
vn -0.1118 -0.0231 -0.9935
vn 0.0509 0.9987 -0.0000
vn -0.0038 -1.0000 0.0018
vn -0.1736 0.9848 -0.0000
vn 0.9999 0.0134 -0.0000
vn -0.0028 1.0000 -0.0000
vn -0.0574 -0.9984 -0.0000
vn -0.3196 -0.0483 0.9463
vn -0.0965 -0.9953 -0.0000
vn -0.1254 -0.0259 0.9918
vn -0.0786 0.9969 -0.0000
vn 0.3782 -0.9257 -0.0000
vn -0.0041 -1.0000 -0.0000
vn -0.2187 0.9681 -0.1223
vn 0.0494 0.9984 0.0259
vn 0.4024 -0.8861 0.2299
vn -0.0039 -1.0000 -0.0023
vn 1.0000 0.0055 -0.0000
vn 0.2355 0.0190 -0.9717
vn 0.0434 0.9991 -0.0000
vn -0.2329 -0.0188 0.9723
vn 0.0523 -0.9986 -0.0000
vn 0.0658 0.0053 -0.9978
vn -0.0626 -0.0051 0.9980
vn 0.0029 0.0002 -1.0000
vn -0.0003 -0.0000 1.0000
vn -0.2695 -0.0218 -0.9628
vn 0.0531 0.9986 -0.0000
vn 0.2723 0.0220 0.9620
vn 0.0645 -0.9979 -0.0000
vn -0.9795 -0.1059 -0.1715
vn 0.1638 -0.0642 -0.9844
vn 0.9902 -0.0434 0.1330
vn -0.0000 -0.0381 0.9993
vn -0.0000 0.0093 1.0000
vn -0.9806 -0.0000 -0.1962
vn 0.9922 -0.0000 0.1246
vn 0.9900 -0.0000 0.1409
vn -0.0000 -0.0109 -0.9999
vn 0.9911 0.0112 0.1328
vn -0.9874 -0.1096 -0.1138
vn -0.9774 -0.2115 -0.0000
vn -0.9996 -0.0000 -0.0298
vn -0.0000 -1.0000 0.0071
vn -0.0000 -0.6529 -0.7575
vn 0.9848 0.1736 -0.0000
vn -0.9537 -0.3001 -0.0184
vn -0.0000 0.9676 0.2525
vn 0.8071 0.5674 0.1635
vn -0.9717 -0.2170 0.0935
vn -0.0000 -0.9531 0.3026
vn -0.0000 0.9366 0.3505
vn 0.6794 0.7137 0.1706
vn -0.0000 -0.9995 0.0311
vn 0.9684 0.2490 0.0153
vn -0.0000 0.8359 0.5488
vn -0.9534 0.2659 0.1424
vn 0.9738 0.1772 0.1424
vn -0.9191 0.3833 0.0916
vn 0.8454 0.5316 0.0513
vn -0.0000 0.6271 -0.7790
vn -0.9642 0.2649 -0.0123
vn -0.9673 0.2533 0.0123
vn 0.8221 0.5672 -0.0499
vn 0.9848 0.1737 -0.0000
vn -0.9996 -0.0000 0.0298
vn -0.9877 -0.1074 0.1139
vn 0.9911 0.0086 -0.1328
vn 0.9900 -0.0000 -0.1409
vn 0.9922 -0.0000 -0.1246
vn -0.9806 -0.0000 0.1962
vn 0.9902 -0.0434 -0.1330
vn -0.9787 -0.0906 0.1840
vn 1.0000 -0.0000 -0.0000
vn -0.0647 0.9979 -0.0000
vn -0.0554 0.9985 -0.0000
vn 0.1998 0.9792 0.0343
vn 0.0037 -1.0000 -0.0019
vn -0.0497 0.9987 -0.0098
vn -0.3834 0.0579 -0.9218
vn 0.1879 -0.0206 -0.9820
vn 0.3074 -0.0338 0.9510
vn -0.4956 -0.8461 0.1965
vn -0.4602 -0.8678 -0.1875
vn 0.1118 -0.0231 -0.9935
vn -0.0509 0.9987 -0.0000
vn 0.0038 -1.0000 0.0018
vn 0.1736 0.9848 -0.0000
vn -0.9999 0.0134 -0.0000
vn 0.0028 1.0000 -0.0000
vn 0.0574 -0.9984 -0.0000
vn 0.3196 -0.0483 0.9463
vn 0.0965 -0.9953 -0.0000
vn 0.1254 -0.0259 0.9918
vn 0.0786 0.9969 -0.0000
vn -0.3782 -0.9257 -0.0000
vn 0.0041 -1.0000 -0.0000
vn 0.2187 0.9681 -0.1223
vn -0.0494 0.9984 0.0259
vn -0.4024 -0.8861 0.2299
vn 0.0039 -1.0000 -0.0023
vn -1.0000 0.0055 -0.0000
vn -0.2355 0.0190 -0.9717
vn -0.0434 0.9991 -0.0000
vn 0.2329 -0.0188 0.9723
vn -0.0523 -0.9986 -0.0000
vn -0.0658 0.0053 -0.9978
vn 0.0626 -0.0051 0.9980
vn -0.0029 0.0002 -1.0000
vn 0.0003 -0.0000 1.0000
vn 0.2695 -0.0218 -0.9628
vn -0.0531 0.9986 -0.0000
vn -0.2723 0.0220 0.9620
vn -0.0645 -0.9979 -0.0000
vn 0.9609 -0.0686 -0.2684
vn -0.1192 -0.0646 -0.9908
vn -0.9905 -0.0433 0.1307
vn 0.9806 -0.0000 -0.1962
vn -0.9922 -0.0000 0.1246
vn -0.9900 -0.0000 0.1409
vn -0.9911 0.0112 0.1328
vn 0.9874 -0.1096 -0.1138
vn 0.9774 -0.2115 -0.0000
vn 0.9996 -0.0000 -0.0298
vn -0.9848 0.1736 -0.0000
vn 0.9537 -0.3001 -0.0184
vn -0.8071 0.5674 0.1635
vn 0.9717 -0.2170 0.0935
vn -0.6794 0.7137 0.1706
vn -0.9684 0.2490 0.0153
vn 0.9534 0.2659 0.1424
vn -0.9738 0.1772 0.1424
vn 0.9191 0.3833 0.0916
vn -0.8454 0.5316 0.0513
vn 0.9642 0.2649 -0.0123
vn 0.9673 0.2533 0.0123
vn -0.8221 0.5672 -0.0499
vn -0.9848 0.1737 -0.0000
vn 0.9996 -0.0000 0.0298
vn 0.9877 -0.1074 0.1139
vn -0.9911 0.0086 -0.1328
vn -0.9900 -0.0000 -0.1409
vn -0.9922 -0.0000 -0.1246
vn 0.9806 -0.0000 0.1962
vn -0.9905 -0.0433 -0.1307
vn 0.9630 -0.0535 0.2642
vn 0.7540 -0.6496 0.0973
vn -0.7579 -0.6427 -0.1123
vn -0.9344 0.3388 -0.1099
vn 0.9286 0.3455 0.1358
vn -0.2491 -0.9643 -0.0897
vn -0.3984 0.9041 -0.1547
vn 0.3662 0.9158 -0.1649
vn 0.9890 -0.1387 0.0509
vn 0.2805 -0.9596 -0.0226
vn -0.9872 -0.1418 -0.0726
vn -0.0000 0.8943 0.4474
vn -0.9967 -0.0184 0.0787
vn 0.9908 -0.0433 -0.1279
vn 0.9908 -0.0433 0.1279
vn 0.0654 -0.0650 -0.9957
vn -0.9974 -0.0201 -0.0696
vn 0.9921 0.1221 -0.0277
vn -0.9921 0.1221 -0.0277
vn -0.0000 -0.0964 -0.9953
vn 0.0673 0.3784 0.9232
vn 0.0276 -0.0953 -0.9951
vn -0.0000 0.3305 0.9438
vn 0.9917 0.1261 -0.0242
vn -0.0609 0.3786 0.9235
vn -0.9917 0.1261 -0.0242
vn -0.0302 -0.0950 -0.9950
vn 0.9990 -0.0431 0.0098
vn -0.9992 -0.0394 0.0089
vn -0.0000 1.0000 -0.0011
vn -0.0000 0.3189 0.9478
vn 0.0361 -0.2194 -0.9750
vn 0.9989 -0.0457 0.0049
vn -0.9991 -0.0417 0.0045
vn -0.0401 -0.2199 -0.9747
vn -0.0000 0.0482 -0.9988
vn -0.0000 -0.6452 -0.7640
vn -0.9360 -0.1927 -0.2946
vn 0.9367 -0.1953 -0.2906
vn -0.0000 -0.9752 0.2213
vt 0.300455 0.767991
vt 0.278073 0.767991
vt 0.278033 0.730136
vt 0.300415 0.730136
vt 0.528897 0.835611
vt 0.523212 0.811197
vt 0.533410 0.811197
vt 0.533410 0.835282
vt 0.438660 0.718857
vt 0.466758 0.718857
vt 0.460752 0.748972
vt 0.436667 0.748972
vt 0.245498 0.815767
vt 0.243531 0.800610
vt 0.263173 0.811521
vt 0.265919 0.821384
vt 0.433368 0.794419
vt 0.433368 0.752174
vt 0.462800 0.758323
vt 0.462800 0.794535
vt 0.121023 0.789199
vt 0.121023 0.820682
vt 0.094058 0.814778
vt 0.094058 0.787791
vt 0.433368 0.804980
vt 0.462800 0.803588
vt 0.245498 0.878654
vt 0.245498 0.836729
vt 0.265919 0.839353
vt 0.265919 0.875290
vt 0.470194 0.835280
vt 0.470194 0.811195
vt 0.505539 0.811196
vt 0.491771 0.835610
vt 0.367602 0.767991
vt 0.322838 0.767991
vt 0.322797 0.730136
vt 0.367562 0.730136
vt 0.430945 0.830638
vt 0.433368 0.815541
vt 0.462800 0.812641
vt 0.459417 0.822334
vt 0.245498 0.826248
vt 0.265919 0.830369
vt 0.694643 0.628118
vt 0.699082 0.628810
vt 0.693308 0.670704
vt 0.686007 0.670374
vt 0.311646 0.767991
vt 0.311606 0.730136
vt 0.464653 0.578189
vt 0.471975 0.578327
vt 0.498683 0.653149
vt 0.463613 0.652423
vt 0.179442 0.662731
vt 0.185672 0.662298
vt 0.194565 0.707236
vt 0.182612 0.705811
vt 0.180975 0.610380
vt 0.187161 0.610579
vt 0.194393 0.660253
vt 0.182696 0.662298
vt 0.690406 0.533287
vt 0.694903 0.533302
vt 0.693080 0.582384
vt 0.685894 0.580551
vt 0.514376 0.883621
vt 0.505539 0.883620
vt 0.507025 0.857871
vt 0.511513 0.858012
vt 0.507700 0.836150
vt 0.501156 0.842313
vt 0.528897 0.856358
vt 0.523212 0.883621
vt 0.516000 0.858152
vt 0.522544 0.851988
vt 0.514376 0.811197
vt 0.516675 0.836430
vt 0.512187 0.836290
vt 0.378352 0.316113
vt 0.378352 0.336858
vt 0.367603 0.332556
vt 0.367602 0.323556
vt 0.491771 0.856357
vt 0.500877 0.851311
vt 0.701036 0.533271
vt 0.704393 0.585197
vt 0.170463 0.663341
vt 0.167875 0.707236
vt 0.464890 0.542230
vt 0.457567 0.542092
vt 0.428544 0.469149
vt 0.463613 0.469874
vt 0.310891 0.821305
vt 0.299700 0.821305
vt 0.300370 0.778866
vt 0.311561 0.778866
vt 0.366847 0.821305
vt 0.322082 0.821305
vt 0.322752 0.778866
vt 0.367517 0.778866
vt 0.470194 0.883619
vt 0.470194 0.856630
vt 0.121023 0.764295
vt 0.094058 0.766443
vt 0.382269 0.718857
vt 0.413754 0.718857
vt 0.415317 0.748972
vt 0.388328 0.748972
vt 0.533410 0.856632
vt 0.533410 0.883621
vt 0.277317 0.821305
vt 0.277987 0.778866
vt 0.121023 0.736199
vt 0.094058 0.742360
vt 0.705631 0.626013
vt 0.705631 0.664977
vt 0.522823 0.842990
vt 0.181651 0.727982
vt 0.181651 0.707236
vt 0.194025 0.713914
vt 0.194010 0.722912
vt 0.171979 0.610570
vt 0.167875 0.662298
vt 0.482401 0.567990
vt 0.482499 0.553095
vt 0.548278 0.525093
vt 0.548278 0.600707
vt 0.238186 0.284915
vt 0.273068 0.285028
vt 0.266645 0.452183
vt 0.256456 0.452060
vt 0.238001 0.564331
vt 0.272698 0.567399
vt 0.246458 0.664477
vt 0.236330 0.663542
vt 0.244113 0.012825
vt 0.319337 0.013780
vt 0.300560 0.178124
vt 0.275455 0.177805
vt 0.472212 0.542368
vt 0.498682 0.470600
vt 0.447142 0.552428
vt 0.447044 0.567323
vt 0.378949 0.597205
vt 0.378949 0.521590
vt 0.457330 0.578051
vt 0.428544 0.651698
vt 0.021891 0.018007
vt 0.068155 0.012118
vt 0.100259 0.186185
vt 0.084791 0.188035
vt 0.327924 0.284803
vt 0.282656 0.452241
vt 0.143298 0.011523
vt 0.203303 0.016571
vt 0.145345 0.187598
vt 0.125341 0.186004
vt 0.378949 0.011523
vt 0.320451 0.177371
vt 0.319361 0.212005
vt 0.300079 0.212735
vt 0.124896 0.220663
vt 0.100581 0.220839
vt 0.144287 0.222208
vt 0.282824 0.486904
vt 0.267303 0.486847
vt 0.085587 0.222633
vt 0.275742 0.212426
vt 0.245573 0.691832
vt 0.235755 0.690926
vt 0.257425 0.486728
vt 0.141935 0.292571
vt 0.088733 0.292349
vt 0.203303 0.293754
vt 0.260606 0.211258
vt 0.264524 0.284105
vt 0.203303 0.283731
vt 0.378949 0.284803
vt 0.317729 0.284429
vt 0.272698 0.785840
vt 0.241983 0.787014
vt 0.286146 0.559136
vt 0.255578 0.560231
vt 0.027669 0.293019
vt 0.877908 0.854564
vt 0.888623 0.891547
vt 0.835417 0.891547
vt 0.846137 0.854564
vt 0.710676 0.591408
vt 0.678707 0.591607
vt 0.678707 0.585396
vt 0.710676 0.585197
vt 0.327923 0.284854
vt 0.367602 0.284803
vt 0.357206 0.476324
vt 0.328159 0.476361
vt 0.602540 0.276914
vt 0.588970 0.277597
vt 0.587555 0.249346
vt 0.601125 0.248663
vt 0.713179 0.751012
vt 0.742156 0.751074
vt 0.752526 0.942590
vt 0.712944 0.942505
vt 0.405935 0.468465
vt 0.415349 0.277341
vt 0.428913 0.278025
vt 0.419500 0.469149
vt 0.612128 0.468180
vt 0.598557 0.468863
vt 0.740362 0.722786
vt 0.713214 0.722727
vt 0.712944 0.609216
vt 0.735005 0.609263
vt 0.355408 0.504613
vt 0.328194 0.504648
vt 0.394563 0.276293
vt 0.388362 0.275981
vt 0.389753 0.247751
vt 0.395954 0.248063
vt 0.595709 0.140648
vt 0.581869 0.135970
vt 0.572663 0.114349
vt 0.590299 0.113461
vt 0.395376 0.133327
vt 0.401257 0.140144
vt 0.350039 0.619289
vt 0.327924 0.619317
vt 0.700213 0.728797
vt 0.711433 0.725056
vt 0.711433 0.779020
vt 0.697133 0.779306
vt 0.355004 0.640199
vt 0.343764 0.643880
vt 0.728047 0.583628
vt 0.739259 0.587319
vt 0.392508 0.107971
vt 0.402721 0.108486
vt 0.435871 0.136518
vt 0.421680 0.148542
vt 0.428063 0.109763
vt 0.445692 0.110652
vt 0.358428 0.681659
vt 0.340018 0.684142
vt 0.607957 0.248319
vt 0.602540 0.140304
vt 0.430303 0.249795
vt 0.416739 0.249111
vt 0.600198 0.112963
vt 0.609372 0.276570
vt 0.618959 0.467836
vt 0.399107 0.468121
vt 0.408520 0.276997
vt 0.710676 0.625815
vt 0.678707 0.626013
vt 0.678707 0.612426
vt 0.710676 0.612228
vt 0.697134 0.793611
vt 0.697134 0.779308
vt 0.710721 0.779306
vt 0.710721 0.793609
vt 0.552384 0.061287
vt 0.565954 0.060604
vt 0.452078 0.060526
vt 0.465642 0.061209
vt 0.723919 0.533302
vt 0.738185 0.533525
vt 0.389782 0.067725
vt 0.400189 0.068249
vt 0.618986 0.468863
vt 0.629959 0.473214
vt 0.631785 0.513582
vt 0.613600 0.509996
vt 0.583051 0.072320
vt 0.594515 0.071742
vt 0.611439 0.112397
vt 0.607535 0.071087
vt 0.417724 0.109242
vt 0.423610 0.069430
vt 0.435070 0.070007
vt 0.617130 0.276179
vt 0.615715 0.247929
vt 0.391352 0.467730
vt 0.400765 0.276606
vt 0.626717 0.467446
vt 0.610299 0.139914
vt 0.414851 0.148197
vt 0.409910 0.248767
vt 0.678707 0.605586
vt 0.710676 0.605388
vt 0.621919 0.247616
vt 0.616502 0.139601
vt 0.620427 0.111945
vt 0.623334 0.275867
vt 0.632921 0.467133
vt 0.385150 0.467418
vt 0.617946 0.070563
vt 0.409387 0.108822
vt 0.410596 0.068774
vt 0.407096 0.147807
vt 0.402155 0.248376
vt 0.678707 0.597819
vt 0.710676 0.597620
vt 0.625869 0.111671
vt 0.628357 0.070038
vt 0.629538 0.275555
vt 0.628123 0.247304
vt 0.378949 0.467105
vt 0.639125 0.466821
vt 0.622378 0.132779
vt 0.367602 0.349735
vt 0.367602 0.336858
vt 0.378918 0.336858
vt 0.378918 0.349734
vt 0.752526 0.651472
vt 0.755750 0.592400
vt 0.768625 0.592400
vt 0.770953 0.649114
vt 0.566226 0.013970
vt 0.577528 0.013401
vt 0.626415 0.569915
vt 0.613600 0.569054
vt 0.440509 0.013402
vt 0.451806 0.013971
vt 0.077642 0.792611
vt 0.077642 0.779734
vt 0.090493 0.779734
vt 0.090493 0.792610
vt 0.752526 0.592400
vt 0.755512 0.533302
vt 0.768387 0.533302
vt 0.770953 0.590042
vt 0.587923 0.012877
vt 0.600758 0.012231
vt 0.182720 0.789266
vt 0.185051 0.732568
vt 0.197895 0.732568
vt 0.201104 0.791624
vt 0.417289 0.012232
vt 0.430118 0.012878
vt 0.367602 0.388405
vt 0.367602 0.375528
vt 0.377878 0.375528
vt 0.377878 0.388404
vt 0.613601 0.747277
vt 0.616502 0.688170
vt 0.629376 0.688170
vt 0.632027 0.744919
vt 0.604554 0.012040
vt 0.614817 0.011523
vt 0.752526 0.767363
vt 0.755123 0.710618
vt 0.767966 0.710618
vt 0.770910 0.769721
vt 0.403235 0.011523
vt 0.413494 0.012040
vt 0.367602 0.375528
vt 0.367602 0.362651
vt 0.377878 0.362650
vt 0.377878 0.375527
vt 0.356226 0.730048
vt 0.343351 0.730136
vt 0.628862 0.021597
vt 0.639125 0.021080
vt 0.182558 0.599658
vt 0.186205 0.553508
vt 0.199048 0.553508
vt 0.200941 0.602016
vt 0.378949 0.021072
vt 0.389208 0.021589
vt 0.125215 0.390290
vt 0.131132 0.302274
vt 0.167875 0.293754
vt 0.157697 0.389955
vt 0.840386 0.127895
vt 0.835417 0.011523
vt 0.896609 0.011523
vt 0.892732 0.127791
vt 0.804807 0.127735
vt 0.804784 0.011523
vt 0.835417 0.011555
vt 0.831005 0.127761
vt 0.900878 0.127059
vt 0.896609 0.011523
vt 0.957826 0.011523
vt 0.953235 0.127059
vt 0.845356 0.244267
vt 0.888855 0.244058
vt 0.889019 0.277936
vt 0.845520 0.278144
vt 0.905117 0.276391
vt 0.948613 0.276391
vt 0.925667 0.500157
vt 0.902857 0.500157
vt 0.125800 0.483578
vt 0.147519 0.486157
vt 0.147689 0.513452
vt 0.125969 0.510873
vt 0.804830 0.243947
vt 0.826594 0.243968
vt 0.826592 0.277854
vt 0.804828 0.277833
vt 0.905148 0.242595
vt 0.948644 0.242595
vt 0.807065 0.502027
vt 0.828653 0.502051
vt 0.828652 0.533113
vt 0.807064 0.533090
vt 0.892182 0.502138
vt 0.869371 0.502248
vt 0.146219 0.707547
vt 0.124652 0.707166
vt 0.184724 0.322801
vt 0.185485 0.293754
vt 0.202388 0.310129
vt 0.201776 0.333510
vt 0.146374 0.732568
vt 0.124808 0.732186
vt 0.925639 0.531137
vt 0.902829 0.531137
vt 0.892333 0.533193
vt 0.869522 0.533302
vt 0.835417 0.556736
vt 0.882159 0.556682
vt 0.882159 0.580062
vt 0.835417 0.580116
vt 0.876201 0.616658
vt 0.839462 0.616700
vt 0.345157 0.872064
vt 0.345157 0.824540
vt 0.364081 0.821305
vt 0.364080 0.868085
vt 0.488725 0.682207
vt 0.488725 0.711264
vt 0.470194 0.715903
vt 0.470194 0.692513
vt 0.189271 0.397959
vt 0.202388 0.393560
vt 0.200234 0.435583
vt 0.193660 0.452011
vt 0.525970 0.653149
vt 0.548781 0.653149
vt 0.545374 0.687790
vt 0.527445 0.687789
vt 0.513520 0.716459
vt 0.504461 0.751143
vt 0.484167 0.757239
vt 0.183963 0.351848
vt 0.201163 0.356891
vt 0.873848 0.675476
vt 0.836525 0.675519
vt 0.839515 0.658780
vt 0.876253 0.658738
vt 0.545376 0.729787
vt 0.527446 0.729787
vt 0.513544 0.693880
vt 0.513544 0.747808
vt 0.470407 0.752531
vt 0.476963 0.811195
vt 0.471715 0.794591
vt 0.550897 0.747809
vt 0.167875 0.356698
vt 0.176272 0.391584
vt 0.187848 0.433881
vt 0.513544 0.694871
vt 0.320699 0.865149
vt 0.320699 0.842338
vt 0.168059 0.335120
vt 0.169005 0.313571
vt 0.513520 0.673316
vt 0.488725 0.653149
vt 0.470194 0.669124
vt 0.835417 0.533356
vt 0.882159 0.533302
vt 0.103077 0.707547
vt 0.103232 0.732568
vt 0.104191 0.513452
vt 0.783093 0.277854
vt 0.785510 0.502051
vt 0.785509 0.533113
vt 0.783095 0.243968
vt 0.104021 0.486157
vt 0.778645 0.127761
vt 0.774196 0.011555
vt 0.099040 0.389955
vt 0.094058 0.293754
vt 0.094058 0.830017
vt 0.094058 0.823806
vt 0.133747 0.823807
vt 0.133747 0.830019
vt 0.813875 0.533160
vt 0.813639 0.724667
vt 0.784592 0.724633
vt 0.774196 0.533113
vt 0.502227 0.276915
vt 0.503642 0.248663
vt 0.517212 0.249346
vt 0.515797 0.277598
vt 0.639361 0.724777
vt 0.639125 0.533284
vt 0.678707 0.533271
vt 0.668337 0.724768
vt 0.080480 0.294371
vt 0.094058 0.294681
vt 0.089906 0.485992
vt 0.076328 0.485682
vt 0.506210 0.468867
vt 0.492640 0.468184
vt 0.666544 0.753053
vt 0.661186 0.866566
vt 0.639125 0.866573
vt 0.639395 0.753062
vt 0.813604 0.752954
vt 0.786390 0.752922
vt 0.055522 0.485206
vt 0.054909 0.513464
vt 0.048701 0.513322
vt 0.049315 0.485064
vt 0.509058 0.140646
vt 0.514468 0.113461
vt 0.532104 0.114349
vt 0.522898 0.135968
vt 0.052552 0.621520
vt 0.046203 0.627889
vt 0.813875 0.867623
vt 0.791760 0.867597
vt 0.708354 0.674444
vt 0.711433 0.725056
vt 0.697134 0.724771
vt 0.697134 0.670704
vt 0.798034 0.892166
vt 0.786794 0.888486
vt 0.665441 0.888719
vt 0.654229 0.892389
vt 0.367602 0.316113
vt 0.367602 0.285027
vt 0.377830 0.284803
vt 0.373772 0.312114
vt 0.536868 0.776403
vt 0.531923 0.747809
vt 0.549479 0.749707
vt 0.549479 0.785357
vt 0.801780 0.932405
vt 0.783370 0.929925
vt 0.496810 0.248319
vt 0.502227 0.140302
vt 0.089293 0.514249
vt 0.086820 0.627668
vt 0.073518 0.614639
vt 0.075715 0.513939
vt 0.504570 0.112963
vt 0.495395 0.276571
vt 0.485808 0.467840
vt 0.073644 0.294215
vt 0.069492 0.485525
vt 0.094058 0.864424
vt 0.094058 0.850837
vt 0.133747 0.850839
vt 0.133747 0.864426
vt 0.327576 0.561263
vt 0.327576 0.574850
vt 0.316168 0.574922
vt 0.316168 0.561336
vt 0.538814 0.060604
vt 0.552384 0.061287
vt 0.629833 0.754211
vt 0.626090 0.807652
vt 0.613601 0.802317
vt 0.664367 0.942948
vt 0.650101 0.943145
vt 0.051796 0.651950
vt 0.046414 0.692207
vt 0.035997 0.691969
vt 0.041573 0.651716
vt 0.195366 0.452011
vt 0.200745 0.493279
vt 0.182558 0.496825
vt 0.184390 0.456338
vt 0.510252 0.071743
vt 0.521717 0.072320
vt 0.493329 0.112397
vt 0.497232 0.071088
vt 0.077164 0.652530
vt 0.081330 0.693005
vt 0.069858 0.692743
vt 0.066815 0.652293
vt 0.487637 0.276180
vt 0.489052 0.247929
vt 0.065881 0.294037
vt 0.061730 0.485348
vt 0.478050 0.467450
vt 0.494469 0.139912
vt 0.066682 0.614482
vt 0.068879 0.513783
vt 0.094058 0.843997
vt 0.133747 0.843999
vt 0.482849 0.247616
vt 0.488265 0.139600
vt 0.484340 0.111944
vt 0.481433 0.275868
vt 0.471846 0.467137
vt 0.059674 0.293895
vt 0.486821 0.070563
vt 0.056831 0.692445
vt 0.058470 0.652103
vt 0.058919 0.614305
vt 0.061116 0.513605
vt 0.094058 0.836229
vt 0.133747 0.836231
vt 0.478899 0.111670
vt 0.476410 0.070039
vt 0.475230 0.275555
vt 0.476645 0.247304
vt 0.053466 0.293754
vt 0.465642 0.466825
vt 0.482389 0.132778
vt 0.377933 0.388405
vt 0.377933 0.399720
vt 0.367602 0.399785
vt 0.367602 0.388470
vt 0.632027 0.629054
vt 0.613600 0.626696
vt 0.615934 0.569915
vt 0.628809 0.569915
vt 0.527239 0.013401
vt 0.538541 0.013970
vt 0.200745 0.552675
vt 0.187929 0.553508
vt 0.094058 0.749881
vt 0.082750 0.749622
vt 0.377933 0.349735
vt 0.377933 0.362585
vt 0.367602 0.362650
vt 0.367602 0.349800
vt 0.632027 0.688170
vt 0.613600 0.685812
vt 0.616172 0.629054
vt 0.629047 0.629054
vt 0.504010 0.012231
vt 0.516844 0.012877
vt 0.770905 0.708261
vt 0.752526 0.710618
vt 0.755628 0.651472
vt 0.768471 0.651472
vt 0.072348 0.749385
vt 0.059506 0.749091
vt 0.377878 0.420576
vt 0.367602 0.420512
vt 0.367602 0.410181
vt 0.377878 0.410246
vt 0.697133 0.729812
vt 0.678707 0.727454
vt 0.681364 0.670704
vt 0.694239 0.670704
vt 0.489950 0.011523
vt 0.500213 0.012040
vt 0.697087 0.786557
vt 0.678707 0.788915
vt 0.681543 0.729812
vt 0.694386 0.729812
vt 0.055707 0.749005
vt 0.045438 0.748770
vt 0.377878 0.410181
vt 0.367602 0.410116
vt 0.367602 0.399785
vt 0.377878 0.399850
vt 0.798447 0.978337
vt 0.785573 0.978251
vt 0.465642 0.021081
vt 0.475905 0.021597
vt 0.531923 0.793627
vt 0.513544 0.795985
vt 0.515347 0.747809
vt 0.528190 0.747809
vt 0.032160 0.737705
vt 0.021891 0.737470
vt 0.682348 0.243902
vt 0.660622 0.243936
vt 0.639125 0.011523
vt 0.675976 0.029904
vt 0.764181 0.244266
vt 0.720682 0.244058
vt 0.712944 0.011523
vt 0.774196 0.011523
vt 0.928340 0.724395
vt 0.906572 0.726014
vt 0.896609 0.533611
vt 0.927247 0.531137
vt 0.604419 0.699936
vt 0.560923 0.699936
vt 0.552384 0.468863
vt 0.613600 0.468863
vt 0.764021 0.278144
vt 0.720522 0.277935
vt 0.604388 0.733731
vt 0.606291 0.957497
vt 0.583481 0.957497
vt 0.560892 0.733731
vt 0.682347 0.277789
vt 0.660621 0.277822
vt 0.928509 0.751690
vt 0.906742 0.753309
vt 0.927389 0.930857
vt 0.927544 0.955878
vt 0.905952 0.957698
vt 0.905797 0.932677
vt 0.740184 0.502248
vt 0.717373 0.502138
vt 0.684739 0.502204
vt 0.663171 0.502209
vt 0.291285 0.590321
vt 0.272698 0.600667
vt 0.272698 0.577277
vt 0.291285 0.561263
vt 0.684737 0.533266
vt 0.663169 0.533271
vt 0.606262 0.988477
vt 0.583453 0.988477
vt 0.740037 0.533302
vt 0.717226 0.533193
vt 0.882159 0.698899
vt 0.882159 0.722279
vt 0.835416 0.722333
vt 0.835416 0.698953
vt 0.878134 0.758873
vt 0.841395 0.758915
vt 0.301775 0.821305
vt 0.320699 0.825359
vt 0.320699 0.872138
vt 0.301775 0.868829
vt 0.169035 0.481045
vt 0.181624 0.491766
vt 0.180691 0.515136
vt 0.167875 0.510079
vt 0.286731 0.665351
vt 0.279526 0.719307
vt 0.274234 0.702733
vt 0.272926 0.660673
vt 0.044697 0.813573
vt 0.043995 0.848238
vt 0.026070 0.848637
vt 0.021891 0.814080
vt 0.062329 0.807983
vt 0.058034 0.854018
vt 0.291285 0.619378
vt 0.272698 0.624056
vt 0.844273 0.817728
vt 0.841447 0.800995
vt 0.878186 0.800953
vt 0.881596 0.817685
vt 0.044931 0.890225
vt 0.027006 0.890623
vt 0.059235 0.907933
vt 0.182558 0.551877
vt 0.179827 0.593867
vt 0.176473 0.610380
vt 0.172826 0.556273
vt 0.021891 0.908763
vt 0.316163 0.624515
vt 0.307089 0.659209
vt 0.291347 0.701268
vt 0.047287 0.791939
vt 0.061683 0.778932
vt 0.277317 0.828318
vt 0.277317 0.851130
vt 0.316168 0.602940
vt 0.316163 0.581372
vt 0.043737 0.770441
vt 0.061037 0.749881
vt 0.170194 0.452011
vt 0.182558 0.468396
vt 0.882159 0.675519
vt 0.835416 0.675573
vt 0.706314 0.502209
vt 0.706312 0.533271
vt 0.704120 0.277822
vt 0.950240 0.753309
vt 0.948939 0.932677
vt 0.949094 0.957698
vt 0.950070 0.726014
vt 0.704121 0.243936
vt 0.957828 0.533611
vt 0.712944 0.011523
vt 0.247548 0.486610
vt 0.224962 0.561263
vt 0.225938 0.690020
vt 0.211534 0.783246
vt 0.246266 0.451938
vt 0.226202 0.662607
vt 0.203303 0.561263
vt 0.203303 0.284803
vt 0.685908 0.533271
vt 0.678707 0.578719
vt 0.690204 0.627426
vt 0.678707 0.670043
vt 0.888623 0.817728
vt 0.835417 0.817728
vt 0.378949 0.817405
vt 0.378949 0.806000
vt 0.412626 0.804952
vt 0.412626 0.815293
vt 0.203303 0.832290
vt 0.203303 0.820971
vt 0.228180 0.824873
vt 0.228180 0.835136
vt 0.420958 0.653149
vt 0.431842 0.653149
vt 0.431759 0.687397
vt 0.420688 0.687397
vt 0.171039 0.732568
vt 0.182720 0.770927
vt 0.140158 0.764488
vt 0.140158 0.736977
vt 0.378949 0.664858
vt 0.383199 0.698747
vt 0.182720 0.781810
vt 0.140158 0.788874
vt 0.203303 0.809652
vt 0.228180 0.814610
vt 0.378949 0.840216
vt 0.411285 0.832641
vt 0.203303 0.877567
vt 0.228180 0.876189
vt 0.378949 0.794594
vt 0.412626 0.794610
vt 0.171039 0.823806
vt 0.140158 0.819703
vt 0.378949 0.748972
vt 0.412626 0.753244
vt 0.203303 0.787014
vt 0.227092 0.797297
vt 0.470194 0.664858
vt 0.465932 0.698747
vt 0.181651 0.732142
vt 0.167875 0.725732
vt 0.167875 0.713806
vt 0.752526 0.793604
vt 0.765307 0.793604
vt 0.764823 0.801486
vt 0.752897 0.801486
vt 0.753453 0.769721
vt 0.764524 0.769721
vt 0.093398 0.749881
vt 0.093398 0.779733
vt 0.079182 0.778434
vt 0.077642 0.772547
vt 0.062329 0.781777
vt 0.062329 0.749881
vt 0.077642 0.776458
vt 0.075863 0.784155
s 0
f 40/1/1 42/2/1 4/3/1 13/4/1
f 45/5/2 14/6/2 8/7/2 43/8/2
f 406/9/3 397/10/3 7/11/3 38/12/3
f 402/13/4 398/14/4 8/15/4 14/16/4
f 399/17/5 409/18/5 6/19/5 11/20/5
f 403/21/6 410/22/6 5/23/6 28/24/6
f 408/25/5 399/17/5 11/20/5 315/26/5
f 397/27/7 400/28/7 12/29/7 7/30/7
f 38/31/8 7/32/8 12/33/8 44/34/8
f 37/35/1 39/36/1 10/37/1 2/38/1
f 410/39/9 401/40/9 16/41/9 5/42/9
f 407/43/7 402/13/7 14/16/7 364/44/7
f 368/45/10 21/46/10 20/47/10 366/48/10
f 370/49/1 40/1/1 13/4/1 312/50/1
f 365/51/11 18/52/11 50/53/11 371/54/11
f 36/55/12 23/56/12 17/57/12 34/58/12
f 48/59/13 22/60/13 19/61/13 46/62/13
f 367/63/14 24/64/14 18/65/14 365/66/14
f 315/67/15 11/68/15 24/69/15 367/70/15
f 44/34/16 12/33/16 22/71/16 48/72/16
f 31/73/17 16/74/17 23/75/17 36/76/17
f 364/77/18 14/6/18 21/78/18 368/79/18
f 45/80/19 31/81/19 36/82/19 41/83/19
f 11/68/20 29/84/20 35/85/20 24/69/20
f 24/64/21 35/86/21 33/87/21 18/65/21
f 41/88/22 36/55/22 34/58/22 47/89/22
f 366/90/23 20/91/23 52/92/23 372/93/23
f 317/94/24 15/95/24 32/96/24 369/97/24
f 1/98/24 9/99/24 30/100/24 25/101/24
f 6/102/25 27/103/25 29/84/25 11/68/25
f 405/104/6 403/21/6 28/24/6 43/105/6
f 409/106/3 404/107/3 27/108/3 6/109/3
f 16/74/26 31/73/26 28/110/26 5/111/26
f 15/95/24 3/112/24 26/113/24 32/96/24
f 398/114/6 405/104/6 43/105/6 8/115/6
f 21/46/27 41/116/27 47/117/27 20/47/27
f 14/6/28 45/5/28 41/118/28 21/78/28
f 29/119/29 44/120/29 48/121/29 35/122/29
f 35/123/30 48/59/30 46/62/30 33/124/30
f 33/125/31 46/126/31 55/127/31 53/128/31
f 27/103/32 38/31/32 44/34/32 29/84/32
f 404/107/3 406/9/3 38/12/3 27/108/3
f 31/73/33 45/5/33 43/8/33 28/110/33
f 371/129/34 50/130/34 63/131/34 374/132/34
f 372/133/35 52/134/35 61/135/35 373/136/35
f 53/137/36 55/138/36 58/139/36 60/140/36
f 46/126/37 19/141/37 51/142/37 55/127/37
f 47/143/38 34/144/38 54/145/38 56/146/38
f 34/144/39 17/147/39 49/148/39 54/145/39
f 18/52/40 33/125/40 53/128/40 50/53/40
f 20/91/41 47/143/41 56/146/41 52/92/41
f 52/149/42 56/150/42 57/151/42 61/152/42
f 50/130/43 53/153/43 60/154/43 63/131/43
f 54/155/44 49/156/44 64/157/44 59/158/44
f 56/150/45 54/155/45 59/158/45 57/151/45
f 55/138/46 51/159/46 62/160/46 58/139/46
f 58/139/47 62/160/47 67/161/47 71/162/47
f 57/151/48 59/158/48 70/163/48 72/164/48
f 59/158/49 64/157/49 65/165/49 70/163/49
f 63/131/50 60/154/50 69/166/50 66/167/50
f 61/152/51 57/151/51 72/164/51 68/168/51
f 60/140/52 58/139/52 71/162/52 69/169/52
f 373/136/53 61/135/53 68/170/53 376/171/53
f 374/132/54 63/131/54 66/167/54 375/172/54
f 72/164/55 70/163/55 78/173/55 80/174/55
f 70/163/56 65/165/56 73/175/56 78/173/56
f 66/176/57 69/169/57 77/177/57 74/178/57
f 71/162/58 67/161/58 75/179/58 79/180/58
f 69/169/59 71/162/59 79/180/59 77/177/59
f 376/171/60 68/170/60 76/181/60 210/182/60
f 375/172/61 66/167/61 74/183/61 353/184/61
f 68/168/62 72/164/62 80/174/62 76/185/62
f 351/186/63 77/187/63 79/188/63 208/189/63
f 149/190/64 143/191/64 84/192/64 83/193/64
f 83/194/65 84/195/65 88/196/65 87/197/65
f 104/198/66 86/199/66 92/200/66 106/201/66
f 85/202/67 86/203/67 82/204/67 81/205/67
f 101/206/68 103/207/68 85/208/68 81/209/68
f 104/198/69 102/210/69 82/211/69 86/199/69
f 92/212/67 91/213/67 95/214/67 96/215/67
f 87/197/65 88/196/65 89/216/65 90/217/65
f 86/203/67 85/202/67 91/213/67 92/212/67
f 144/218/68 87/219/68 90/220/68 145/221/68
f 108/222/70 96/223/70 100/224/70 110/225/70
f 145/221/71 90/220/71 94/226/71 146/227/71
f 106/201/72 92/200/72 96/223/72 108/222/72
f 90/217/65 89/216/65 93/228/65 94/229/65
f 109/230/73 110/231/73 111/232/73 114/233/73
f 94/229/74 93/228/74 97/234/74 98/235/74
f 96/215/75 95/214/75 99/236/75 100/237/75
f 146/227/76 94/226/76 98/238/76 147/239/76
f 95/240/77 107/241/77 109/242/77 99/243/77
f 98/235/78 97/234/78 115/244/78 116/245/78
f 126/246/79 106/201/79 108/222/79 127/247/79
f 91/248/80 105/249/80 107/241/80 95/240/80
f 127/247/81 108/222/81 110/225/81 128/250/81
f 85/208/68 103/207/68 105/249/68 91/248/68
f 125/251/69 119/252/69 102/210/69 104/198/69
f 124/253/68 120/254/68 103/207/68 101/206/68
f 125/251/66 104/198/66 106/201/66 126/246/66
f 81/255/64 82/256/64 102/257/64 101/258/64
f 114/259/82 111/260/82 112/261/82 113/262/82
f 110/225/83 100/224/83 112/263/83 111/264/83
f 99/243/84 109/242/84 114/265/84 113/266/84
f 100/237/85 99/236/85 113/267/85 112/268/85
f 147/239/86 98/238/86 116/269/86 148/270/86
f 110/271/87 109/272/87 117/273/87 118/274/87
f 128/250/88 110/225/88 118/275/88 130/276/88
f 141/277/88 128/250/88 130/276/88 142/278/88
f 109/242/86 123/279/86 129/280/86 117/281/86
f 138/282/66 125/251/66 126/246/66 139/283/66
f 137/284/68 132/285/68 120/254/68 124/253/68
f 138/282/69 131/286/69 119/252/69 125/251/69
f 140/287/81 127/247/81 128/250/81 141/277/81
f 139/283/79 126/246/79 127/247/79 140/287/79
f 107/241/89 122/288/89 123/279/89 109/242/89
f 105/249/90 121/289/90 122/288/90 107/241/90
f 103/207/68 120/254/68 121/289/68 105/249/68
f 101/258/64 102/257/64 119/290/64 124/291/64
f 151/292/79 139/283/79 140/287/79 152/293/79
f 152/293/81 140/287/81 141/277/81 153/294/81
f 150/295/69 143/296/69 131/286/69 138/282/69
f 149/297/68 144/218/68 132/285/68 137/284/68
f 150/295/66 138/282/66 139/283/66 151/292/66
f 153/294/88 141/277/88 142/278/88 154/298/88
f 123/279/86 135/299/86 136/300/86 129/280/86
f 122/288/89 134/301/89 135/299/89 123/279/89
f 121/289/90 133/302/90 134/301/90 122/288/90
f 120/254/68 132/285/68 133/302/68 121/289/68
f 124/291/64 119/290/64 131/303/64 137/304/64
f 97/305/88 153/294/88 154/298/88 115/306/88
f 88/307/66 150/295/66 151/292/66 89/308/66
f 83/309/68 87/219/68 144/218/68 149/297/68
f 88/307/69 84/310/69 143/296/69 150/295/69
f 93/311/91 152/293/91 153/294/91 97/305/91
f 89/308/92 151/292/92 152/293/92 93/311/92
f 135/299/86 147/239/86 148/270/86 136/300/86
f 134/301/93 146/227/93 147/239/93 135/299/93
f 133/302/94 145/221/94 146/227/94 134/301/94
f 132/285/68 144/218/68 145/221/68 133/302/68
f 137/304/64 131/303/64 143/191/64 149/190/64
f 155/312/95 156/313/95 157/314/95 158/315/95
f 130/316/96 156/317/96 155/318/96 129/319/96
f 118/275/97 157/320/97 156/321/97 130/276/97
f 117/273/98 158/322/98 157/323/98 118/274/98
f 129/280/99 155/324/99 158/325/99 117/281/99
f 159/326/95 160/327/95 161/328/95 162/329/95
f 142/330/100 160/331/100 159/332/100 136/333/100
f 130/276/97 161/334/97 160/335/97 142/278/97
f 129/336/101 162/337/101 161/338/101 130/339/101
f 136/300/99 159/340/99 162/341/99 129/280/99
f 163/342/95 164/343/95 165/344/95 166/345/95
f 154/346/102 164/347/102 163/348/102 148/349/102
f 142/278/97 165/350/97 164/351/97 154/298/97
f 136/352/103 166/353/103 165/354/103 142/355/103
f 148/270/99 163/356/99 166/357/99 136/300/99
f 167/358/95 168/359/95 169/360/95 170/361/95
f 115/244/104 168/362/104 167/363/104 116/245/104
f 154/298/105 169/364/105 168/365/105 115/306/105
f 148/366/106 170/367/106 169/368/106 154/369/106
f 116/269/107 167/370/107 170/371/107 148/270/107
f 380/372/108 208/373/108 80/374/108 377/375/108
f 377/376/109 80/377/109 76/378/109 378/379/109
f 379/380/110 210/381/110 75/382/110 381/383/110
f 381/384/111 75/385/111 79/386/111 382/387/111
f 172/388/65 174/389/65 177/390/65 175/391/65
f 178/392/112 176/393/112 180/394/112 182/395/112
f 207/396/113 172/397/113 175/398/113 211/399/113
f 209/400/114 173/401/114 178/402/114 212/403/114
f 173/404/67 171/405/67 176/393/67 178/392/67
f 214/406/115 182/407/115 186/408/115 216/409/115
f 175/391/116 177/390/116 181/410/116 179/411/116
f 212/403/117 178/402/117 182/407/117 214/406/117
f 211/399/118 175/398/118 179/412/118 213/413/118
f 220/414/119 199/415/119 187/416/119 217/417/119
f 213/413/120 179/412/120 183/418/120 215/419/120
f 182/395/67 180/394/67 184/420/67 186/421/67
f 179/411/65 181/410/65 185/422/65 183/423/65
f 217/424/68 218/425/68 190/426/68 188/427/68
f 188/427/121 190/426/121 194/428/121 193/429/121
f 199/430/122 202/431/122 189/432/122 187/433/122
f 219/434/123 201/435/123 190/436/123 218/437/123
f 203/438/124 193/439/124 197/440/124 205/441/124
f 186/442/125 184/443/125 191/444/125 192/445/125
f 201/435/126 186/446/126 192/447/126 204/448/126
f 200/449/127 188/450/127 193/439/127 203/438/127
f 206/451/128 205/452/128 197/453/128 198/454/128
f 192/445/129 191/444/129 195/455/129 196/456/129
f 204/457/130 192/445/130 196/456/130 206/458/130
f 193/429/131 194/428/131 198/454/131 197/453/131
f 194/459/132 204/448/132 206/460/132 198/461/132
f 196/456/133 195/455/133 205/462/133 206/458/133
f 184/463/134 200/449/134 203/438/134 191/464/134
f 190/436/135 201/435/135 204/448/135 194/459/135
f 191/464/136 203/438/136 205/441/136 195/465/136
f 216/466/137 186/446/137 201/435/137 219/434/137
f 183/467/138 185/468/138 202/431/138 199/430/138
f 215/469/139 183/470/139 199/415/139 220/414/139
f 184/463/140 215/469/140 220/414/140 200/449/140
f 185/471/141 216/466/141 219/434/141 202/472/141
f 202/472/142 219/434/142 218/437/142 189/473/142
f 187/474/68 189/475/68 218/425/68 217/424/68
f 180/476/143 213/413/143 215/419/143 184/477/143
f 200/449/119 220/414/119 217/417/119 188/450/119
f 176/478/144 211/399/144 213/413/144 180/476/144
f 177/479/145 212/403/145 214/406/145 181/480/145
f 181/480/146 214/406/146 216/409/146 185/481/146
f 174/482/147 209/400/147 212/403/147 177/479/147
f 171/483/148 207/396/148 211/399/148 176/478/148
f 378/484/149 76/485/149 210/381/149 379/380/149
f 382/486/150 79/487/150 208/373/150 380/372/150
f 289/488/151 223/489/151 224/490/151 283/491/151
f 223/492/65 227/493/65 228/494/65 224/495/65
f 244/496/152 246/497/152 232/498/152 226/499/152
f 225/500/67 221/501/67 222/502/67 226/503/67
f 241/504/68 221/505/68 225/506/68 243/507/68
f 244/496/153 226/499/153 222/508/153 242/509/153
f 232/510/67 236/511/67 235/512/67 231/513/67
f 227/493/65 230/514/65 229/515/65 228/494/65
f 226/503/67 232/510/67 231/513/67 225/500/67
f 284/516/68 285/517/68 230/518/68 227/519/68
f 248/520/154 250/521/154 240/522/154 236/523/154
f 285/517/155 286/524/155 234/525/155 230/518/155
f 246/497/156 248/520/156 236/523/156 232/498/156
f 230/514/65 234/526/65 233/527/65 229/515/65
f 249/528/157 254/529/157 251/530/157 250/531/157
f 234/526/158 238/532/158 237/533/158 233/527/158
f 236/511/159 240/534/159 239/535/159 235/512/159
f 286/536/160 287/537/160 238/538/160 234/539/160
f 235/540/161 239/541/161 249/542/161 247/543/161
f 238/532/162 256/544/162 255/545/162 237/533/162
f 266/546/163 267/547/163 248/520/163 246/497/163
f 231/548/164 235/549/164 247/550/164 245/551/164
f 267/547/165 268/552/165 250/521/165 248/520/165
f 225/506/68 231/548/68 245/551/68 243/507/68
f 265/553/153 244/496/153 242/509/153 259/554/153
f 264/555/68 241/504/68 243/507/68 260/556/68
f 265/553/152 266/546/152 246/497/152 244/496/152
f 221/557/151 241/558/151 242/559/151 222/560/151
f 254/561/166 253/562/166 252/563/166 251/564/166
f 250/521/167 251/565/167 252/566/167 240/522/167
f 239/567/168 253/568/168 254/569/168 249/346/168
f 240/534/169 252/570/169 253/571/169 239/535/169
f 287/572/170 288/573/170 256/574/170 238/575/170
f 250/576/171 258/577/171 257/578/171 249/579/171
f 268/552/172 270/580/172 258/581/172 250/521/172
f 281/582/172 282/583/172 270/580/172 268/552/172
f 249/584/170 257/585/170 269/586/170 263/587/170
f 278/588/152 279/589/152 266/546/152 265/553/152
f 277/590/68 264/555/68 260/556/68 272/591/68
f 278/588/153 265/553/153 259/554/153 271/592/153
f 280/593/165 281/582/165 268/552/165 267/547/165
f 279/589/163 280/593/163 267/547/163 266/546/163
f 247/550/173 249/584/173 263/587/173 262/594/173
f 245/551/174 247/550/174 262/594/174 261/595/174
f 243/507/68 245/551/68 261/595/68 260/556/68
f 241/558/151 264/596/151 259/597/151 242/559/151
f 291/598/163 292/599/163 280/593/163 279/589/163
f 292/599/165 293/600/165 281/582/165 280/593/165
f 290/601/153 278/588/153 271/592/153 283/602/153
f 289/603/68 277/590/68 272/591/68 284/516/68
f 290/601/152 291/598/152 279/589/152 278/588/152
f 293/600/172 294/604/172 282/583/172 281/582/172
f 263/587/170 269/586/170 276/605/170 275/606/170
f 262/594/173 263/587/173 275/606/173 274/607/173
f 261/595/174 262/594/174 274/607/174 273/608/174
f 260/556/68 261/595/68 273/608/68 272/591/68
f 264/596/151 277/609/151 271/610/151 259/597/151
f 237/611/172 255/612/172 294/604/172 293/600/172
f 228/613/152 229/614/152 291/598/152 290/601/152
f 223/615/68 289/603/68 284/516/68 227/519/68
f 228/613/153 290/601/153 283/602/153 224/616/153
f 233/617/175 237/611/175 293/600/175 292/599/175
f 229/614/176 233/617/176 292/599/176 291/598/176
f 275/606/170 276/605/170 288/573/170 287/572/170
f 274/607/177 275/606/177 287/572/177 286/524/177
f 273/608/178 274/607/178 286/524/178 285/517/178
f 272/591/68 273/608/68 285/517/68 284/516/68
f 277/609/151 289/488/151 283/491/151 271/610/151
f 295/618/179 298/619/179 297/620/179 296/621/179
f 270/622/180 269/623/180 295/624/180 296/625/180
f 258/581/181 270/580/181 296/626/181 297/627/181
f 257/578/182 258/577/182 297/628/182 298/629/182
f 269/586/183 257/585/183 298/630/183 295/631/183
f 299/632/179 302/633/179 301/634/179 300/635/179
f 282/636/184 276/637/184 299/638/184 300/639/184
f 270/580/181 282/583/181 300/640/181 301/641/181
f 269/642/185 270/643/185 301/644/185 302/645/185
f 276/605/183 269/586/183 302/646/183 299/647/183
f 303/648/179 306/649/179 305/650/179 304/651/179
f 294/652/186 288/653/186 303/654/186 304/655/186
f 282/583/181 294/604/181 304/656/181 305/657/181
f 276/658/187 282/659/187 305/660/187 306/661/187
f 288/573/183 276/605/183 306/662/183 303/663/183
f 307/664/179 310/665/179 309/666/179 308/667/179
f 255/545/188 256/544/188 307/668/188 308/669/188
f 294/604/189 255/612/189 308/670/189 309/671/189
f 288/672/190 294/673/190 309/674/190 310/675/190
f 256/574/191 288/573/191 310/676/191 307/677/191
f 350/678/192 313/679/192 78/680/192 351/681/192
f 313/682/193 316/683/193 73/684/193 78/685/193
f 352/686/194 314/687/194 74/688/194 353/689/194
f 314/690/111 311/691/111 77/692/111 74/693/111
f 313/682/65 318/694/65 320/695/65 316/683/65
f 321/696/112 325/697/112 323/698/112 319/699/112
f 350/678/195 354/700/195 318/701/195 313/679/195
f 352/686/196 355/702/196 321/703/196 314/687/196
f 314/690/67 321/696/67 319/699/67 311/691/67
f 357/704/197 359/705/197 329/706/197 325/707/197
f 318/694/116 322/708/116 324/709/116 320/695/116
f 355/702/198 357/704/198 325/707/198 321/703/198
f 354/700/199 356/710/199 322/711/199 318/701/199
f 363/712/200 360/713/200 330/714/200 342/715/200
f 356/710/201 358/716/201 326/717/201 322/711/201
f 325/697/67 329/718/67 327/719/67 323/698/67
f 322/708/65 326/720/65 328/721/65 324/709/65
f 360/722/68 331/723/68 333/724/68 361/725/68
f 331/723/121 336/726/121 337/727/121 333/724/121
f 342/728/122 330/729/122 332/730/122 345/731/122
f 362/732/202 361/733/202 333/734/202 344/735/202
f 346/736/203 348/737/203 340/738/203 336/739/203
f 329/740/125 335/741/125 334/742/125 327/743/125
f 344/744/204 347/745/204 335/741/204 329/740/204
f 343/746/205 346/736/205 336/739/205 331/747/205
f 349/748/128 341/749/128 340/750/128 348/751/128
f 335/741/129 339/752/129 338/753/129 334/742/129
f 347/745/206 349/754/206 339/752/206 335/741/206
f 336/726/131 340/750/131 341/749/131 337/727/131
f 337/755/207 341/756/207 349/757/207 347/758/207
f 339/752/133 349/754/133 348/759/133 338/753/133
f 327/760/208 334/761/208 346/736/208 343/746/208
f 333/734/209 337/755/209 347/758/209 344/735/209
f 334/761/210 338/762/210 348/737/210 346/736/210
f 359/763/211 362/764/211 344/744/211 329/740/211
f 326/765/138 342/728/138 345/731/138 328/766/138
f 358/767/212 363/712/212 342/715/212 326/768/212
f 327/760/213 343/746/213 363/712/213 358/767/213
f 328/769/214 345/770/214 362/764/214 359/763/214
f 345/771/215 332/772/215 361/733/215 362/732/215
f 330/773/68 360/722/68 361/725/68 332/774/68
f 323/775/216 327/776/216 358/716/216 356/710/216
f 343/746/200 331/747/200 360/713/200 363/712/200
f 319/777/217 323/775/217 356/710/217 354/700/217
f 320/778/218 324/779/218 357/704/218 355/702/218
f 324/779/219 328/780/219 359/705/219 357/704/219
f 316/781/220 320/778/220 355/702/220 352/686/220
f 311/782/221 319/777/221 354/700/221 350/678/221
f 316/781/222 352/686/222 353/689/222 73/783/222
f 311/782/223 350/678/223 351/681/223 77/784/223
f 65/785/224 375/172/224 353/184/224 73/786/224
f 67/787/225 376/171/225 210/182/225 75/788/225
f 64/789/54 374/132/54 375/172/54 65/785/54
f 62/790/53 373/136/53 376/171/53 67/787/53
f 51/791/226 372/133/226 373/136/226 62/790/226
f 49/792/227 371/129/227 374/132/227 64/789/227
f 9/99/24 317/94/24 369/97/24 30/100/24
f 19/141/228 366/90/228 372/93/228 51/142/228
f 12/33/229 364/77/229 368/79/229 22/71/229
f 16/74/230 315/67/230 367/70/230 23/75/230
f 23/793/231 367/63/231 365/66/231 17/794/231
f 17/147/232 365/51/232 371/54/232 49/148/232
f 39/36/1 370/49/1 312/50/1 10/37/1
f 22/795/233 368/45/233 366/48/233 19/796/233
f 400/28/7 407/43/7 364/44/7 12/29/7
f 401/40/5 408/25/5 315/26/5 16/41/5
f 78/797/234 351/186/234 208/189/234 80/798/234
f 171/483/235 382/486/235 380/372/235 207/396/235
f 174/482/236 378/484/236 379/380/236 209/400/236
f 173/404/111 381/384/111 382/387/111 171/405/111
f 209/400/237 379/380/237 381/383/237 173/401/237
f 172/388/238 377/376/238 378/379/238 174/389/238
f 207/396/239 380/372/239 377/375/239 172/397/239
f 15/799/240 317/800/240 396/801/240 389/802/240
f 10/803/241 312/804/241 395/805/241 388/806/241
f 25/807/242 37/808/242 394/809/242 392/810/242
f 4/811/243 42/812/243 393/813/243 385/814/243
f 1/815/244 25/807/244 392/810/244 384/816/244
f 42/812/245 26/817/245 391/818/245 393/813/245
f 312/804/241 13/819/241 390/820/241 395/805/241
f 3/821/246 15/799/246 389/802/246 386/822/246
f 2/823/241 10/803/241 388/806/241 383/824/241
f 317/800/240 9/825/240 387/826/240 396/801/240
f 26/817/247 3/827/247 386/828/247 391/818/247
f 9/825/240 1/829/240 384/830/240 387/826/240
f 13/819/248 4/831/248 385/832/248 390/820/248
f 37/808/249 2/833/249 383/834/249 394/809/249
f 389/802/250 396/801/250 408/25/250 401/40/250
f 388/806/251 395/805/251 407/43/251 400/28/251
f 406/120/252 404/835/252 413/836/252 414/837/252
f 385/814/253 393/813/253 405/104/253 398/114/253
f 384/816/254 392/810/254 404/107/254 409/106/254
f 393/813/253 391/818/253 403/21/253 405/104/253
f 395/805/251 390/820/251 402/13/251 407/43/251
f 386/822/255 389/802/255 401/40/255 410/39/255
f 383/824/251 388/806/251 400/28/251 397/27/251
f 396/801/250 387/826/250 399/17/250 408/25/250
f 391/818/253 386/828/253 410/22/253 403/21/253
f 387/826/250 384/830/250 409/18/250 399/17/250
f 390/820/256 385/832/256 398/14/256 402/13/256
f 394/809/257 383/834/257 397/10/257 406/9/257
f 412/838/258 411/839/258 414/840/258 413/841/258
f 392/842/259 394/843/259 411/839/259 412/838/259
f 394/844/260 406/845/260 414/846/260 411/847/260
f 404/848/261 392/849/261 412/850/261 413/851/261
f 369/97/262 32/96/262 40/1/262 370/49/262
f 30/100/262 39/36/262 37/35/262 25/101/262
f 370/49/262 39/36/262 30/100/262 369/97/262
f 40/1/262 32/96/262 26/113/262 42/2/262
